<svg height="512pt" viewBox="-31 0 512 512" width="512pt" xmlns="http://www.w3.org/2000/svg"><path d="m0 497c0 8.289062 6.710938 15 15 15h300c8.289062 0 15-6.710938 15-15v-76h-131.296875c-3.050781 2.59375-20.839844 17.734375-23.890625 20.332031-2.8125 2.445313-6.3125 3.660157-9.8125 3.660157s-7.003906-1.214844-9.8125-3.660157c-5.976562-5.082031-21.582031-18.359375-23.902344-20.332031h-131.285156zm0 0"/><path d="m179.457031 348.503906c-3.601562 13.007813-25.3125 13.007813-28.914062 0-.175781-.601562-5.304688-17.503906-18.429688-17.503906-11.746093 0-17.886719 10.414062-17.886719 20.699219 0 15 14.882813 28.253906 43.417969 52.335937l7.355469 6.257813 7.28125-6.210938c19.378906-16.335937 43.488281-35.332031 43.488281-52.382812 0-10.285157-6.136719-20.699219-17.882812-20.699219-13.214844 0-18.382813 17.328125-18.429688 17.503906zm0 0"/><path d="m330 391v-30h-85.636719c-2.058593 11.460938-7.335937 21.316406-14.492187 30zm0 0"/><path d="m0 391h99.933594c-7.71875-9.378906-12.898438-19.035156-14.800782-30h-85.132812zm0 0"/><path d="m360 241h90v150h-90zm0 0"/><path d="m405 512c6.460938 0 12.1875-4.132812 14.222656-10.253906l26.582032-80.746094h-81.609376l26.582032 80.746094c2.035156 6.121094 7.761718 10.253906 14.222656 10.253906zm0 0"/><path d="m360 211h90v-45c0-8.289062-6.710938-15-15-15h-60c-8.289062 0-15 6.710938-15 15zm0 0"/><path d="m450 45c0-24.851562-20.148438-45-45-45s-45 20.148438-45 45v46h90zm0 0"/><path d="m330 45c0-16.949219 5.863281-32.425781 15.382812-45-7.132812 0-281.6875 0-270.382812 0-41.351562 0-75 34.648438-75 76v255h88.328125c7.355469-17.808594 23.953125-30 43.785156-30 14.339844 0 25.152344 6.183594 32.886719 14.210938 7.734375-8.027344 18.546875-14.210938 32.886719-14.210938 19.832031 0 36.429687 12.191406 43.785156 30h88.328125c0-102.015625 0-176.765625 0-286zm-75 196h-180c-8.289062 0-15-6.710938-15-15s6.710938-15 15-15h180c8.289062 0 15 6.710938 15 15s-6.710938 15-15 15zm0-60h-180c-8.289062 0-15-6.710938-15-15s6.710938-15 15-15h180c8.289062 0 15 6.710938 15 15s-6.710938 15-15 15zm0-60h-180c-8.289062 0-15-6.710938-15-15s6.710938-15 15-15h180c8.289062 0 15 6.710938 15 15s-6.710938 15-15 15zm0 0"/></svg>