<svg xmlns="http://www.w3.org/2000/svg" xmlns:xlink="http://www.w3.org/1999/xlink" width="1000" height="1000" viewBox="0 0 1000 1000"><defs><linearGradient id="a" x1="11.931%" y1="17.293%" y2="84.914%"><stop offset="0%" stop-color="#54B78C"/><stop offset="100%" stop-color="#68BD47"/></linearGradient><rect id="b" width="11" height="11" y="16"/><rect id="c" width="11" height="11" x="15" y="16"/><rect id="d" width="9" height="9" x="16" y="2"/><rect id="e" width="11" height="11" y="1"/></defs><g fill="none" fill-rule="evenodd"><path fill="#000000" d="M21.4911227,10.6115636 C17.2254684,10.6115636 13.7674723,14.0561489 13.7674723,18.3052602 C13.7671945,20.3457554 14.5806675,22.3027872 16.0289366,23.7458308 C17.4772056,25.1888744 19.441636,25.9997233 21.4900754,26 C24.2496571,26 26.7996156,24.5334903 28.1794065,22.1528909 C29.5591973,19.7722915 29.5591973,16.8392721 28.1794065,14.4586727 C26.7996156,12.0780733 24.2496571,10.6115636 21.4900754,10.6115636 L21.4911227,10.6115636 Z M21.4377117,21.7436906 C19.5012492,21.7436906 17.9314362,20.1799656 17.9314362,18.2510131 C17.9314362,16.3220606 19.5012492,14.7583357 21.4377117,14.7583357 C23.3741742,14.7583357 24.9439872,16.3220606 24.9439872,18.2510131 C24.9439872,20.1799656 23.3741742,21.7436906 21.4377117,21.7436906 L21.4377117,21.7436906 Z M2.49251362,13.1862135 L2.55430283,13.1862135 C3.58167924,11.7893512 4.92114349,11.0142439 6.72769223,11.0142439 C10.776456,11.0142439 11.7116722,13.9310677 11.7116722,17.3434177 L11.7116722,26 L9.21915858,26 L9.21915858,17.7784376 C9.21915858,15.4197328 9.03274369,13.3103559 6.13598206,13.3103559 C2.70929947,13.3103559 2.49146635,16.4744212 2.49146635,19.0803675 L2.49146635,26 L0,26 L0,11.4179673 L2.49251362,11.4179673 L2.49251362,13.1862135 L2.49251362,13.1862135 Z M43.388588,23.5797456 L43.3257515,23.5797456 C42.1109129,25.1633431 40.2729459,26 38.2799823,26 C33.9819672,26 31.2726678,22.3696184 31.2726678,18.3365566 C31.2726678,14.1783092 33.9191308,10.6115636 38.3114006,10.6115636 C40.2729459,10.6115636 42.1423312,11.5421097 43.3257515,13.0933676 L43.388588,13.0933676 L43.388588,0 L45.8811016,0 L45.8811016,25.5973197 L43.388588,25.5973197 L43.388588,23.5797456 L43.388588,23.5797456 Z M33.8259233,18.1508647 C33.8259233,21.0050957 35.5078464,23.703888 38.6224411,23.703888 C41.8312906,23.703888 43.5132136,21.1292381 43.5132136,18.1811178 C43.5132136,15.2653372 41.6752467,12.9076756 38.5910229,12.9076756 C35.6942613,12.9076756 33.8259233,15.4197328 33.8259233,18.1508647 Z M50.4901572,18.833126 C50.5215755,21.5319183 52.4517026,23.7049312 55.286675,23.7049312 C57.4042644,23.7049312 58.7740996,22.4322112 59.7407341,20.6952614 L61.8583234,21.9043454 C60.4560226,24.5102917 58.089182,26 55.0992129,26 C50.7394086,26 47.9358544,22.6794527 47.9358544,18.4909521 C47.9358544,14.1783092 50.458739,10.6115636 55.0374237,10.6115636 C59.7407341,10.6115636 62.2322004,14.4891867 61.982949,18.8320828 L50.4901572,18.8320828 L50.4901572,18.833126 Z M59.366857,16.7227059 C59.0243982,14.6133291 57.2492677,12.9076756 55.0677947,12.9076756 C52.9187871,12.9076756 50.9258235,14.6133291 50.6147829,16.7227059 L59.366857,16.7227059 L59.366857,16.7227059 Z"/><g transform="translate(1 40)"><path stroke="#2378F1" stroke-linejoin="round" d="M21.9977111,3.29160401 C21.9977111,3.29160401 21.7845778,1.78360401 21.1175778,1.12560401 C20.2742444,0.248104011 19.3292,0.248104011 18.8937333,0.193104011 C15.7892444,-0.0263959891 11.1192222,0.00110401094 11.1192222,0.00110401094 C11.1192222,0.00110401094 6.4676,-0.0263959891 3.36362222,0.193104011 C2.93735556,0.248104011 1.99231111,0.248104011 1.14897778,1.12560401 C0.481466667,1.78360401 0.259133333,3.29160401 0.259133333,3.29160401 C0.259133333,3.29160401 0.0368,5.07410401 0,6.83810401 L0,8.68410401 C0.0368,10.457604 0.259133333,12.221604 0.259133333,12.221604 C0.259133333,12.221604 0.481466667,13.729604 1.14897778,14.397104 C1.99231111,15.265104 3.09477778,15.238104 3.59515556,15.329104 C5.33702222,15.503104 10.9244889,15.539604 11.1192222,15.539604 C11.1192222,15.539604 15.7984444,15.548604 18.9029333,15.329104 C19.3292,15.274604 20.2742444,15.274604 21.1175778,14.397104 C21.7845778,13.739104 22.0069111,12.230604 22.0069111,12.230604 C22.0069111,12.230604 22.2292444,10.457604 22.2384444,8.69360401 L22.2384444,6.84710401 C22.2200444,5.07410401 21.9977111,3.29160401 21.9977111,3.29160401 Z"/><polygon fill="#2378F1" fill-rule="nonzero" points="9 10.651 9 5 14.255 7.934"/></g><path fill="#2378F1" fill-rule="nonzero" d="M-0.0101508175,68.0144721 C-0.262795503,67.7594409 -0.674348191,67.7575061 -0.929379476,68.0101508 C-1.18441076,68.2627955 -1.18634548,68.6743482 -0.933700796,68.9293795 L2.03822501,71.9293795 C2.29255097,72.1861079 2.70744903,72.1861079 2.96177499,71.9293795 L5.9337008,68.9293795 C6.18634548,68.6743482 6.18441076,68.2627955 5.92937948,68.0101508 C5.67434819,67.7575061 5.2627955,67.7594409 5.01015082,68.0144721 L2.5,70.548335 L-0.0101508175,68.0144721 Z" transform="rotate(-90 2.5 69.972)"/><path fill="#FFFFFF" fill-rule="nonzero" d="M9.98984918,68.0144721 C9.7372045,67.7594409 9.32565181,67.7575061 9.07062052,68.0101508 C8.81558924,68.2627955 8.81365452,68.6743482 9.0662992,68.9293795 L12.038225,71.9293795 C12.292551,72.1861079 12.707449,72.1861079 12.961775,71.9293795 L15.9337008,68.9293795 C16.1863455,68.6743482 16.1844108,68.2627955 15.9293795,68.0101508 C15.6743482,67.7575061 15.2627955,67.7594409 15.0101508,68.0144721 L12.5,70.548335 L9.98984918,68.0144721 Z" transform="rotate(-90 12.5 69.972)"/><path fill="#202A37" fill-rule="nonzero" d="M19.9898492,68.0144721 C19.7372045,67.7594409 19.3256518,67.7575061 19.0706205,68.0101508 C18.8155892,68.2627955 18.8136545,68.6743482 19.0662992,68.9293795 L22.038225,71.9293795 C22.292551,72.1861079 22.707449,72.1861079 22.961775,71.9293795 L25.9337008,68.9293795 C26.1863455,68.6743482 26.1844108,68.2627955 25.9293795,68.0101508 C25.6743482,67.7575061 25.2627955,67.7594409 25.0101508,68.0144721 L22.5,70.548335 L19.9898492,68.0144721 Z" transform="rotate(-90 22.5 69.972)"/><path fill="#888FA8" fill-opacity=".2" d="M0.314286227,139.184 C0.0209514274,138.831998 -0.0670476926,138.36267 0.0502862274,137.776 L2.33828623,122.816 C2.45562015,121.994663 2.74895055,121.320003 3.21828623,120.792 C3.68762191,120.263997 4.36228183,120 5.24228623,120 L13.3382862,120 C13.8076219,120 14.1889514,120.161332 14.4822862,120.484 C14.775621,120.806668 14.9222862,121.173331 14.9222862,121.584 C14.9222862,122.053336 14.8636201,122.463998 14.7462862,122.816 L9.02628623,137.424 C8.67428447,138.128004 8.29295495,138.685331 7.88228623,139.096 C7.47161751,139.506669 6.88495671,139.712 6.12228623,139.712 L1.54628623,139.712 C1.01828359,139.712 0.607621027,139.536002 0.314286227,139.184 Z M17.2102862,139.184 C16.9169514,138.831998 16.7996193,138.392003 16.8582862,137.864 L19.2342862,122.816 C19.3516201,121.994663 19.630284,121.320003 20.0702862,120.792 C20.5102884,120.263997 21.1702818,120 22.0502862,120 L30.2342862,120 C30.6449549,120 31.0116179,120.161332 31.3342862,120.484 C31.6569545,120.806668 31.8182862,121.173331 31.8182862,121.584 C31.8182862,121.877335 31.7302871,122.287997 31.5542862,122.816 L25.8342862,137.424 C25.2476166,138.949341 24.2796263,139.712 22.9302862,139.712 L18.3542862,139.712 C17.8849505,139.712 17.503621,139.536002 17.2102862,139.184 Z"/><path fill="url(#a)" fill-rule="nonzero" d="M83.5957097,188.950601 C78.4148447,185.186379 74.1446786,180.754311 69.5507084,176.322243 C67.6281218,174.480607 65.6043464,172.55802 63.7019975,170.554483 C63.8638995,170.210441 65.5233953,170.210441 65.9483882,170.473532 C67.769786,171.56637 69.8542747,171.040189 71.7970991,172.153265 C75.5613213,174.399656 78.1517539,178.831724 82.3814444,180.167416 C82.9683393,180.369793 83.4945209,179.519808 82.9683393,179.094815 C80.4183823,176.909138 77.8279498,174.925838 75.2172795,172.638971 C72.788749,170.473532 65.2805423,162.115339 65.2805423,162.115339 C65.2805423,162.115339 59.1687406,164.705772 58.9258875,164.786723 L49.3129544,154 C49.3129544,154 41.1773772,162.19629 38.7690845,166.061701 C37.494106,166.790261 36.2798408,167.397393 35.0048623,167.96405 C33.8310725,166.365268 29.9858993,161.771298 29.9858993,161.771298 C29.9858993,161.771298 23.6312445,168.449756 21.4455671,170.797336 C20.2313018,172.153265 15.6778072,172.477069 14.5040174,173.893712 C13.6742695,173.650859 9.16125038,181.098353 6.83390866,182.676897 C4.2232384,184.518533 2.32088952,186.542308 0.034023312,188.788699 C-0.573109309,189.395832 7.13747498,187.210154 7.82555861,187.108966 C8.57435551,187.007777 16.0016112,192.714823 17.4384918,193.544571 C19.2194141,194.536221 17.5599183,186.420882 17.4384918,183.587596 C18.0860999,183.850687 18.9563233,183.931638 19.644407,183.769736 C22.275315,185.773274 25.5740689,187.291105 27.375229,189.193454 C29.0347248,190.893426 25.0478873,182.090003 24.5217057,180.754311 C24.1169506,179.49957 30.7346962,171.30328 31.0382625,169.380693 C31.4227798,167.539057 31.4227798,168.793798 32.0906257,169.886637 C32.7584716,171.30328 33.0822756,172.760398 34.0334501,173.974663 C37.7976723,179.175766 56.4771193,194.394557 61.4960823,193.64576 C62.6091588,193.483858 49.6367584,182.535233 48.2201156,181.503108 C48.2201156,181.341206 48.1391646,181.260255 48.1391646,181.179304 C51.5795828,182.251905 54.8985745,183.587596 58.5008947,184.113778 C60.200866,184.356631 61.354418,182.090003 59.6949222,181.260255 C57.4485315,180.005514 54.9188122,178.831724 52.4295685,178.001976 C50.9724502,177.07104 49.5558074,176.241292 48.2201156,175.310355 C46.8034729,174.318705 45.7308719,173.063964 44.6177954,171.708035 C44.6987464,171.546133 44.7796975,171.384231 44.8606485,171.222329 C46.1963402,169.542595 47.0260882,167.78191 47.4713187,165.616471 C47.4713187,165.53552 47.4713187,165.53552 47.4713187,165.454569 C48.1391646,163.956975 48.7260595,162.459381 49.3331921,160.921312 C49.3331921,160.840361 49.3331921,160.840361 49.3331921,160.75941 C50.5879329,161.9332 54.8985745,169.117602 54.8985745,169.299742 C54.6557214,175.836537 79.5279211,188.86965 82.6850108,190.610097 C83.737374,191.196992 84.5064086,189.699398 83.5957097,188.950601 Z"/><g stroke="#FFFFFF" transform="translate(1 636)"><path fill="#FFFFFF" fill-opacity=".2" d="M21.5515152,5.21727749 C21.2121212,5.21727749 20.9575758,5.21727749 20.6181818,5.30628272 L20.6181818,5.30628272 C19.2606061,2.45811518 16.5454545,0.5 13.3212121,0.5 C9.5030303,0.5 6.27878788,3.2591623 5.43030303,6.9973822 L5.26060606,6.9973822 C2.46060606,6.9973822 0.254545455,9.40052356 0.254545455,12.2486911 C0.254545455,15.0968586 2.54545455,17.5 5.26060606,17.5 L21.5515152,17.5 C24.7757576,17.5 27.4060606,14.7408377 27.4060606,11.3586387 C27.4909091,7.97643979 24.7757576,5.21727749 21.5515152,5.21727749 L21.5515152,5.21727749 Z"/><g transform="translate(10.182 5.242)"><path d="M3.64848485 9.16363636C3.64848485 9.16363636 7.21212121 7.80606061 7.21212121 3.73333333L7.21212121 1.78181818C4.75151515 1.78181818 3.64848485.763636364 3.64848485.763636364M3.64848485 9.16363636C3.64848485 9.16363636.0848484848 7.80606061.0848484848 3.73333333L.0848484848 1.78181818C2.54545455 1.78181818 3.64848485.763636364 3.64848485.763636364"/></g></g><g transform="translate(1 673)"><polygon fill="#FFFFFF" fill-opacity=".2" stroke="#FFFFFF" points="2.107 14.046 13.416 1.781 25.1 14.046 14.416 20.567"/><path stroke="#FFFFFF" d="M13.5,2.81046196 L14.1732489,20.4934576"/><circle cx="13.957" cy="2" r="2" fill="#FFFFFF"/><circle cx="13.957" cy="21.748" r="2" fill="#FFFFFF"/><circle cx="2" cy="13.957" r="2" fill="#FFFFFF"/><circle cx="25.67" cy="13.957" r="2" fill="#FFFFFF"/></g><g stroke="#FFFFFF" transform="translate(1 718)"><circle cx="6.902" cy="7.228" r="6.642" fill="#FFFFFF" fill-opacity=".2"/><circle cx="4.558" cy="7.228" r="1.823"/><path d="M12.9581395 4.55813953L25.4604651 4.55813953M25.4604651 4.55813953C26.7627907 4.55813953 27.8046512 5.6 27.8046512 6.90232558 27.8046512 8.20465116 26.7627907 9.24651163 25.4604651 9.24651163 24.5488372 9.24651163 23.7674419 8.7255814 23.3767442 7.94418605L21.227907 10.027907 18.2325581 7.81395349 16.8651163 9.24651163 13.2837209 9.24651163"/></g><path fill="#2F2F4F" fill-rule="nonzero" d="M5.90047599 301.567715C7.5439129 304.231677 8.63955051 305.297336 11.3786289 306.895679L13.5698905 304.764497C14.6889252 305.042546 16.1015737 305.424205 17.2354318 305.419697 17.6133832 305.416771 17.989801 305.784361 18 306.135503L17.9745249 309.460265C17.9729639 309.827953 17.5935139 310.197046 17.2083528 310.219485 7.76676569 310.23568 2.30865373 304.927092 2.00181641 295.726606 1.97047786 295.371105 2.34998253 295.002001 2.72792418 295.000479L6.47201383 295.000479C6.88540916 294.984947 7.26183471 295.351045 7.35154792 295.574651 7.25570397 296.82156 7.79931985 298.342539 8.09174926 299.43722L5.90047599 301.567715zM17.5975 341.31875C17.555 341.31875 17.49125 341.31875 17.44875 341.2975L13.22 340.55375C12.3275 340.85125 11.41375 341 10.5 341 5.80375 341 2 337.19625 2 332.5 2 327.80375 5.80375 324 10.5 324 15.19625 324 19 327.80375 19 332.5 19 333.5625 18.80875 334.60375 18.42625 335.6025 18.15 336.30375 17.7675 336.98375 17.32125 337.6L18.405 340.12875C18.5325 340.405 18.49 340.745 18.29875 341 18.1075 341.2125 17.8525 341.31875 17.5975 341.31875zM20 268.558442L20 268.974026 10.7012987 273.623377C10.2597403 273.831169 9.74025974 273.831169 9.2987013 273.623377L0 268.974026 0 268.558442C0 267.701299.701298701 267 1.55844156 267L18.4415584 267C19.2987013 267 20 267.701299 20 268.558442zM10 275.337662C9.63636364 275.337662 9.27272727 275.25974 8.96103896 275.103896L0 270.61039.0328067928 277.322174C.0328067928 278.179317.734105494 279 1.59124835 279L18.4743652 279C19.3315081 279 20.0328068 278.179317 20.0328068 277.322174L20 270.61039 11.038961 275.103896C10.7272727 275.25974 10.3636364 275.337662 10 275.337662z"/><path fill="#FFFFFF" d="M108.052684,8.97901537 C104.469507,8.97901537 101.564767,11.8936645 101.564767,15.4890663 C101.564534,17.2156392 102.247857,18.8715891 103.464412,20.0926261 C104.680968,21.313663 106.331102,21.9997659 108.051805,22 C110.369871,22 112.511853,20.7591072 113.670887,18.7447539 C114.82992,16.7304005 114.82992,14.2486148 113.670887,12.2342615 C112.511853,10.2199082 110.369871,8.97901533 108.051805,8.97901537 L108.052684,8.97901537 Z M108.007819,18.3985074 C106.381178,18.3985074 105.062524,17.0753555 105.062524,15.4431649 C105.062524,13.8109744 106.381178,12.4878225 108.007819,12.4878225 C109.63446,12.4878225 110.953113,13.8109744 110.953113,15.4431649 C110.953113,17.0753555 109.63446,18.3985074 108.007819,18.3985074 L108.007819,18.3985074 Z M92.0937278,11.1575653 L92.1456312,11.1575653 C93.0086341,9.97560486 94.1337929,9.31974481 95.6513057,9.31974481 C99.0522939,9.31974481 99.8378817,11.7878265 99.8378817,14.6751996 L99.8378817,22 L97.7441538,22 L97.7441538,15.0432933 C97.7441538,13.0474662 97.5875641,11.2626088 95.1542653,11.2626088 C92.2758294,11.2626088 92.0928481,13.9398949 92.0928481,16.1449264 L92.0928481,22 L90,22 L90,9.66135698 L92.0937278,9.66135698 L92.0937278,11.1575653 L92.0937278,11.1575653 Z M126.446699,19.9520924 L126.393916,19.9520924 C125.373444,21.2920595 123.829539,22 122.155437,22 C118.545076,22 116.269247,18.9281387 116.269247,15.5155479 C116.269247,11.9970309 118.492293,8.97901537 122.181828,8.97901537 C123.829539,8.97901537 125.399835,9.76640051 126.393916,11.0790033 L126.446699,11.0790033 L126.446699,0 L128.540427,0 L128.540427,21.6592706 L126.446699,21.6592706 L126.446699,19.9520924 L126.446699,19.9520924 Z M118.413998,15.3584239 C118.413998,17.7735425 119.826824,20.057136 122.443104,20.057136 C125.138559,20.057136 126.551386,17.878586 126.551386,15.3840228 C126.551386,12.9168238 125.007481,10.9218794 122.416713,10.9218794 C119.983414,10.9218794 118.413998,13.0474662 118.413998,15.3584239 Z M132.412064,15.935722 C132.438456,18.2193155 134.059775,20.0580187 136.441171,20.0580187 C138.219959,20.0580187 139.37063,18.9811018 140.182609,17.511375 L141.961398,18.5344461 C140.783457,20.7394776 138.795295,22 136.283701,22 C132.621437,22 130.266433,19.1903061 130.266433,15.6461903 C130.266433,11.9970309 132.385673,8.97901537 136.231798,8.97901537 C140.182609,8.97901537 142.275458,12.260081 142.066085,15.9348393 L132.412064,15.9348393 L132.412064,15.935722 Z M139.86855,14.1499819 C139.580883,12.3651246 138.089761,10.9218794 136.25731,10.9218794 C134.452129,10.9218794 132.778027,12.3651246 132.51675,14.1499819 L139.86855,14.1499819 L139.86855,14.1499819 Z"/><g stroke="#FFFFFF" transform="translate(2 432)"><circle cx="2.25" cy="5.7" r="1.95" fill="#FFFFFF" fill-opacity=".3"/><circle cx="22.05" cy="14.4" r="1.95" fill="#FFFFFF" fill-opacity=".3"/><circle cx="12.525" cy="22.35" r="1.95" fill="#FFFFFF" fill-opacity=".3"/><circle cx="20.4" cy="2.325" r="1.95" fill="#FFFFFF" fill-opacity=".3"/><circle cx="2.175" cy="19.725" r="1.95" fill="#FFFFFF" fill-opacity=".3"/><circle cx="12.525" cy="10.2" r="4.875" fill="#FFFFFF" fill-opacity=".3"/><path d="M15.825 6.675L19.05 3.675M3.6 18.3L8.775 13.425M8.025 8.25L4.275 6.6M20.175 13.575L16.95 12.15M12.525 15.075L12.525 20.325"/></g><g stroke="#FFFFFF" transform="translate(0 475)"><path fill="#FFFFFF" fill-opacity=".2" d="M22.5,5.5 C22.1125,5.77225131 21.85,5.77225131 21.5,5.5 L21.5,5.5 C20.1,2.68848168 17.3,0.5 13.5,0.5 C10.0375,0.5 6.7125,3.58376963 5.5,7.5 C5.75,7.7617801 5.6625,7.7617801 5.5,7.5 C2.775,7.7617801 0.5,10.447644 0.5,13.5 C0.5,16.8141361 2.8625,19.5 5.5,19.5 L22.5,19.5 C25.7875,19.5 28.5,16.4162304 28.5,12.5 C28.5,8.85602094 25.7875,5.77225131 22.5,5.5 L22.5,5.5 Z"/><g transform="translate(8 7)"><path d="M2.44444444,2.07777778 C3.05555556,0.855555556 4.4,0 5.86666667,0 C8.06666667,0 9.77777778,1.71111111 9.77777778,3.91111111"/><polyline points="8.311 3.056 9.778 4.033 10.756 2.567"/><path d="M9.28888889,5.98888889 C8.55555556,7.21111111 7.33333333,7.94444444 5.86666667,7.94444444 C3.66666667,7.94444444 1.95555556,6.23333333 1.95555556,4.03333333"/><polyline points="3.3 4.889 1.956 4.033 .978 5.5"/></g></g><g transform="translate(2 551)"><use fill="#FFFFFF" fill-opacity=".3" xlink:href="#b"/><rect width="10" height="10" x=".5" y="16.5" stroke="#FFFFFF"/><use fill="#FFFFFF" fill-opacity=".3" xlink:href="#c"/><rect width="10" height="10" x="15.5" y="16.5" stroke="#FFFFFF"/><g transform="rotate(-45 20.5 6.5)"><use fill="#FFFFFF" fill-opacity=".3" xlink:href="#d"/><rect width="8" height="8" x="16.5" y="2.5" stroke="#FFFFFF"/></g><g><use fill="#FFFFFF" fill-opacity=".3" xlink:href="#e"/><rect width="10" height="10" x=".5" y="1.5" stroke="#FFFFFF"/></g></g><g stroke="#FFFFFF" transform="translate(1.5 591.5)"><path d="M1,-2.77555756e-17 L1,27.5"/><polygon fill="#FFFFFF" fill-opacity=".2" points="26 20 9 20 13 15.714 13 4 26 4"/><rect width="12" height="16" x="1" fill="#FFFFFF" fill-opacity=".2"/><path d="M9,19.5 L9,16"/></g><g stroke="#FFFFFF" transform="translate(3 513)"><circle cx="11.636" cy="11.855" r="11.636" fill="#FFFFFF" fill-opacity=".2"/><polygon points="9.018 16.436 6.327 11.855 9.018 7.2 14.327 7.2 17.018 11.855 14.327 16.436"/><path d="M14.3272727 7.2L21.0181818 18.7636364M9.01818182 7.2L22.3272727 7.2M6.32727273 11.8545455L12.8727273.509090909M9.01818182 16.4363636L2.32727273 4.94545455M14.3272727 16.4363636L1.01818182 16.4363636M17.0181818 11.8545455L10.3272727 23.3454545"/></g><polygon fill="#FFFFFF" fill-rule="nonzero" points="0 793.262 0 761 30 777.753"/><g stroke="#202A37" stroke-linecap="round" stroke-linejoin="round" transform="translate(0 820)"><path d="M0.877278646,0.885633681 L12.7882994,12.7966545"/><path d="M0.877278646,0.885633681 L12.7882994,12.7966545" transform="matrix(-1 0 0 1 13.666 0)"/></g><path fill="#FFFFFF" d="M10,874 C4.4771525,874 0,869.522847 0,864 C0,858.477153 4.4771525,854 10,854 C15.5228475,854 20,858.477153 20,864 C20,869.522847 15.5228475,874 10,874 Z M7.70710678,864.874269 C7.31658249,864.483745 6.68341751,864.483745 6.29289322,864.874269 C5.90236893,865.264793 5.90236893,865.897958 6.29289322,866.288482 L8.71151753,868.707107 C9.19341447,869.189004 10.0056264,869.058243 10.3119294,868.449451 L13.8338559,861.449451 C14.0820807,860.956092 13.8833603,860.35492 13.3900015,860.106695 C12.8966427,859.85847 12.2954704,860.05719 12.0472456,860.550549 L9.1472565,866.314419 L7.70710678,864.874269 Z"/><rect width="14" height="2" x="189" y="11" fill="#0D131B" rx="1"/><rect width="14" height="2" x="189" y="15" fill="#0D131B" rx="1"/><rect width="14" height="2" x="189" y="19" fill="#0D131B" rx="1"/><path fill="#0D131B" d="M226,14.5857864 L222.464466,11.0502525 C222.073942,10.6597282 221.440777,10.6597282 221.050253,11.0502525 C220.659728,11.4407768 220.659728,12.0739418 221.050253,12.4644661 L224.585786,16 L221.050253,19.5355339 C220.659728,19.9260582 220.659728,20.5592232 221.050253,20.9497475 C221.440777,21.3402718 222.073942,21.3402718 222.464466,20.9497475 L226,17.4142136 L229.535534,20.9497475 C229.926058,21.3402718 230.559223,21.3402718 230.949747,20.9497475 C231.340272,20.5592232 231.340272,19.9260582 230.949747,19.5355339 L227.414214,16 L230.949747,12.4644661 C231.340272,12.0739418 231.340272,11.4407768 230.949747,11.0502525 C230.559223,10.6597282 229.926058,10.6597282 229.535534,11.0502525 L226,14.5857864 Z"/><path fill="#FFFFFF" d="M7,896 L7,890.5 C7,890.223858 6.77614237,890 6.5,890 C6.22385763,890 6,890.223858 6,890.5 L6,890.5 L6,896 L0.5,896 C0.223857625,896 -3.20151758e-18,896.223858 3.061617e-17,896.5 L3.061617e-17,896.5 L3.061617e-17,896.5 C6.44338575e-17,896.776142 0.223857625,897 0.5,897 L0.5,897 L6,897 L6,902.5 C6,902.776142 6.22385763,903 6.5,903 C6.77614237,903 7,902.776142 7,902.5 L7,897 L12.5,897 C12.7761424,897 13,896.776142 13,896.5 C13,896.223858 12.7761424,896 12.5,896 L7,896 Z"/></g></svg>