<svg height="1000" viewBox="0 0 1000 1000" width="1000" xmlns="http://www.w3.org/2000/svg" xmlns:xlink="http://www.w3.org/1999/xlink"><linearGradient id="a" x1="100%" x2="0%" y1="55.219%" y2="55.219%"><stop offset="0" stop-color="#2fc868"/><stop offset="1" stop-color="#5ac986"/></linearGradient><linearGradient id="b" x1="0%" y1="38.568%" y2="38.568%"><stop offset="0" stop-color="#c4eeac"/><stop offset="1" stop-color="#acebb7"/></linearGradient><g fill="none" fill-rule="evenodd"><g fill-rule="nonzero" transform="translate(0 8)"><path d="m29.4 16.5c0-.9-.1-1.7-.3-2.5l3.7-2.1-3.9-6.8-3.7 2.1c-1.3-1.1-2.7-2-4.4-2.5v-4.3h-7.9v4.3c-1.6.5-3.1 1.4-4.4 2.5l-3.7-2.1-3.9 6.8 3.7 2.1c-.2.8-.3 1.7-.3 2.5 0 .9.1 1.7.3 2.5l-3.7 2.1 3.9 6.8 3.7-2.1c1.3 1.1 2.7 2 4.4 2.5v4.3h7.9v-4.3c1.6-.5 3.1-1.4 4.4-2.5l3.7 2.1 3.9-6.8-3.7-2.1c.2-.7.3-1.6.3-2.5z" fill="url(#a)"/><circle cx="16.9" cy="16.5" fill="url(#b)" r="6.4"/><g transform="matrix(.94551858 .32556815 -.32556815 .94551858 35.583825 3.583445)"><path d="m15.9094841 9.02440635c0-.49090909-.0545455-.92727273-.1636364-1.36363637l2.0181818-1.14545454-2.1272727-3.70909091-2.0181818 1.14545454c-.7090909-.6-1.4727273-1.09090909-2.4-1.36363636v-2.34545454h-4.30909092v2.34545454c-.87272728.27272727-1.69090909.76363636-2.4 1.36363636l-2.01818182-1.14545454-2.12727273 3.70909091 2.01818182 1.14545454c-.10909091.43636364-.16363636.92727273-.16363636 1.36363637 0 .49090909.05454545.92727272.16363636 1.36363635l-2.01818182 1.1454546 2.12727273 3.7090909 2.01818182-1.1454546c.70909091.6 1.47272727 1.0909091 2.4 1.3636364v2.3454545h4.30909092v-2.3454545c.8727273-.2727273 1.6909091-.7636364 2.4-1.3636364l2.0181818 1.1454546 2.1272727-3.7090909-2.0181818-1.1454546c.1090909-.3818182.1636364-.87272726.1636364-1.36363635z" fill="url(#a)"/><circle cx="9.091" cy="9.024" fill="url(#b)" r="3.491"/></g></g><g transform="translate(1 65)"><path d="m24.5692884 27.3383031c-1.7977528-1.3362361-2.3970038-2.7939482-2.3970038-4.9805163 0-2.0650922 1.1985019-1.3362361 1.7977529-5.1019924.2397003-1.5791881 1.6779026 0 1.9176029-3.6442803 0-1.4577121-.7191011-1.8221401-.7191011-1.8221401.2397004-1.4577121.9588015-6.80265653-.9588015-8.9892247-1.1985018-1.4577121-3.1161048-1.57918811-3.5955056-1.57918811h-.1198502c-.4794007-.85033207-3.7153558-2.06509216-7.7902621-.36442803-4.31460679 1.82214013-4.31460679 5.58789642-3.71535586 8.74627265.11985019 1.21476009.35955057 2.18656819.35955057 2.18656819s-.71910113.364428-.71910113 1.8221401c.23970038 3.5228043 1.67790262 2.0650922 1.91760302 3.6442803.7191011 3.7657563 1.7977528 3.0369002 1.7977528 5.1019924 0 3.4013282-1.1985019 4.9805163-6.35205994 6.9241325-5.15355805 1.9436161-5.99250936 3.8872323-5.99250936 5.2234684v4.4946123h17.4981273 14.5018727z" fill="url(#a)" fill-rule="nonzero"/><g transform="translate(21 21)"><circle cx="8" cy="8" fill="url(#b)" fill-rule="nonzero" r="8" transform="translate(1 1)"/><circle cx="9" cy="9" r="9" stroke="#fff" stroke-width="2"/><g stroke="#41c975"><circle cx="9" cy="9" r="7.5"/><path d="m15 15 4 4" stroke-width="1.5"/></g></g></g><g transform="translate(2 124)"><g stroke="#4bc87c"><circle cx="3.818" cy="9.673" fill="url(#b)" fill-rule="nonzero" r="3.309"/><circle cx="37.418" cy="24.436" fill="url(#b)" fill-rule="nonzero" r="3.309"/><circle cx="21.255" cy="37.927" fill="url(#b)" fill-rule="nonzero" r="3.309"/><circle cx="34.618" cy="3.945" fill="url(#b)" fill-rule="nonzero" r="3.309"/><circle cx="3.691" cy="33.473" fill="url(#b)" fill-rule="nonzero" r="3.309"/><path d="m26.8545455 11.3272727 5.4727272-5.09090906m-26.21818179 24.81818186 8.78181819-8.2727273m-1.2727273-8.7818182-6.36363635-2.8m26.98181815 11.8363636-5.4727272-2.4181818m-7.7636364 4.9636364v8.9090909" stroke-width="1.5"/></g><circle cx="21.255" cy="17.309" fill="url(#a)" fill-rule="nonzero" r="8.273"/></g><g fill-rule="nonzero" transform="translate(1 183)"><path d="m30 8h-25.96638655c-2.15126051 0-4.03361345-1.76-4.03361345-4s1.88235294-4 4.03361345-4h23.93277315 2.0336134z" fill="url(#b)"/><path d="m4 7c13.6635742.13330078 28 0 28 0v36h-27c-2.57983193 0-5-2.4742268-5-5v-35s.55224609 4.13330078 4 4z" fill="url(#a)"/><path d="m24.7608696 29.2666667-6.057971-2.8c1.5144927-.6666667 2.4782608-2.1333334 2.615942-3.8666667l.1376811-3.4666667c0-2.2666666-1.9275362-4.1333333-4.4057971-4.1333333h-.9637681c-2.4782608 0-4.4057971 1.8666667-4.4057971 4.1333333l.1376812 3.4666667c0 1.7333333 1.1014493 3.0666667 2.615942 3.8666667l-6.05797101 2.8c-.82608695.4-1.37681159 1.2-1.37681159 2v1.7333333h19v-1.7333333c0-.9333334-.4130435-1.7333334-1.2391304-2z" fill="url(#b)"/></g></g></svg>