<svg height="1000" viewBox="0 0 1000 1000" width="1000" xmlns="http://www.w3.org/2000/svg" xmlns:xlink="http://www.w3.org/1999/xlink"><linearGradient id="a" x1="0%" y1="53.792%" y2="53.792%"><stop offset="0" stop-color="#9872ee"/><stop offset="1" stop-color="#2bb6e4"/></linearGradient><linearGradient id="b" x1="100%" x2=".874%" y1="43.337%" y2="43.337%"><stop offset="0" stop-color="#b7dff8"/><stop offset="1" stop-color="#a2d4f5"/></linearGradient><g fill="none" transform="translate(3 2)"><path d="m39.0038645 0c-2.7596272 0-4.9961355 2.33706895-4.9961355 5.22206815 0 2.53051761 1.7193908 4.6375395 4.0029098 5.11959265v11.6058739h-11.1155263c-.4661059-2.380987-2.4805637-4.1701257-4.8951125-4.1701257s-4.4290066 1.7891387-4.8941123 4.1701257h-12.10275062c-.55312571 0-1.00022733.4674138-1.00022733 1.0446228v12.665136c-2.28351898.4820532-4.00290975 2.5901207-4.00290975 5.118547 0 2.8860449 2.2365083 5.2241595 4.99613549 5.2241595 2.75962718 0 4.99613548-2.3381146 4.99613548-5.2241595 0-2.5242436-1.71238918-4.6302198-3.98890657-5.1175013v-11.6205133h11.1005228c.4611048 2.387261 2.4775631 4.1858108 4.8961128 4.1858108 2.4195499 0 4.4360082-1.7985498 4.8961128-4.1858108h12.1147533c.5521255 0 1.0002273-.4663681 1.0002273-1.0456684v-12.652588c2.2765174-.48728153 3.9889066-2.59221209 3.9889066-5.11750135 0-2.8849992-2.2365083-5.22206815-4.9961355-5.22206815" fill="url(#a)"/><path d="m8.0058195 40.7664295c0 1.7316269-1.34330529 3.1359596-3.00068197 3.1359596s-3.00068197-1.4043327-3.00068197-3.1359596c0-1.7337183 1.34330529-3.138051 3.00068197-3.138051s3.00068197 1.4043327 3.00068197 3.138051m14.0031825-14.6393581c-1.6573766 0-3.0006819-1.4053783-3.0006819-3.1380509s1.3433053-3.1370053 3.0006819-3.1370053c1.6573767 0 3.000682 1.4043327 3.000682 3.1370053s-1.3433053 3.1380509-3.000682 3.1380509m17.0038646-17.77740897c-1.6573767 0-3.000682-1.4043327-3.000682-3.1370053 0-1.73267259 1.3433053-3.13700529 3.000682-3.13700529 1.6573766 0 3.0006819 1.4043327 3.0006819 3.13700529 0 1.7326726-1.3433053 3.1370053-3.0006819 3.1370053" fill="url(#b)"/><g transform="translate(0 62)"><path d="m33.9738235 28.6823529s-3.5841176-.8373529-3.5841176-4.5079411c0-3.2241177 1.472647-4.3597059 2.0417647-5.1441177 0 0 1.1673529-1.0032353.3855882-4.2414706 1.3032353-1.7735294 1.5476471-4.90941174.1314706-8.23058821-.8894118-2.08411764-1.6755882-3.22588235-2.8720588-3.88941176-.8797059-.48794118-1.8767647-.66882353-2.847353-.66882353-1.8079411 0-3.5214705.62823529-4.2052941 1.06764706-2.0011764.88058823-3.3467647 1.69147059-4.6085294 4.78235294-1.0235294 2.5085294.2082353 5.4132353.8497059 6.8285294-.7817647 3.2382353.3035294 4.3517647.3035294 4.3517647.5682353.7844118 2.0408824 1.92 2.0408824 5.1441177 0 3.6705882-3.5832353 4.5079411-3.5832353 4.5079411-2.2764706.8029412-7.0261765 2.4441177-7.0261765 7.7382353 0 0 0 .882353.8823529.882353h28.2352942c.8823529 0 .8823529-.882353.8823529-.882353 0-5.2941176-4.7497059-6.9352941-7.0261765-7.7382353z" fill="url(#b)"/><path d="m26.037 30.24s-4.062-.949-4.062-5.109c0-3.654 1.669-4.941 2.314-5.83 0 0 1.323-1.137.437-4.807 1.477-2.01 1.754-5.564.149-9.328-1.008-2.362-1.899-3.656-3.255-4.408-.997-.553-2.127-.758-3.227-.758-2.049 0-3.991.712-4.766 1.21-2.268.998-3.793 1.917-5.223 5.42-1.16 2.843.236 6.135.963 7.739-.886 3.67.344 4.932.344 4.932.644.889 2.313 2.176 2.313 5.83 0 4.16-4.061 5.109-4.061 5.109-2.58.91-7.963 2.77-7.963 8.77 0 0 0 1 1 1h32c1 0 1-1 1-1 0-6-5.383-7.86-7.963-8.77z" fill="url(#a)"/></g><g transform="translate(0 121)"><path d="m20 0c-11.046 0-20 2.687-20 6 0 12 16 14 16 24v.998.002.002c.001 1.463.004 2.756.017 3.916-.003.028-.017.053-.017.082 0 .034.016.062.02.097.09 7.468.638 8.903 3.98 8.903 4 0 4-2 4-14 0-10 16-12 16-24 0-3.313-8.954-6-20-6" fill="url(#a)"/><path d="m20 10c-9.941 0-18-1.791-18-4s8.059-4 18-4 18 1.791 18 4-8.059 4-18 4" fill="url(#b)"/></g><g transform="translate(0 182)"><path d="m28 0c-8.836 0-16 6.044-16 13.5 0 3.83 1.898 7.278 4.934 9.734l-1.934 6.766 8.969-3.449c1.29.283 2.635.449 4.031.449 8.836 0 16-6.044 16-13.5s-7.164-13.5-16-13.5" fill="url(#b)" transform="matrix(-1 0 0 1 56 0)"/><path d="m16 10c-8.836 0-16 6.044-16 13.5 0 3.83 1.898 7.278 4.934 9.734l-1.934 6.766 8.969-3.449c1.29.283 2.635.449 4.031.449 8.836 0 16-6.044 16-13.5s-7.164-13.5-16-13.5" fill="url(#a)"/></g></g></svg>