<svg xmlns="http://www.w3.org/2000/svg" width="1000" height="1000" viewBox="0 0 1000 1000"><defs><linearGradient id="a" x1="14.155%" y1="14.348%" y2="95.687%"><stop offset="0%" stop-color="#636EFE"/><stop offset="100%" stop-color="#BA59FF"/></linearGradient><linearGradient id="b" x1="100%" x2="0%" y1="100%" y2="0%"><stop offset="0%" stop-color="#74B6FE"/><stop offset="100%" stop-color="#59F2FF"/></linearGradient><linearGradient id="c" x1="13.142%" x2="89.928%" y1="0%" y2="100%"><stop offset="0%" stop-color="#70FBD7"/><stop offset="100%" stop-color="#13D08C"/></linearGradient><linearGradient id="d" x1="50%" x2="50%" y1="0%" y2="100%"><stop offset="0%" stop-color="#36AFFE"/><stop offset="100%" stop-color="#0E7CFB"/></linearGradient></defs><g fill="none" fill-rule="evenodd"><g transform="translate(90 234)"><polygon fill="url(#a)" points="31.937 0 74 0 66.063 10 24 10"/><path fill="url(#b)" d="M19.9365079,18 L62,18 L54.0634921,28 L12,28 L19.9365079,18 Z M7.93650794,36 L50,36 L42.0634921,46 L0,46 L7.93650794,36 Z"/></g><g transform="translate(180 233)"><path fill="url(#b)" d="M0,39 L8,39 L8,47 L0,47 L0,39 Z M26,39 L34,39 L34,47 L26,47 L26,39 Z M13,26 L21,26 L21,34 L13,34 L13,26 Z M26,26 L34,26 L34,34 L26,34 L26,26 Z M0,13 L8,13 L8,21 L0,21 L0,13 Z M26,13 L34,13 L34,21 L26,21 L26,13 Z M39,13 L47,13 L47,21 L39,21 L39,13 Z M0,0 L8,0 L8,8 L0,8 L0,0 Z M13,0 L21,0 L21,8 L13,8 L13,0 Z M26,0 L34,0 L34,8 L26,8 L26,0 Z"/><path fill="url(#c)" d="M13,39 L21,39 L21,47 L13,47 L13,39 Z M39,39 L47,39 L47,47 L39,47 L39,39 Z M0,26 L8,26 L8,34 L0,34 L0,26 Z M39,26 L47,26 L47,34 L39,34 L39,26 Z M13,13 L21,13 L21,21 L13,21 L13,13 Z M39,0 L47,0 L47,8 L39,8 L39,0 Z"/></g><path fill="#2F2F4F" fill-rule="nonzero" d="M15.1161165,1.11611652 C15.6042719,0.627961159 16.3957281,0.627961159 16.8838835,1.11611652 C17.3720388,1.60427189 17.3720388,2.39572811 16.8838835,2.88388348 L10.8838835,8.88388348 C10.3957281,9.37203884 9.60427189,9.37203884 9.11611652,8.88388348 L3.11611652,2.88388348 C2.62796116,2.39572811 2.62796116,1.60427189 3.11611652,1.11611652 C3.60427189,0.627961159 4.39572811,0.627961159 4.88388348,1.11611652 L10,6.23223305 L15.1161165,1.11611652 Z M1.375,13.75 C0.684644063,13.75 0.125,13.1903559 0.125,12.5 C0.125,11.8096441 0.684644063,11.25 1.375,11.25 L18.625,11.25 C19.3153559,11.25 19.875,11.8096441 19.875,12.5 C19.875,13.1903559 19.3153559,13.75 18.625,13.75 L1.375,13.75 Z" transform="translate(45 8)"/><path fill="#2F2F4F" fill-rule="nonzero" d="M25 10.5584416L25 10.974026 15.7012987 15.6233766C15.2597403 15.8311688 14.7402597 15.8311688 14.2987013 15.6233766L5 10.974026 5 10.5584416C5 9.7012987 5.7012987 9 6.55844156 9L23.4415584 9C24.2987013 9 25 9.7012987 25 10.5584416zM15 17.3376623C14.6363636 17.3376623 14.2727273 17.2597403 13.961039 17.1038961L5 12.6103896 5.03280679 19.3221737C5.03280679 20.1793165 5.73410549 21 6.59124835 21L23.4743652 21C24.3315081 21 25.0328068 20.1793165 25.0328068 19.3221737L25 12.6103896 16.038961 17.1038961C15.7272727 17.2597403 15.3636364 17.3376623 15 17.3376623zM20.8041018 48.1958982C17.8762376 45.2680339 13.1237624 45.2680339 10.1958982 48.1958982 7.26803395 51.1237624 7.26803395 55.897454 10.1958982 58.8253182L14.9059406 63.5353607C15.0756719 63.7050919 15.2878359 63.7899576 15.5 63.7899576 15.7121641 63.7899576 15.9243281 63.7050919 16.0940594 63.5353607L20.8041018 58.8041018C23.7319661 55.8762376 23.7319661 51.1237624 20.8041018 48.1958982zM21.5975 103.31875C21.555 103.31875 21.49125 103.31875 21.44875 103.2975L17.22 102.55375C16.3275 102.85125 15.41375 103 14.5 103 9.80375 103 6 99.19625 6 94.5 6 89.80375 9.80375 86 14.5 86 19.19625 86 23 89.80375 23 94.5 23 95.5625 22.80875 96.60375 22.42625 97.6025 22.15 98.30375 21.7675 98.98375 21.32125 99.6L22.405 102.12875C22.5325 102.405 22.49 102.745 22.29875 103 22.1075 103.2125 21.8525 103.31875 21.5975 103.31875zM9.73959184 143C8.22655704 143 7 141.773443 7 140.260408 7 138.747373 8.22655704 137.520816 9.73959184 137.520816 11.2526266 137.520816 12.4791837 138.747373 12.4791837 140.260408 12.4791837 141.773443 11.2526266 143 9.73959184 143zM21.6302041 143C20.8736867 143 20.2604082 142.386721 20.2604082 141.630204 20.2604082 134.294694 15.7036735 129.739592 8.36979592 129.739592 7.61327852 129.739592 7 129.126313 7 128.369796 7 127.613279 7.61327852 127 8.36979592 127 12.7012245 127 16.3697959 128.38449 18.995102 131.004898 21.6204082 133.625306 23 137.300408 23 141.630204 23 142.386721 22.3867215 143 21.6302041 143zM16.444898 143C15.6883806 143 15.075102 142.386721 15.075102 141.630204 15.075102 137.181224 12.8187755 134.924898 8.36979592 134.924898 7.61327853 134.924898 7.00000003 134.311619 7.00000003 133.555102 7.00000003 132.798585 7.61327853 132.185306 8.36979592 132.185306 14.3714286 132.185306 17.8146939 135.626939 17.8146939 141.628571 17.8151272 141.992147 17.6710012 142.340979 17.4140676 142.598219 17.1571341 142.855459 16.8084735 143 16.444898 143zM10.900476 173.567715C12.5439129 176.231677 13.6395505 177.297336 16.3786289 178.895679L18.5698905 176.764497C19.6889252 177.042546 21.1015737 177.424205 22.2354318 177.419697 22.6133832 177.416771 22.989801 177.784361 23 178.135503L22.9745249 181.460265C22.9729639 181.827953 22.5935139 182.197046 22.2083528 182.219485 12.7667657 182.23568 7.30865373 176.927092 7.00181641 167.726606 6.97047786 167.371105 7.34998253 167.002001 7.72792418 167.000479L11.4720138 167.000479C11.8854092 166.984947 12.2618347 167.351045 12.3515479 167.574651 12.255704 168.82156 12.7993199 170.342539 13.0917493 171.43722L10.900476 173.567715z"/><g transform="translate(0 231)"><polygon fill="url(#d)" points="16 16 16 49 0 32.69"/><polygon fill="url(#b)" points="0 33 0 0 32 0"/><g transform="matrix(-1 0 0 1 53 14)"><polygon fill="url(#b)" points="13 11 13 35 1 23.138"/><polygon fill="url(#d)" points="1 24 1 0 23 0"/></g></g><polyline stroke="#2F2F4F" stroke-linecap="round" stroke-linejoin="round" stroke-opacity=".5" points="2 340 7.314 347.881 2 355.762"/><g stroke="#1982FC" stroke-linecap="round" stroke-linejoin="round" stroke-width="2" transform="matrix(1 0 0 -1 89 22)"><path d="M11.4962158 11.6561279L.401862879.573069106M12.0039063.717895508L12.0039063 11.3061308C12.0039063 11.6959789 11.687872 12.0120132 11.2980239 12.0120132L.709788603 12.0120132"/></g></g></svg>