<svg height="1000" viewBox="0 0 1000 1000" width="1000" xmlns="http://www.w3.org/2000/svg" xmlns:xlink="http://www.w3.org/1999/xlink"><linearGradient id="a" x1="100%" x2="0%" y1="43.337%" y2="43.337%"><stop offset="0" stop-color="#ade5ed"/><stop offset="1" stop-color="#b1d5f1"/></linearGradient><linearGradient id="b" x1="100%" x2="0%" y1="57.459%" y2="57.459%"><stop offset="0" stop-color="#0dc0ab"/><stop offset="1" stop-color="#21aed1"/></linearGradient><g fill="none" transform="translate(2 8)"><path d="m2 31c-1.28301887 0-2-.7153846-2-2v-27c0-1.28461538.71698113-2 2-2h10l3 5h21c1.2830189.12692308 2 .84230769 2 2v5z" fill="url(#a)"/><path d="m0 30 7.25456335-18.1364084c.41169329-1.0292332 1.64728744-1.8635916 2.74829585-1.8635916h33.9942816c1.1061486 0 1.6843129.8361839 1.2929126 1.8636099l-7.2900534 19.1363901h-37" fill="url(#b)"/><g transform="translate(23 16)"><circle cx="10.5" cy="10.5" fill="#fff" r="10.5"/><g transform="matrix(-1 0 0 1 21 3)"><circle cx="10.4" cy="7.3" fill="url(#a)" r="6.8" stroke="#15b9ba" stroke-width="2"/><path d="m4.6 10.8-4.2 4.2c-.4.4-.4 1 0 1.4l.9.9c.4.4 1 .4 1.4 0l4.2-4.2z" fill="url(#b)"/></g></g><g transform="translate(0 58)"><g fill="url(#a)"><rect height="8" rx="1" width="26" x="17"/><rect height="8" rx="1" width="26" x="17" y="15"/><rect height="8" rx="1" width="26" x="17" y="31"/></g><rect fill="url(#b)" height="8" rx="1" width="10" y="15"/><path d="m5 5h12v-1h-13v11.5h1z" fill="#18b6c0"/><path d="m5 24h12v-1h-13v12h1z" fill="#18b6c0" transform="matrix(1 0 0 -1 0 58)"/><path d="m10 20h7v-1h-7z" fill="#0ebfad"/></g><g transform="translate(0 124)"><path d="m22 0c-12.15 0-22 10-22 14s9.85 14 22 14 22-10 22-14-9.85-14-22-14" fill="url(#b)"/><path d="m22 4.001c-5.523 0-10 4.477-10 9.999 0 5.523 4.477 10 10 10s10-4.477 10-10c0-5.522-4.477-9.999-10-9.999" fill="url(#a)"/><path d="m22 11c-1.656 0-3 1.344-3 3 0 1.657 1.344 3 3 3s3-1.343 3-3c0-1.656-1.344-3-3-3" fill="url(#b)"/></g><g transform="translate(0 175)"><path d="m4.70024725 8.60825554c5.98117625-8.2581504 17.36054155-10.8137979 26.35120565-5.60867661l-.7515544 1.29813943c-8.4852588-4.91251824-19.2723003-2.35346599-24.71188319 5.65688351l7.39108859-.60748673.1228733 1.49495886-9.61479504.7902572-.92285172-9.49218915 1.49296074-.14514896zm34.79045125 3.78507056c4.1033507 9.2661742.6502446 20.4053227-8.3112822 25.7114899l-.764238-1.2907131c8.4557063-5.0066682 11.6178948-15.6186241 7.4861064-24.2871751l-3.0158071 6.6347758-1.3655498-.6207045 3.9590009-8.70980184 8.7098019 3.95900084-.6207044 1.3655497zm-20.6302062 28.2496484c-10.08845207-1.1080661-18.00238419-9.7175103-18.00238419-20.0889204h1.5c0 9.7900311 7.62477575 17.8891155 17.22798109 18.650907l-4.2410537-6.0586481 1.2288479-.8601935 5.5382049 7.9117212-7.9117213 5.5382049-.8601935-1.2288479z" fill="url(#b)"/><path d="m26.6875 17.3125c-.25 0-.4375 0-.6875.0625-1-2-3-3.375-5.375-3.375-2.8125 0-5.1875 1.9375-5.8125 4.5625h-.125c-2.0625 0-3.6875 1.6875-3.6875 3.6875s1.6875 3.6875 3.6875 3.6875h12c2.375 0 4.3125-1.9375 4.3125-4.3125s-1.9375-4.3125-4.3125-4.3125z" fill="url(#a)"/></g></g></svg>