<svg height="1000" viewBox="0 0 1000 1000" width="1000" xmlns="http://www.w3.org/2000/svg" xmlns:xlink="http://www.w3.org/1999/xlink"><linearGradient id="a" x1="100%" x2="0%" y1="100%" y2="0%"><stop offset="0" stop-color="#7481fe"/><stop offset="1" stop-color="#2dc8fd"/></linearGradient><linearGradient id="b" x1="100%" x2="0%" y1="100%" y2="0%"><stop offset="0" stop-color="#74b6fe"/><stop offset="1" stop-color="#59f2ff"/></linearGradient><linearGradient id="c" x1="14.155%" y1="14.348%" y2="95.687%"><stop offset="0" stop-color="#636efe"/><stop offset="1" stop-color="#ba59ff"/></linearGradient><g fill="none" fill-rule="evenodd"><g transform="translate(0 11)"><path d="m0 28.843 18.788 7.157 5.212-11.555-3.102-19.945-15.717 3.065z" fill="#39bbfd" fill-opacity=".2"/><path d="m0 28.5v-21l19.5-7.5 10.5 3.75v29.25l-10.5 3-19.5-7.5 19.5 3v-25.5l-12.75 3v16.5z" fill="url(#a)"/></g><g fill-rule="nonzero" transform="translate(90 13)"><path d="m32.9221698 16.4610849v.2101415c0 3.9926887-7.3549528 7.2148585-16.4610849 7.2148585-9.10613207 0-16.4610849-3.2221698-16.4610849-7.1448113 0-.1400944 0-.2101415 0-.2801887v-3.3622641c0-.3502359.42028302-.5603774.7004717-.3502359 3.50235849 2.7318396 9.6665094 4.132783 15.7606132 4.132783 6.1641509 0 12.3283019-1.4009434 15.7606132-4.132783.2801887-.2101415.7004717 0 .7004717.3502359zm0 9.3863208v.2101415c0 3.9926886-7.3549528 7.2148585-16.4610849 7.2148585-9.10613207 0-16.4610849-3.2221699-16.4610849-7.1448114 0-.1400943 0-.2101415 0-.2801886v-3.3622642c0-.3502358.42028302-.5603773.7004717-.3502358 3.50235849 2.7318396 9.6665094 4.132783 15.7606132 4.132783 6.1641509 0 12.3283019-1.4009434 15.7606132-4.132783.2801887-.2101415.7004717 0 .7004717.3502358z" fill="url(#a)"/><ellipse cx="16.461" cy="7.565" fill="url(#b)" rx="16.461" ry="7.215"/></g><g fill-rule="nonzero" transform="translate(179 11)"><path d="m44 23h-24c-4.9266667-.1299435-9-3.5951036-9-8 0-4.0847458 4.0733333-7.54990584 9-8 .3166667.45009416.7066667.53672316 1 0 .14.45009416.0966667.27683616 0 0 .0966667-3.83804143 3.6066667-7 8-7 3.2766667 0 6.1366667 1.90583804 7 5 1.26-1.14500942 2.56-1.66478343 4-2 3.11.33521657 5.6666667 2.93408663 6 6-.3333333.74576271-.42 1.3521657 0 2 2.0933333.7815443 4 3.0338983 4 6 0 3.1845574-2.86 6-6 6z" fill="url(#a)"/><path d="m24 6c-2.8029246 0-5.2447088.96292001-7 3-1.3344323-.83371176-2.4155443-1.13427204-4-1-3.0133644-.13427204-5.85010036 2.5696434-6 6-4.05296877.3878861-7 3.6095167-7 7 0 4.6607752 3.23569178 8 8 8h16c6.0115963 0 11-5.148222 11-11 .000364-6.8514023-4.9876756-12-11-12z" fill="url(#b)" stroke="#fff" stroke-width="2"/></g><g transform="translate(270 5)"><rect fill="url(#b)" height="38" rx="3" width="30"/><g transform="translate(18.429 6.825)"><path d="m10.1916489 0c-5.60540696 0-10.1916489 4.57562564-10.1916489 10.1810326 0 5.6054069 4.58624194 10.1916491 10.1916489 10.1916491 2.1551093 0 4.1509738-.6900597 5.7965005-1.83662l5.5098601 5.4992438c.700676.7112923 1.8472363.7112923 2.5479123 0 .7006757-.700676.7006757-1.83662 0-2.537296l-5.5098604-5.5098601c1.1571769-1.656143 1.8366203-3.6520075 1.8366203-5.8071168 0-5.60540696-4.5862422-10.1810326-10.1810328-10.1810326z" fill="url(#c)" fill-rule="nonzero"/><path d="m10.1916489 3.58830981c3.6520075 0 6.5821067 2.93009897 6.5821067 6.59272279 0 3.662624-2.9300992 6.592723-6.5821067 6.592723-3.66262382 0-6.59272279-2.930099-6.59272279-6.592723 0-3.66262382 2.93009897-6.59272279 6.59272279-6.59272279z" fill="#fff"/></g></g></g></svg>