<svg height="1000" viewBox="0 0 1000 1000" width="1000" xmlns="http://www.w3.org/2000/svg" xmlns:xlink="http://www.w3.org/1999/xlink"><linearGradient id="a" x1="0%" y1="6.324%" y2="100%"><stop offset="0" stop-color="#36affe"/><stop offset="1" stop-color="#0e7cfb"/></linearGradient><linearGradient id="b" x1="100%" x2="0%" y1="100%" y2="0%"><stop offset="0" stop-color="#74b6fe"/><stop offset="1" stop-color="#59f2ff"/></linearGradient><g fill="none" fill-rule="evenodd"><g fill-rule="nonzero" transform="translate(270 236)"><path d="m42.8985849 21.4492925v.2738207c0 5.2025943-9.5837264 9.4011793-21.4492924 9.4011793-11.86556608 0-21.4492925-4.198585-21.4492925-9.3099057 0-.1825472 0-.2738208 0-.3650943v-4.3811321c0-.4563679.54764151-.7301887.91273585-.4563679 4.56367924 3.5596698 12.59575475 5.3851415 20.53655665 5.3851415 8.0320754 0 16.0641509-1.8254717 20.5365566-5.3851415.3650943-.2738208.9127358 0 .9127358.4563679zm0 12.2306603v.2738208c0 5.2025943-9.5837264 9.4011792-21.4492924 9.4011792-11.86556608 0-21.4492925-4.1985849-21.4492925-9.3099056 0-.1825472 0-.2738208 0-.3650944v-4.381132c0-.456368.54764151-.7301887.91273585-.456368 4.56367924 3.5596698 12.59575475 5.3851415 20.53655665 5.3851415 8.0320754 0 16.0641509-1.8254717 20.5365566-5.3851415.3650943-.2738207.9127358 0 .9127358.456368zm-21.4492924-14.4212264c-11.84611716 0-21.4492925-4.2090513-21.4492925-9.40117923s9.60317534-9.40117924 21.4492925-9.40117924c11.8461171 0 21.4492924 4.20905131 21.4492924 9.40117924s-9.6031753 9.40117923-21.4492924 9.40117923z" fill="url(#a)"/><path d="m50.196 20.02-.615-.124c-2.824-.564-5.56-1.503-8.134-2.791-.281-.14-.613-.14-.894 0-2.574 1.288-5.31 2.227-8.134 2.791l-.615.124c-.467.093-.804.503-.804.98v3.683c0 4.341 1.69 8.422 4.76 11.491l4.533 4.533c.195.195.451.293.707.293s.512-.098.707-.293l4.533-4.533c3.07-3.069 4.76-7.15 4.76-11.491v-3.683c0-.477-.337-.887-.804-.98" fill="url(#b)" stroke="#fff" stroke-width="3"/></g><g transform="translate(90 230)"><path d="m39.9916667 6.29166667-1.28125-.25833334c-5.8833334-1.175-11.5833334-3.13125-16.9458334-5.81458333-.5854166-.29166667-1.2770833-.29166667-1.8625 0-5.3625 2.68333333-11.06249997 4.63958333-16.9458333 5.81458333l-1.28125.25833334c-.97291667.19375-1.675 1.04791666-1.675 2.04166666v7.67291667c0 9.04375 3.52083333 17.5458333 9.91666667 23.9395833l9.44375003 9.44375c.40625.40625.9395833.6104167 1.4729166.6104167.5333334 0 1.0666667-.2041667 1.4729167-.6104167l9.44375-9.44375c6.3958333-6.39375 9.9166667-14.8958333 9.9166667-23.9395833v-7.67291667c0-.99375-.7020834-1.84791666-1.675-2.04166666" fill="url(#a)" fill-rule="nonzero"/><path d="m20.8333333 13.5c-1.15 0-2.0833333-.9333333-2.0833333-2.0833333s.9333333-2.08333337 2.0833333-2.08333337 2.0833334.93333337 2.0833334 2.08333337-.9333334 2.0833333-2.0833334 2.0833333zm0 8.3333333c-1.15 0-2.0833333-.9333333-2.0833333-2.0833333s.9333333-2.0833333 2.0833333-2.0833333 2.0833334.9333333 2.0833334 2.0833333-.9333334 2.0833333-2.0833334 2.0833333zm0 8.3333334c-1.15 0-2.0833333-.9333334-2.0833333-2.0833334s.9333333-2.0833333 2.0833333-2.0833333 2.0833334.9333333 2.0833334 2.0833333-.9333334 2.0833334-2.0833334 2.0833334zm0 8.3333333c-1.15 0-2.0833333-.9333333-2.0833333-2.0833333s.9333333-2.0833334 2.0833333-2.0833334 2.0833334.9333334 2.0833334 2.0833334-.9333334 2.0833333-2.0833334 2.0833333zm-4.1666666-4.1666667c-1.15 0-2.0833334-.9333333-2.0833334-2.0833333s.9333334-2.0833333 2.0833334-2.0833333 2.0833333.9333333 2.0833333 2.0833333-.9333333 2.0833333-2.0833333 2.0833333zm-4.1666667-4.1666666c-1.15 0-2.0833333-.9333334-2.0833333-2.0833334s.9333333-2.0833333 2.0833333-2.0833333 2.0833333.9333333 2.0833333 2.0833333-.9333333 2.0833334-2.0833333 2.0833334zm-4.16666667-4.1666667c-1.15 0-2.08333333-.9333333-2.08333333-2.0833333s.93333333-2.0833334 2.08333333-2.0833334 2.08333337.9333334 2.08333337 2.0833334-.93333337 2.0833333-2.08333337 2.0833333zm0-12.5c1.15 0 2.08333337.9333333 2.08333337 2.0833333s-.93333337 2.0833334-2.08333337 2.0833334-2.08333333-.9333334-2.08333333-2.0833334.93333333-2.0833333 2.08333333-2.0833333zm4.16666667-4.16666667c1.15 0 2.0833333.93333337 2.0833333 2.08333337s-.9333333 2.0833333-2.0833333 2.0833333-2.0833333-.9333333-2.0833333-2.0833333.9333333-2.08333337 2.0833333-2.08333337zm0 12.49999997c-1.15 0-2.0833333-.9333333-2.0833333-2.0833333s.9333333-2.0833333 2.0833333-2.0833333 2.0833333.9333333 2.0833333 2.0833333-.9333333 2.0833333-2.0833333 2.0833333zm4.1666667 0c1.15 0 2.0833333.9333334 2.0833333 2.0833334s-.9333333 2.0833333-2.0833333 2.0833333-2.0833334-.9333333-2.0833334-2.0833333.9333334-2.0833334 2.0833334-2.0833334zm0-8.3333333c1.15 0 2.0833333.9333333 2.0833333 2.0833333s-.9333333 2.0833334-2.0833333 2.0833334-2.0833334-.9333334-2.0833334-2.0833334.9333334-2.0833333 2.0833334-2.0833333z" fill="url(#b)"/></g><g fill-rule="nonzero" transform="translate(180 230)"><path d="m24.6754386 36.6491228c-6.6128832 0-11.9736842-5.360801-11.9736842-11.9736842s5.360801-11.9736842 11.9736842-11.9736842 11.9736842 5.360801 11.9736842 11.9736842c-.0096621 6.6088769-5.3648073 11.9640221-11.9736842 11.9736842zm0-16.9298246c-2.7372007 0-4.9561404 2.2189397-4.9561404 4.9561404s2.2189397 4.9561403 4.9561404 4.9561403 4.9561403-2.2189396 4.9561403-4.9561403c-.0048282-2.7351983-2.220942-4.9513121-4.9561403-4.9561404z" fill="url(#b)"/><path d="m24.6754386 49.3508772c-13.6278684 0-24.6754386-11.0475702-24.6754386-24.6754386s11.0475702-24.6754386 24.6754386-24.6754386 24.6754386 11.0475702 24.6754386 24.6754386c-.0145042 13.6218561-11.0535825 24.6609344-24.6754386 24.6754386zm0-42.33333334c-9.752186 0-17.65789474 7.90570874-17.65789474 17.65789474s7.90570874 17.6578947 17.65789474 17.6578947 17.6578947-7.9057087 17.6578947-17.6578947c-.0096708-9.7481774-7.9097173-17.64822392-17.6578947-17.65789474z" fill="url(#a)"/></g><g transform="translate(0 232)"><path d="m55 2h8v8h-8zm3 11h8v8h-8zm-4 11h8v8h-8zm-54-24h8v8h-8z" fill="url(#a)" transform="translate(0 10)"/><path d="m13 48h37v-36h-11c-.781123.4389526-1.3332652-.1179211-1-1v-11h-25zm27-47 9 9h-9zm0 15h10v10h-10zm0 16h10v10h-10zm-20 6h10v10h-10zm-7-22h10v10h-10z" fill="url(#b)" fill-rule="nonzero"/></g><g stroke="#006c04" transform="translate(1.5 816.5)"><path d="m75 33h-39v-14c0-10.48387097 8.6666667-19 19-19 11.3333333 0 20 8.51612903 20 19zm7 79-18-11c5.5391431-3.2 9.3272128-9.1481481 10-16v-14c.4095185-9.4296296-7.1666211-17-17-17h-4c-9.4361926 0-17.0123322 7.5703704-17 17l1 14c-.4711793 6.8518519 3.8580433 12.2592593 10 16l-19 11c-2.8353887 1.481481-5 4.725926-5 8v7h64v-7c.3971863-3.274074-1.767425-6.518519-5-8z"/><path d="m82 18h19c6.130435 0 11 4.876494 11 11v114c0 6.123506-4.869565 11-11 11h-90c-6.13043478 0-11-4.876494-11-11v-114c0-6.123506 4.86956522-11 11-11h20"/></g><path d="m0 0 4.001 4.001-3.999 3.999" stroke="#fff" transform="translate(1 1)"/><g stroke="#00787d" transform="translate(2 656)"><path d="m154.106 69.211-28.072-68.746 80.777.573 28.644 66.454z"/><path d="m96.817 69.211 28.072-68.746h-96.245l-28.644 67.027z"/><path d="m206.810979 134.519841h-178.1667991m178.1667991-65.8816135v65.8816135m-81.349471-133.48187804v133.48187804m-96.8173281-65.8816135v65.8816135"/></g><g stroke="#4e3de4" transform="translate(1 479)"><path d="m131.728 95.613 61.78 22.064-96.103 34.323-96.594-34.323 61.781-22.064"/><path d="m139.082 53.935 54.426 19.613-96.103 34.323-96.594-34.323 54.426-19.613"/><path d="m97.405 69.135-96.594-34.322 96.594-34.813 96.103 34.813z"/></g><path d="m30 150h-16.4661032c-7.31826803 0-13.5338968-6.89963-13.5338968-14.175213v-16.824787m110.987654.359756v16.920732c0 7.317073 4.567902 13.719512 10.506173 13.719512 5.938272 0 10.506173-6.402439 10.506173-13.719512v-122.5609758-13.7195122h-13.703704-83.5925923-13.7037037v13.7195122 105.6402438m90-.359756h-111m123 31h-93m85-123h-75m75 32h-75m75 32h-75" stroke="#78242d" transform="translate(1 314)"/></g></svg>