<svg height="1000" viewBox="0 0 1000 1000" width="1000" xmlns="http://www.w3.org/2000/svg" xmlns:xlink="http://www.w3.org/1999/xlink"><linearGradient id="a" x1="100%" x2="0%" y1="100%" y2="0%"><stop offset="0" stop-color="#74b6fe"/><stop offset="1" stop-color="#59f2ff"/></linearGradient><linearGradient id="b" x1="14.155%" y1="14.348%" y2="95.687%"><stop offset="0" stop-color="#636efe"/><stop offset="1" stop-color="#ba59ff"/></linearGradient><linearGradient id="c" x1="13.142%" x2="89.928%" y1="0%" y2="100%"><stop offset="0" stop-color="#70fbd7"/><stop offset="1" stop-color="#13d08c"/></linearGradient><linearGradient id="d" x1="100%" x2="0%" y1="100%" y2="0%"><stop offset="0" stop-color="#7481fe"/><stop offset="1" stop-color="#2dc8fd"/></linearGradient><g fill="none" fill-rule="evenodd"><g transform="translate(90)"><path d="m15 15v25h25v-25zm-6 0h-9v-6h9v-9h6v9h31v31h9v6h-9v9h-6v-9h-31z" fill="url(#a)" fill-rule="nonzero"/><rect fill="url(#b)" height="13" rx="1" width="13" x="21" y="21"/></g><g fill-rule="nonzero" transform="translate(180 14)"><path d="m.66939623 26.0843481c4.84003773-4.3979056 9.51616977-8.6456792 14.26943397-12.9623207-4.7587736-4.32215096-9.44041511-8.57405662-14.29422643-12.9843585.41458491-.02892453.61843397-.05233963.82228302-.05233963 3.44339623-.00413207 6.88954717-.01515094 10.33294341.01515095.3581132.00275471.7754528.13635849 1.0619434.39530188 4.5494151 4.09350944 9.0823019 8.22007547 13.6179434 12.3383774.0647358.0592264.1212075.1404905.2630755.3099056-.852585.7850944-1.6817548 1.5591698-2.5178114 2.3180944-3.7477924 3.4062075-7.4969622 6.8124151-11.2585283 10.1979622-.2740943.2479246-.637717.4614151-.9627736.4655472-3.60730184.0316792-7.2187358.0206604-10.82879241.019283-.09779245-.0013773-.19696226-.0247924-.50549056-.0606038zm30.91894337-.0013773c4.8400378-4.3965283 9.5147925-8.6429245 14.2680566-12.9609434-4.7560188-4.31664152-9.4349056-8.56854718-14.2763207-12.96645284.4008113-.03581132.603283-.07024529.807132-.07024529 3.3896793-.00413207 6.7766038-.00964151 10.1662831.00964151.3126603.00137736.6859245.05922642.9283396.27684906 4.6596038 4.19818868 9.3026792 8.42254717 14.0215094 12.71026416-.2203773.2272641-.3897924.4256038-.5757358.5936415-4.3979057 3.9984717-8.794434 8.0010755-13.2033585 11.9802641-.2740944.2479246-.6404717.4655472-.9627736.4696793-3.5535849.0316792-7.1071698.0206604-10.6607547.019283-.1019245-.0027547-.1983396-.0261698-.5123774-.0619811zm-15.2101698-.1501321c4.6761321-4.2491509 9.3536415-8.4983019 14.0986415-12.8121887-4.7560188-4.32077356-9.4349056-8.57130186-14.1124151-12.82183016.0165283-.07162264.0316793-.14324528.0482076-.21624528h.6129245c3.3896792 0 6.7793585-.00964151 10.166283.0165283.3333208.00137736.7258679.10743396.9930755.34709434 4.5921132 4.13620754 9.1676981 8.29996226 13.7460377 12.4609623.0454529.038566.073.1074339.1639057.2506792-.4118302.3815283-.8209057.768566-1.2341132 1.1432076-4.1747736 3.7946226-8.3481698 7.592-12.5284528 11.3714717-.2561887.2300188-.5895095.4503962-.8856416.4531509-3.6637735.0289245-7.3275471.0206604-10.9913207.0206604-.0234151-.073-.0509623-.1432453-.0771321-.2134906z" fill="url(#a)"/><path d="m47.177283.08257456c2.6638113 0 5.3372642.1790566 7.9900566-.05233963 2.3883396-.20798113 4.2987359.65975472 6.1926038 2.51918868 3.5163962 3.45028302 7.2035849 6.6099434 10.8177736 9.89356599.2258868.2010944.438.4200944.7203585.6969434-1.6115095 1.4668868-3.1803208 2.8910755-4.7477547 4.3138868-3.0315661 2.7519623-6.0576227 5.5108114-9.1002076 8.2407359-.2740943.2451698-.6459811.4297358-.9710377.4311132-3.5274151.0289245-7.0534529.019283-10.580868.0179057-.1019245 0-.2066037-.0247925-.5275283-.0647359 4.8207548-4.3813774 9.4913774-8.6250189 14.2611699-12.9568113-4.7532642-4.31801888-9.4349057-8.56992454-14.1124151-12.8218302.0179056-.07162264.0358113-.14462264.057849-.21762264z" fill="url(#c)"/></g><path d="m26 33h3v4c-.3759924.4778251-.78172.8017802-1 1-1.5289435 1.4918038-2.36 3.0995024-2 5-.36 1.9004976.4710565 3.5081962 2 5 .21828.1982198.6240076.5221749 1 1v7h-14c-3.9904446 0-7-2.9096795-7-6v-15c0-1.0224623.75216204-1.75 2-2h6c1.036337.25 1.6180588-.0977541 2-1-.0745415.3075739-.0037346.1877188 0 0 .3171975-.2779192.5639391-.5762489 1-1 .6069352-.5850993 1.4648222-1 2-1 1.4151778 0 2.2730648.4149007 3 1 .3160609.4237511.5628025.7220808 1 1-.1162654.1877188-.0454585.3075739 0 0 .2619412.9022459.843663 1.25 1 1zm30-3h-8c-.902795-.3333333-1.47592.0233375-2 1 .2212232-.3667425.1514626-.2438142 0 0-.1647266.2337633-.4078218.5397425-1 1-.4354041.5744608-1.280613 1-2 1-1.2021457 0-2.0473545-.4255392-3-1-.0749368-.4602575-.318032-.7662367-1-1 .3657788-.2438142.2960182-.3667425 0 0-.0068386-.9766625-.5799636-1.3333333-1-1h-6v-4c0-.2979533.354211-.8750583 1-1-.0400753-.1800183.0820052-.2502633 0 0 .5562891-.5686483.8601581-.8134317 1-1 .8877404-.84815 1.3103448-1.6992283 1-3 .3103448-.634105-.1122596-1.4851833-1-2-.1398419-.5199017-.4437109-.764685-1-1 .0820052-.08307-.0400753-.153315 0 0-.645789-.458275-1-1.03538-1-2v-6c0-1.2538075.7410463-2 2-2h15c4.0409498 0 7 2.9799992 7 7zm-24 26v-8c.2727273-.836554-.0774586-1.4054146-1-2 .3237108.2939819.2030175.2247404 0 0-.2658767-.0890962-.5662926-.3303826-1-1-.5821979-.3503193-1-1.1892394-1-2 0-1.0964749.4178021-1.935395 1-3 .4337074.0446684.7341233-.1966181 1 0 .2030175-.5104547.3237108-.5796962 0-1 .9225414.1197004 1.2727273-.4491603 1-1v-5h5c.3482994.3676796.6745199.764437 1 1 1.3763618 1.4730315 2.9953031 2.2857143 5 2 1.8228787.2857143 3.44182-.5269685 5-2 .1436619-.235563.4698825-.6323204 1-1h7v16c0 4.0603577-2.9254451 7-7 7z" fill="url(#a)"/><path d="m26 8v-6c-.3142857-1.24899335-1.0562143-2-2-2h-17c-4.03239023 0-7 3.00226445-7 7v17c0 1.2489934.74192854 2 2 2h6c.9133936 0 1.48720086-.3589719 2-1-.20958177.0271731-.13973817-.0965483 0 0 .1768275-.577207.4202121-.8851602 1-1 .4490177-.9265541 1.2952327-1.3548387 2-1 1.219053-.3548387 2.065268.0734459 3 1 .0940737.1148398.3374582.422793 1 1-.3459761-.0965483-.2761325.0271731 0 0 .0270849.6410281.6008921 1 1 1h6c.9437857 0 1.6857143-.7510066 2-2v-6c-.3142857-.1837466.040347-.7645748 1-1-.3532183-.0715023-.2309924-.1422005 0 0 .2438561-.4626396.5480868-.7090022 1-1 .5768925-.7503961 1-1.6069653 1-3 0-.554325-.4231075-1.4108942-1-2-.4519132-.4522881-.7561439-.6986507-1-1-.2309924-.01908981-.3532183-.089788 0 0-.959653-.39671548-1.3142857-.97754374-1-2z" fill="url(#d)"/></g></svg>