<svg xmlns="http://www.w3.org/2000/svg" viewBox="0 0 695.69 487.45"><defs><style>.cls-1{fill:red;}</style></defs><title>Asset 1</title><g id="Layer_2" data-name="Layer 2"><g id="Layer_1-2" data-name="Layer 1"><path class="cls-1" d="M660.87,154.23a13.72,13.72,0,1,1-13.72-13.72A13.71,13.71,0,0,1,660.87,154.23Z"/><polygon points="550 108.21 550 110.73 550 117.61 686.29 117.61 686.29 478.04 550 478.04 550 487.45 695.69 487.44 695.69 108.21 550 108.21"/><polygon points="145.69 108.21 145.69 110.73 145.69 117.61 9.4 117.61 9.4 478.04 145.69 478.04 145.69 487.45 0 487.44 0 108.21 145.69 108.21"/><path d="M486.64,215.77l2.17-1.28a164.65,164.65,0,0,0-59.74-58.85l-.06,0-.5-.34-.46-.31-.32-.05h0A163.79,163.79,0,0,0,353,134.18q9.83-8.46,19.51-17.05l11.67-10.41,11.64-10.45,23.1-21.06,22.91-21.27,3.35-3.1L442,47.3c-3.47-3.8-6.91-7.62-10.43-11.38L421,24.6,410.54,13.28C407,9.52,403.56,5.71,400,2L398.36.24h-2.43L345.74,0,295.55.23h-2.43L291.46,2c-3.55,3.72-7,7.52-10.53,11.29L270.44,24.59c-7,7.56-14,15.06-20.92,22.7l-3.22,3.57,3.35,3.1,22.91,21.26,23.11,21.06,11.63,10.45L319,117.14q9.81,8.65,19.72,17.22c-86,4.77-154.57,76.25-154.58,163.47,0,90.28,73.45,163.72,163.74,163.73s163.72-73.45,163.73-163.73a163.52,163.52,0,0,0-22.77-83.34Zm4,143.3,0-1h0c0-.75,0-1.52,0-2.32v0h0a132.87,132.87,0,0,0-10.34-51.8h0c.07-1.71.13-3.54.14-5.38A132.62,132.62,0,0,0,365.39,167.07h0a126.45,126.45,0,0,1,38.2-5.86A137.31,137.31,0,0,1,424.94,163a155.9,155.9,0,0,1,32.75,25,155.47,155.47,0,0,1,32.94,171.08Zm-10.36,20a156.18,156.18,0,0,1-22.59,28.62A155.5,155.5,0,0,1,286.6,440.62l1,0h0c.75,0,1.52.05,2.31.05a133,133,0,0,0,50.46-9.79h0c2.68.15,5.13.22,7.47.22A132.65,132.65,0,0,0,478.15,323.34h0a127.12,127.12,0,0,1,4.16,32.38,137.2,137.2,0,0,1-2,23.33ZM205.11,236.47h0c-.09,2.14-.13,3.93-.13,5.61v0a133,133,0,0,0,10.39,51.94h0l0,.83c0,1.21-.08,2.39-.08,3.62A132.66,132.66,0,0,0,321.17,428.43h0A127.08,127.08,0,0,1,290,432.29h0a137.28,137.28,0,0,1-23.33-2A156.15,156.15,0,0,1,238,407.67a155.46,155.46,0,0,1-32.9-171.2ZM215.54,218h0c.27-.41,3.7-5.74,8.17-12s10-13.66,14.3-17.94a155.46,155.46,0,0,1,165.62-35.17h-.09a132.1,132.1,0,0,0-57.94,13.11h0A132.89,132.89,0,0,0,217.5,274.31a127.21,127.21,0,0,1-4.12-32.23A138.23,138.23,0,0,1,215.54,218ZM347.88,422.73h0a124.24,124.24,0,1,1,87.84-36.39A123.46,123.46,0,0,1,347.88,422.73Zm132.39-43.68h0l2.48.43ZM321.36,114.69l-10.74-11.37L299.85,92l-21.7-22.51L259.6,50.58c6.19-6.21,12.31-12.49,18.45-18.73l10.81-11c3-3.09,6.06-6.17,9.07-9.29l47.81.22,47.82-.22c3,3.11,6.05,6.18,9.07,9.28l10.81,11,10.8,11c2.53,2.6,5.09,5.16,7.65,7.73L413.34,69.48,391.64,92l-10.77,11.34L370.13,114.7q-9,9.67-18,19.46c-1.44,0-2.87-.07-4.3-.07-2.81,0-5.61.08-8.38.22Q330.49,124.43,321.36,114.69Z"/></g></g></svg>