<svg id="b73ea939-007c-4b34-898a-5af9a36b1940" data-name="Layer 1" xmlns="http://www.w3.org/2000/svg" viewBox="0 0 695.69 487.45"><title>final2</title><g id="b9b29ba0-3291-4da3-af90-76f1437099e3" data-name="Layer 1-2"><path d="M660.87,154.23a13.72,13.72,0,1,1-13.72-13.72h0a13.71,13.71,0,0,1,13.72,13.7Z" fill="red"/><polygon points="550 108.21 550 110.73 550 117.61 686.29 117.61 686.29 478.04 550 478.04 550 487.45 695.69 487.44 695.69 108.21 550 108.21"/><polygon points="145.69 108.21 145.69 110.73 145.69 117.61 9.4 117.61 9.4 478.04 145.69 478.04 145.69 487.45 0 487.44 0 108.21 145.69 108.21"/><path d="M486.64,215.77l2.17-1.28a164.65,164.65,0,0,0-59.74-58.85H429l-.5-.34-.46-.31-.32-.05h0A163.88,163.88,0,0,0,353,134.18q9.83-8.46,19.51-17.05l11.67-10.41,11.64-10.45,23.1-21.06,22.91-21.27,3.35-3.1L442,47.3c-3.47-3.8-6.91-7.62-10.43-11.38L421,24.6,410.54,13.28C407,9.52,403.56,5.71,400,2L398.36.24h-2.43L345.74,0,295.55.23h-2.43L291.46,2c-3.55,3.72-7,7.52-10.53,11.29l-10.49,11.3c-7,7.56-14,15.06-20.92,22.7l-3.22,3.57,3.35,3.1,22.91,21.26,23.11,21.06,11.63,10.45L319,117.14q9.81,8.65,19.72,17.22c-86,4.77-154.57,76.25-154.58,163.47,0,90.28,73.45,163.72,163.74,163.73S511.6,388.11,511.61,297.83a163.55,163.55,0,0,0-22.77-83.34Zm4,143.3v-1h0v-2.32h0A133,133,0,0,0,480.3,304h0c.07-1.71.13-3.54.14-5.38a132.62,132.62,0,0,0-115-131.5h0a126.29,126.29,0,0,1,38.2-5.86A137.6,137.6,0,0,1,424.94,163a155.29,155.29,0,0,1,65.69,196.08Zm-10.36,20A155.44,155.44,0,0,1,286.6,440.62h1c.75,0,1.52.05,2.31.05a133,133,0,0,0,50.46-9.79h0c2.68.15,5.13.22,7.47.22A132.65,132.65,0,0,0,478.15,323.34h0a127.26,127.26,0,0,1,4.16,32.38,137.2,137.2,0,0,1-2,23.33ZM205.11,236.47h0c-.09,2.14-.13,3.93-.13,5.61h0A133.1,133.1,0,0,0,215.37,294h0v.83c0,1.21-.08,2.39-.08,3.62a132.66,132.66,0,0,0,105.88,130h0A127,127,0,0,1,290,432.29h0a137.2,137.2,0,0,1-23.33-2A155.46,155.46,0,0,1,205.1,236.47ZM215.54,218h0c.27-.41,3.7-5.74,8.17-12s10-13.66,14.3-17.94a155.48,155.48,0,0,1,165.62-35.17h-.09A132.07,132.07,0,0,0,345.6,166h0A132.89,132.89,0,0,0,217.5,274.31a127,127,0,0,1-4.12-32.23A138.93,138.93,0,0,1,215.54,218ZM347.88,422.73h0a124.24,124.24,0,1,1,87.84-36.39A124.23,124.23,0,0,1,347.88,422.73Zm132.39-43.68h0l2.48.43ZM321.36,114.69l-10.74-11.37L299.85,92l-21.7-22.51L259.6,50.58c6.19-6.21,12.31-12.49,18.45-18.73l10.81-11c3-3.09,6.06-6.17,9.07-9.29l47.81.22,47.82-.22c3,3.11,6.05,6.18,9.07,9.28l10.81,11,10.8,11c2.53,2.6,5.09,5.16,7.65,7.73L413.34,69.48,391.64,92l-10.77,11.34L370.13,114.7q-9,9.67-18,19.46c-1.44,0-2.87-.07-4.3-.07-2.81,0-5.61.08-8.38.22Q330.5,124.43,321.36,114.69Z"/></g></svg>