<svg id="a79ac51f-d1b7-4a0c-973c-f58f49e7501c" data-name="Layer 1" xmlns="http://www.w3.org/2000/svg" viewBox="0 0 695.69 487.44"><title>final3</title><path d="M660.85,154.23a13.72,13.72,0,1,1-13.72-13.72h0a13.71,13.71,0,0,1,13.71,13.71Z" transform="translate(0 -0.01)" fill="red"/><polygon points="550 108.2 550 110.72 550 117.6 686.29 117.6 686.29 478.03 550 478.03 550 487.44 695.69 487.43 695.69 108.2 550 108.2" fill="#fff"/><polygon points="145.69 108.2 145.69 110.72 145.69 117.6 9.4 117.6 9.4 478.03 145.69 478.03 145.69 487.44 0 487.43 0 108.2 145.69 108.2" fill="#fff"/><path d="M486.65,215.77l2.16-1.28a164.47,164.47,0,0,0-59.73-58.85l-.07,0-.5-.34-.45-.31h-.33A163.65,163.65,0,0,0,353,134.17q9.83-8.46,19.52-17l11.66-10.42,11.68-10.48L419,75.21l22.9-21.27,3.34-3.1L442,47.3c-3.47-3.8-6.91-7.62-10.42-11.38L421.05,24.6,410.56,13.28c-3.51-3.76-7-7.57-10.52-11.3L398.39.24H396L345.76,0,295.57.24h-2.43L291.48,2c-3.54,3.72-7,7.52-10.52,11.29L270.45,24.59c-7,7.56-14,15.06-20.93,22.7l-3.21,3.57,3.34,3.1,22.91,21.26,23.11,21.06,11.64,10.45L319,117.17q9.82,8.65,19.73,17.22c-86,4.78-154.58,76.22-154.58,163.44,0,90.29,73.44,163.72,163.73,163.73s163.73-73.44,163.73-163.73a163.52,163.52,0,0,0-22.73-83.34Zm4,143.31V358h0v-2.32h0a133,133,0,0,0-10.34-51.8h0c.07-1.7.14-3.54.14-5.38a132.62,132.62,0,0,0-115-131.46h0a126,126,0,0,1,38.2-5.85A137.54,137.54,0,0,1,425,163a155.49,155.49,0,0,1,65.69,196.13Zm-10.36,20A155.53,155.53,0,0,1,286.61,440.7h3.32a133,133,0,0,0,50.46-9.79h0c2.68.15,5.12.22,7.47.22A132.64,132.64,0,0,0,478.12,323.36h0a127.7,127.7,0,0,1,4.17,32.37,138.23,138.23,0,0,1-2,23.33ZM205.11,236.47h0c-.08,2.14-.12,3.93-.12,5.61h0A132.87,132.87,0,0,0,215.38,294h0v.83c0,1.22-.08,2.39-.09,3.62A132.68,132.68,0,0,0,321.21,428.39h0A127.37,127.37,0,0,1,290,432.25h0a137.2,137.2,0,0,1-23.33-2,155.42,155.42,0,0,1-61.52-193.78ZM215.54,218h0c.27-.41,3.7-5.73,8.17-12s10-13.65,14.3-17.94a155.49,155.49,0,0,1,165.63-35.17h-.1A132.21,132.21,0,0,0,345.6,166h0c-62.85,1.08-116.7,46.63-128.09,108.38a127,127,0,0,1-4.13-32.23A137.69,137.69,0,0,1,215.54,218ZM347.85,422.73h0a124.23,124.23,0,1,1,87.84-36.39A124.24,124.24,0,0,1,347.85,422.73Zm132.39-43.68h0l2.48.43ZM321.36,114.69l-10.74-11.37L299.85,92l-21.7-22.51L259.61,50.58c6.19-6.21,12.3-12.49,18.45-18.73l10.81-11c3-3.09,6.06-6.17,9.06-9.29l47.81.22,47.82-.22c3,3.11,6.06,6.19,9.08,9.28l10.8,11,10.81,11c2.52,2.6,5.08,5.16,7.65,7.73L413.35,69.46,391.64,92l-10.79,11.36L370.12,114.7q-9,9.67-18,19.46c-1.43,0-2.87-.06-4.3-.06q-4.21,0-8.38.21Q330.49,124.43,321.36,114.69Z" transform="translate(0 -0.01)" fill="#fff"/></svg>