<?xml version="1.0" encoding="utf-8"?>
<!-- Generator: Adobe Illustrator 17.0.0, SVG Export Plug-In . SVG Version: 6.00 Build 0)  -->
<!DOCTYPE svg PUBLIC "-//W3C//DTD SVG 1.1//EN" "http://www.w3.org/Graphics/SVG/1.1/DTD/svg11.dtd">
<svg version="1.1" id="Layer_1" xmlns="http://www.w3.org/2000/svg" xmlns:xlink="http://www.w3.org/1999/xlink" x="0px" y="0px"
	 width="2000px" height="2000px" viewBox="0 0 2000 2000" enable-background="new 0 0 2000 2000" xml:space="preserve">
<g>
</g>
<g display="none">
	<text transform="matrix(1 0 0 1 3092.0635 -148.4237)" display="inline" font-family="'Molinha'" font-size="123">TWO</text>
	<text transform="matrix(1 0 0 1 2340.0635 259.5763)" display="inline" font-family="'LondonFill-Bold'" font-size="123">TWO</text>
	<path display="inline" d="M2886.762-709.726c2.624,0,4.878,0.431,6.765,1.292c1.885,0.861,2.829,2.112,2.829,3.751
		c0,2.297-1.128,4.367-3.382,6.211c-2.256,1.845-5.597,2.768-10.025,2.768c-2.542,0-4.941-0.142-7.195-0.431
		c-2.256-0.286-4.489-0.634-6.704-1.045c-0.329,0.657-0.615,1.272-0.861,1.845c-0.246,0.575-0.534,1.211-0.861,1.906
		c-0.329,0.698-0.698,1.519-1.107,2.46c-0.411,0.944-0.903,2.112-1.476,3.506c-0.492,1.066-1.046,2.379-1.661,3.936
		c-0.615,1.559-1.211,3.117-1.784,4.674c-0.575,1.559-1.107,2.952-1.599,4.182c-0.492,1.23-0.78,2.05-0.861,2.46
		c-0.82,2.542-1.682,5.002-2.583,7.38c-0.738,2.051-1.497,4.203-2.275,6.458c-0.78,2.256-1.415,4.163-1.906,5.72
		c-1.23,3.855-2.399,7.38-3.506,10.578c-1.107,3.198-2.112,5.864-3.013,7.995c-0.903,2.297-1.968,4.121-3.198,5.474
		s-2.564,2.398-3.998,3.136c-1.436,0.738-2.891,1.211-4.366,1.415c-1.476,0.206-2.872,0.308-4.182,0.308
		c-2.706,0-4.797-0.88-6.273-2.645c-1.476-1.762-2.297-3.998-2.46-6.704h1.599c0,0.575,0.062,1.313,0.185,2.214
		c0.123,0.903,0.431,1.764,0.923,2.583c0.492,0.82,1.208,1.518,2.152,2.091c0.942,0.575,2.233,0.861,3.875,0.861
		c1.393,0,2.521-0.286,3.382-0.861c0.861-0.573,1.557-1.332,2.091-2.275c0.532-0.942,1.003-1.947,1.415-3.014
		c0.409-1.064,0.861-2.091,1.353-3.075c0.573-1.476,1.188-3.198,1.845-5.166c0.655-1.968,1.394-4.099,2.214-6.396
		c1.311-3.771,2.747-7.912,4.305-12.423c1.557-4.509,3.279-9.019,5.166-13.53c1.064-2.706,2.008-5.043,2.829-7.011
		c0.818-1.968,1.68-3.813,2.583-5.535c0.901-1.886,1.68-3.484,2.337-4.797c0.655-1.311,1.249-2.46,1.783-3.444
		c0.533-0.984,1.086-1.864,1.661-2.645c0.573-0.778,1.23-1.661,1.968-2.645c-0.657-0.163-2.072-0.573-4.244-1.23
		c-2.174-0.655-4.655-1.332-7.441-2.029c-2.789-0.696-5.618-1.332-8.487-1.907c-2.871-0.573-5.331-0.861-7.38-0.861
		c-2.871,0-5.331,0.615-7.38,1.845c-2.051,1.23-3.834,2.829-5.351,4.797c-1.518,1.968-2.748,4.182-3.69,6.642
		c-0.944,2.46-1.682,4.941-2.214,7.442c-0.535,2.502-0.903,4.879-1.107,7.134c-0.206,2.256-0.308,4.121-0.308,5.597h-1.599
		c0-1.722,0.102-3.875,0.308-6.458c0.204-2.583,0.615-5.289,1.23-8.118c0.615-2.829,1.476-5.637,2.583-8.425
		c1.107-2.787,2.562-5.309,4.366-7.564c1.803-2.254,4.017-4.079,6.642-5.474c2.624-1.394,5.739-2.091,9.348-2.091
		c1.968,0,4.447,0.289,7.441,0.861c2.992,0.575,5.923,1.23,8.794,1.968c2.87,0.738,5.474,1.436,7.811,2.091
		c2.337,0.657,3.875,1.066,4.613,1.23c1.803-1.557,4.201-3.116,7.195-4.674C2878.869-708.945,2882.497-709.726,2886.762-709.726z
		 M2885.532-700.5c2.377,0,4.509-0.369,6.396-1.107c1.886-0.738,2.829-1.885,2.829-3.444c0-0.655-0.267-1.188-0.799-1.599
		c-0.534-0.41-1.211-0.717-2.03-0.923c-0.82-0.204-1.682-0.348-2.583-0.43c-0.903-0.081-1.764-0.123-2.583-0.123
		c-2.952,0-5.679,0.575-8.179,1.722c-2.502,1.149-4.572,2.666-6.211,4.551c2.131,0.411,4.263,0.738,6.396,0.984
		C2880.899-700.624,2883.153-700.5,2885.532-700.5z"/>
	<path display="inline" d="M2957.648-671.658c-0.685,1.54-1.38,3.078-2.088,4.613c-0.246,0.412-0.943,1.722-2.092,3.936
		c-1.148,2.214-2.625,4.839-4.428,7.872c-1.805,3.035-3.874,6.273-6.211,9.717c-2.338,3.444-4.757,6.602-7.257,9.471
		c-2.502,2.872-5.043,5.27-7.626,7.196c-2.583,1.927-5.024,2.89-7.318,2.89c-1.313,0-2.358-0.265-3.137-0.799
		c-0.78-0.532-1.353-1.23-1.722-2.091c-0.369-0.861-0.615-1.845-0.738-2.952s-0.185-2.193-0.185-3.26
		c0-1.23,0.204-2.808,0.615-4.735c0.409-1.926,0.941-4.099,1.599-6.519c0.655-2.417,1.414-4.939,2.275-7.564
		c0.861-2.624,1.741-5.247,2.645-7.872c2.131-6.067,4.551-12.546,7.257-19.434l-5.904-3.936c-0.083,0.246-0.308,0.8-0.677,1.661
		c-0.369,0.861-0.82,1.928-1.353,3.198c-0.534,1.272-1.107,2.645-1.722,4.12c-0.615,1.476-1.211,2.912-1.784,4.305
		c-1.396,3.035-2.871,6.211-4.428,9.533c-1.559,3.321-3.28,6.663-5.166,10.024c-4.264,7.872-8.139,13.818-11.623,17.835
		c-3.486,4.019-6.786,6.027-9.902,6.027c-2.296,0-4.101-0.799-5.412-2.398c-1.313-1.599-1.968-3.832-1.968-6.704
		c0-2.787,0.471-5.904,1.415-9.348c0.942-3.444,2.131-7.052,3.567-10.824c1.434-3.771,2.971-7.583,4.613-11.439
		c1.639-3.854,3.177-7.605,4.612-11.254c1.434-3.648,2.624-7.092,3.567-10.332c0.942-3.238,1.415-6.088,1.415-8.549
		c0-1.311-0.206-2.602-0.615-3.875c-0.412-1.27-1.088-2.398-2.03-3.382c-0.943-0.984-2.195-1.762-3.751-2.337
		c-1.559-0.573-3.444-0.861-5.658-0.861c-2.542,0,12.109,0.826,7.673,7.234c-1.5,2.167-3.245,6.686-4.229,10.17
		c-0.984,3.486-2.214,7.073-3.69,10.763s-3.056,7.441-4.736,11.254c-1.682,3.813-3.259,7.564-4.735,11.254s-2.706,7.238-3.69,10.64
		c-0.984,3.403-1.476,6.54-1.476,9.409c0,1.23,0.185,2.564,0.554,3.998c0.369,1.436,1.107,2.768,2.214,3.998
		s2.645,2.235,4.612,3.014c1.968,0.78,4.551,1.168,7.749,1.168c1.803,0,3.567-0.511,5.289-1.538c1.722-1.024,3.361-2.337,4.92-3.936
		c1.557-1.599,3.054-3.382,4.49-5.351c1.434-1.968,2.768-3.955,3.998-5.965c1.23-2.008,2.337-3.936,3.321-5.781
		c0.984-1.845,1.803-3.423,2.46-4.736c-1.149,3.609-2.133,7.011-2.952,10.209c-0.82,3.198-1.23,5.864-1.23,7.995
		c0,2.297,0.369,4.182,1.107,5.658c0.738,1.476,1.722,2.645,2.952,3.505s2.624,1.476,4.182,1.845
		c1.557,0.369,3.156,0.554,4.797,0.554c2.541,0,5.104-0.757,7.688-2.275c2.583-1.517,5.083-3.505,7.503-5.966
		c2.417-2.46,4.755-5.227,7.011-8.302c2.254-3.075,4.324-6.169,6.211-9.287c1.886-3.115,3.567-6.088,5.043-8.917
		c1.477-2.829,2.664-5.228,3.567-7.195c0-0.081,0.143-0.45,0.431-1.107c0.287-0.656,0.615-1.394,0.984-2.214
		c0.292-0.647,0.6-1.329,0.917-2.03H2957.648z"/>
	<path display="inline" d="M3002.258-707.389c2.953,0,5.555,0.554,7.811,1.661c2.255,1.107,4.162,2.604,5.721,4.489
		c1.557,1.888,2.746,4.081,3.566,6.581l-0.676,3.137c-0.289-2.131-1.006-4.263-2.153-6.396c-1.149-2.131-2.829-3.977-5.043-5.535
		c-2.214-1.557-5.289-2.337-9.226-2.337c-5.166,0-10.189,1.743-15.066,5.228c-4.88,3.486-9.369,8.508-13.469,15.067
		c-3.773,6.069-6.703,12.65-8.795,19.742c-2.091,7.094-3.137,13.96-3.137,20.603s1.434,11.727,4.306,15.252
		c2.623,3.035,6.026,4.551,10.209,4.551c4.017,0,8.198-1.455,12.546-4.366c4.346-2.91,8.303-6.806,11.869-11.685
		c3.567-4.878,6.498-10.517,8.795-16.913c2.295-6.396,3.443-13.119,3.443-20.172c0-10.578-3.771-15.867-11.315-15.867
		c-3.117,0-5.7,1.149-7.749,3.444c-2.051,2.297-3.075,5.166-3.075,8.61c0,2.952,0.84,5.556,2.521,7.811
		c1.68,2.256,4.078,3.628,7.196,4.12v1.476c-1.643,0-3.158-0.388-4.552-1.168c-1.396-0.778-2.583-1.824-3.567-3.136
		c-0.983-1.311-1.764-2.747-2.336-4.305c-0.575-1.557-0.861-3.156-0.861-4.797c0-1.968,0.326-3.771,0.984-5.412
		c0.654-1.639,1.537-3.075,2.645-4.305c1.106-1.23,2.417-2.193,3.936-2.89c1.516-0.696,3.137-1.046,4.858-1.046
		c8.61,0,12.915,5.823,12.915,17.466c0,7.134-1.23,14.145-3.689,21.033c-1.15,3.117-2.503,6.131-4.06,9.041
		c-1.559,2.912-3.28,5.679-5.166,8.303c-1.888,2.46-3.855,4.716-5.904,6.765c-2.05,2.051-4.182,3.773-6.396,5.166
		c-4.428,2.952-8.775,4.428-13.038,4.428c-6.315,0-11.358-1.353-15.13-4.059c-5.903-4.182-8.855-11.316-8.855-21.402
		c0-6.067,1.271-12.484,3.813-19.25c2.541-6.765,6.027-13.017,10.455-18.757c2.378-3.033,4.899-5.76,7.564-8.18
		c2.664-2.418,5.432-4.49,8.303-6.211C2988.932-705.461,2995.533-707.389,3002.258-707.389z"/>
	<path display="inline" d="M3218.828-680.722c-0.164-0.085-0.286-0.13-0.366-0.132c-0.488-0.175-1.002-0.147-1.541,0.086
		c-0.54,0.233-1.065,0.835-1.581,1.808c-0.175,0.407-0.203,0.754-0.087,1.044c0.116,0.291,0.171,0.558,0.165,0.804
		c0.077,0.167-0.055,0.533-0.396,1.098c-0.342,0.567-0.722,1.009-1.139,1.326c-1.919,1.267-4.454,2.682-7.609,4.246
		c-3.156,1.565-7.038,2.743-11.65,3.533c-3.552,0.981-7.336,1.422-11.352,1.325c-4.018-0.097-8.066-0.563-12.146-1.4
		c-4.083-0.837-8.155-2.021-12.218-3.555c-4.066-1.532-7.878-3.285-11.439-5.259c-5.266-2.751-10.425-5.684-15.475-8.802
		c-5.051-3.115-12.243-7.595-21.575-13.44c-9.333-5.843-16.917-9.43-22.748-10.761c-5.834-1.329-11.723-1.984-17.67-1.964
		c-5.948,0.021-11.815,0.945-17.599,2.774c-5.95,1.825-11.506,4.275-16.665,7.349c-5.161,3.075-9.296,6.154-12.403,9.236
		c-3.11,3.083-5.348,5.757-6.715,8.02c-1.008,1.784-1.793,3.171-2.361,4.168l-0.076,3.147c0.946-1.441,1.8-2.893,2.55-4.359
		c1.075-2.106,2.397-4.206,3.967-6.302c1.568-2.094,4.17-4.575,7.808-7.44c3.636-2.865,7.573-5.373,11.808-7.528
		c4.236-2.153,8.336-3.838,12.303-5.055c5.705-1.912,11.49-2.86,17.355-2.841c5.863,0.018,11.671,0.693,17.422,2.02
		c5.751,1.329,13.231,4.914,22.44,10.754c9.209,5.842,16.362,10.3,21.455,13.375c5.093,3.076,10.316,5.909,15.666,8.499
		c3.644,1.976,7.496,3.749,11.561,5.323c4.063,1.575,8.195,2.782,12.401,3.622c4.204,0.839,8.335,1.308,12.392,1.406
		c4.058,0.098,7.902-0.342,11.536-1.321c6.923-1.39,13.345-4.147,19.27-8.27c0.331-0.156,0.852-0.472,1.562-0.946
		c0.707-0.475,1.649-1.272,2.826-2.393c0.419-0.399,0.74-0.945,0.962-1.637C3219.687-679.859,3219.475-680.377,3218.828-680.722z"/>
	<path display="inline" d="M2811.63-672.745c-3.486,2.806-7.226,5.301-11.24,7.464c-4.183,2.256-8.241,4.04-12.178,5.351
		c-5.658,2.051-11.42,3.137-17.281,3.26c-5.863,0.123-11.685-0.41-17.466-1.599c-5.781-1.188-10.805-3.054-15.067-5.597
		c-4.265-2.541-11.521-6.826-21.771-12.854c-10.251-6.027-18.081-10.271-23.493-12.73c-3.689-1.885-7.585-3.567-11.685-5.043
		c-4.102-1.476-8.263-2.583-12.484-3.321c-4.225-0.738-8.364-1.107-12.423-1.107c-4.06,0-7.894,0.534-11.501,1.599
		c-6.888,1.559-13.243,4.47-19.064,8.733c-0.329,0.165-0.842,0.492-1.538,0.984c-0.697,0.492-1.62,1.313-2.768,2.46
		c-0.411,0.411-0.719,0.965-0.922,1.661c-0.206,0.697,0.019,1.21,0.676,1.537c0.164,0.083,0.287,0.123,0.369,0.123
		c0.492,0.166,1.003,0.123,1.538-0.123c0.532-0.246,1.045-0.861,1.537-1.845c0.163-0.41,0.185-0.757,0.062-1.045
		c-0.123-0.287-0.185-0.554-0.185-0.8c-0.083-0.163,0.04-0.532,0.369-1.107c0.326-0.573,0.695-1.024,1.106-1.353
		c1.886-1.311,4.386-2.787,7.504-4.428c3.115-1.64,6.968-2.91,11.562-3.813c3.524-1.065,7.298-1.599,11.316-1.599
		c4.017,0,8.075,0.369,12.177,1.107c4.1,0.738,8.198,1.826,12.3,3.259c4.1,1.436,7.953,3.096,11.563,4.982
		c5.329,2.625,13.078,6.97,23.246,13.038c10.167,6.069,17.467,10.375,21.895,12.915c4.428,2.543,9.573,4.409,15.437,5.597
		c5.861,1.188,11.766,1.701,17.712,1.538c5.944-0.166,11.787-1.23,17.527-3.198c5.904-1.968,11.396-4.551,16.482-7.749
		c2.372-1.423,4.596-2.994,6.689-4.698V-672.745z"/>
	<path display="inline" fill="none" stroke="#000000" stroke-width="1.5" stroke-miterlimit="10" d="M2816.356-671.408
		c0,1.75,1.25,10.75,7.75,10.75c10.583-1.333,8.896-19.229,0.083-19.229c-8,0-9.375,6.25-15.333,10.063"/>
	<path display="inline" fill="none" stroke="#000000" stroke-width="1.5" stroke-miterlimit="10" d="M3000.127-669.624
		c7.188,0,12.582-2.95,16.313-12.325"/>
	<g display="inline">
	</g>
	
		<text transform="matrix(1 0 0 1 2981.0051 40.4619)" display="inline" font-family="'Audrey-Normal'" font-size="14.6915" letter-spacing="3">The Official Wedding</text>
	
		<text transform="matrix(1 0 0 1 2849.9138 84.9268)" display="inline" font-family="'Champagne&Limousines'" font-size="31.0579" letter-spacing="27">Exposure Moment</text>
	<g display="inline">
		<g>
			<polygon points="2725.92,-609.694 2725.918,-609.695 2725.916,-609.696 			"/>
			<polygon points="2833.329,-594.776 2833.327,-594.776 2833.324,-594.775 			"/>
			<polygon points="2943.455,-575.061 2943.454,-575.063 2943.452,-575.063 			"/>
			<polygon points="2725.203,-611.327 2725.203,-611.328 2725.203,-611.329 			"/>
			<polygon points="2860.4,-598.109 2860.399,-598.109 2860.399,-598.108 			"/>
			<polygon points="3002.038,-627.396 3002.04,-627.397 3002.043,-627.398 			"/>
			<path d="M3109.602-609.421c-0.14-0.204-0.332-0.356-0.544-0.469l-0.002-0.001l-0.004-0.002c-0.066-0.034-0.13-0.064-0.202-0.09
				c-0.049-0.017-0.106-0.031-0.171-0.042c-0.171-0.054-0.348-0.086-0.527-0.086c-0.271,0-0.539,0.063-0.794,0.173
				c-0.272,0.118-0.502,0.309-0.708,0.545c-0.207,0.237-0.393,0.523-0.573,0.861l-0.01,0.019l-0.01,0.022
				c-0.088,0.206-0.145,0.42-0.145,0.645c0,0.15,0.027,0.304,0.085,0.447l-0.001-0.002c0.051,0.128,0.067,0.223,0.067,0.288v0.028
				l0,0.079c-0.025,0.064-0.083,0.186-0.175,0.335c-0.188,0.312-0.386,0.537-0.582,0.687c-1.198,0.789-2.798,1.683-4.794,2.672
				c-1.958,0.972-4.395,1.714-7.31,2.213l-0.027,0.005l-0.026,0.007c-2.019,0.558-4.162,0.837-6.433,0.837
				c-0.225,0-0.451-0.003-0.678-0.008c-2.539-0.061-5.099-0.356-7.682-0.886c-2.585-0.53-5.165-1.28-7.741-2.253
				c-2.581-0.973-4.998-2.084-7.254-3.335l-0.005-0.003l-0.007-0.003c-3.361-1.756-6.654-3.628-9.877-5.618
				c-3.234-1.994-7.839-4.863-13.816-8.606c-6.007-3.759-10.9-6.083-14.74-6.963c-3.721-0.847-7.478-1.272-11.27-1.272
				c-0.057,0-0.115,0-0.172,0c-3.865,0.014-7.679,0.615-11.435,1.802c-3.85,1.181-7.449,2.768-10.791,4.76
				c-3.333,1.986-6.017,3.982-8.051,5.998c-2.011,1.995-3.471,3.732-4.385,5.243l-0.005,0.008l-0.003,0.006
				c-0.153,0.271-0.297,0.526-0.434,0.768c-0.276-2.641-0.985-4.746-2.196-6.28c-0.74-0.936-1.668-1.65-2.758-2.118
				c-1.09-0.47-2.336-0.697-3.725-0.697c-1.177,0-2.3,0.241-3.342,0.72c-1.039,0.476-1.943,1.141-2.701,1.984
				c-0.755,0.838-1.355,1.816-1.796,2.922c-0.45,1.122-0.67,2.35-0.67,3.671c0,1.115,0.195,2.207,0.586,3.263
				c0.385,1.048,0.911,2.016,1.573,2.898c0.674,0.899,1.496,1.624,2.458,2.16c0.738,0.414,1.536,0.654,2.37,0.752v0.076h0.552h0.012
				c2.433,0.002,4.691-0.511,6.636-1.884c0.271-0.19,0.531-0.402,0.786-0.624c-0.313,2.943-0.956,5.788-1.941,8.535
				c-1.456,4.053-3.309,7.616-5.559,10.693c-2.252,3.082-4.741,5.529-7.464,7.351c-2.722,1.822-5.292,2.703-7.729,2.703
				c-1.273,0-2.407-0.23-3.419-0.681c-1.01-0.451-1.904-1.123-2.696-2.037c-1.726-2.12-2.629-5.238-2.629-9.414
				c0-4.196,0.661-8.541,1.987-13.04c1.326-4.497,3.182-8.665,5.573-12.509l-0.001,0.001c2.597-4.155,5.428-7.314,8.479-9.494
				c3.051-2.178,6.146-3.244,9.329-3.245c2.451-0.001,4.303,0.489,5.591,1.396c1.358,0.956,2.369,2.072,3.062,3.356
				c0.372,0.691,0.668,1.378,0.892,2.062l0.134,0.411l2.017-0.149l-0.22-0.671c-0.545-1.66-1.34-3.129-2.383-4.394
				c-1.048-1.268-2.336-2.279-3.847-3.02c-1.531-0.752-3.286-1.121-5.246-1.12c-4.414-0.001-8.747,1.269-12.966,3.781l-0.002,0.001
				c-1.872,1.123-3.674,2.472-5.405,4.043c-1.731,1.572-3.368,3.342-4.908,5.307l-0.003,0.003c-2.869,3.719-5.13,7.773-6.776,12.157
				c-0.059,0.156-0.104,0.296-0.151,0.426c-0.067,0.146-0.129,0.286-0.191,0.422c-0.092,0.157-0.236,0.42-0.449,0.82
				c-0.225,0.423-0.521,0.988-0.889,1.698c-0.729,1.405-1.67,3.078-2.82,5.014c-1.149,1.933-2.469,3.998-3.96,6.196
				c-1.486,2.189-3.022,4.194-4.608,6.013c-1.581,1.815-3.181,3.323-4.798,4.529c-1.595,1.19-3.047,1.743-4.357,1.742
				c-0.769,0-1.322-0.157-1.697-0.415l-0.001-0.001c-0.417-0.286-0.708-0.641-0.906-1.1c-0.211-0.493-0.358-1.07-0.432-1.734
				c-0.077-0.69-0.115-1.365-0.115-2.027c-0.001-0.727,0.123-1.707,0.382-2.918c0.26-1.221,0.598-2.604,1.017-4.146
				c0.417-1.539,0.9-3.144,1.449-4.818c0.55-1.678,1.113-3.355,1.691-5.033c1.362-3.878,2.909-8.021,4.64-12.426l0.163-0.414
				l-4.751-3.167l-0.23,0.682c-0.039,0.119-0.184,0.479-0.417,1.023c-0.237,0.553-0.527,1.238-0.868,2.052
				c-0.343,0.815-0.709,1.695-1.103,2.64c-0.393,0.942-0.773,1.859-1.139,2.749c-0.892,1.939-1.835,3.969-2.83,6.092
				c-0.992,2.114-2.089,4.243-3.29,6.385l-0.005,0.008l0-0.001c-2.719,5.021-5.187,8.802-7.376,11.324
				c-1.09,1.257-2.139,2.183-3.13,2.786c-0.993,0.604-1.918,0.884-2.795,0.884c-0.672,0-1.248-0.116-1.746-0.337
				c-0.498-0.221-0.923-0.547-1.293-0.997c-0.735-0.895-1.135-2.184-1.135-3.944c0-1.723,0.292-3.672,0.886-5.841
				c0.598-2.187,1.354-4.481,2.268-6.882c0.916-2.408,1.898-4.844,2.946-7.307c1.052-2.473,2.039-4.88,2.96-7.223
				c0.924-2.35,1.691-4.571,2.301-6.665c0.613-2.11,0.927-3.983,0.928-5.63c0-0.897-0.141-1.783-0.42-2.651l0-0.001
				c-0.281-0.868-0.747-1.647-1.378-2.321c-0.368-0.59-0.948-1.055-1.702-1.398c-1.085-0.494-2.332-0.761-3.716-0.841l-0.003,0
				l-0.009,0c-0.259-0.015-0.532-0.035-0.835-0.035h-0.007l-0.115,0.003l-0.07-0.002l-0.009,0h-0.01
				c-0.062,0-0.11,0.001-0.157,0.003l-0.078,0.007c-0.003,0.001-0.008,0.001-0.008,0.001c-2.605,0.054-4.872,0.559-6.774,1.548
				c-1.83,0.953-3.324,1.91-4.495,2.883c-0.519-0.127-1.411-0.366-2.664-0.719c-1.502-0.421-3.173-0.869-5.014-1.343
				c-1.851-0.475-3.739-0.898-5.666-1.268c-1.94-0.371-3.557-0.561-4.87-0.562c-2.382,0-4.472,0.461-6.246,1.404
				c-1.744,0.926-3.225,2.146-4.427,3.649c-1.191,1.488-2.15,3.153-2.878,4.986c-0.72,1.813-1.28,3.64-1.681,5.483
				c-0.371,1.705-0.622,3.341-0.763,4.914c-0.456,0.424-0.88,0.866-1.29,1.307c-0.961,1.039-2.392,2.353-3.245,3.029
				c-1.548,1.229-3.303,2.233-5.115,3.209c-2.655,1.432-5.225,2.561-7.712,3.389l-0.006,0.002l-0.008,0.003
				c-3.57,1.294-7.198,1.977-10.892,2.055c-0.348,0.007-0.696,0.011-1.044,0.011c-3.361,0-6.7-0.341-10.02-1.024
				c-3.653-0.751-6.811-1.926-9.479-3.518c-2.734-1.629-7.382-4.374-13.948-8.234c-6.571-3.863-11.593-6.586-15.092-8.177
				c-2.38-1.215-4.891-2.299-7.532-3.25c-2.656-0.956-5.353-1.673-8.088-2.151c-2.735-0.478-5.419-0.717-8.052-0.717
				c-2.645,0-5.151,0.348-7.512,1.044c-4.462,1.013-8.587,2.902-12.357,5.657c-0.256,0.134-0.577,0.342-1.011,0.648
				c-0.493,0.349-1.097,0.889-1.844,1.636c-0.342,0.342-0.58,0.786-0.73,1.298c-0.044,0.148-0.07,0.3-0.07,0.456
				c-0.002,0.247,0.073,0.505,0.22,0.711c0.146,0.207,0.345,0.358,0.565,0.467c0.07,0.035,0.137,0.065,0.211,0.09
				c0.05,0.016,0.107,0.029,0.171,0.037c0.158,0.046,0.321,0.074,0.485,0.074c0.286,0,0.567-0.071,0.832-0.193
				c0.27-0.125,0.495-0.321,0.695-0.562c0.201-0.242,0.381-0.532,0.552-0.875l0.011-0.021l0.009-0.022
				c0.079-0.198,0.129-0.402,0.129-0.616c0-0.159-0.03-0.323-0.094-0.474l-0.001-0.001c-0.056-0.131-0.073-0.23-0.073-0.294v-0.105
				c0.025-0.065,0.077-0.183,0.163-0.33l0.001-0.001c0.179-0.315,0.371-0.544,0.564-0.701c1.178-0.817,2.755-1.749,4.728-2.787
				c1.933-1.018,4.351-1.818,7.255-2.389l0.027-0.005l0.026-0.008c2.202-0.665,4.563-1.001,7.089-1.001
				c2.539,0,5.105,0.233,7.701,0.7c2.596,0.467,5.192,1.156,7.793,2.065c2.602,0.911,5.045,1.964,7.332,3.159l0.006,0.003
				l0.006,0.003c3.388,1.669,8.344,4.447,14.85,8.329c6.513,3.888,11.189,6.646,14.031,8.277c2.895,1.663,6.248,2.876,10.052,3.647
				c3.337,0.676,6.697,1.015,10.077,1.015c0.464,0,0.927-0.006,1.392-0.019c3.863-0.107,7.661-0.8,11.388-2.077
				c3.817-1.272,7.372-2.944,10.664-5.013l0,0c0.955-0.573,1.898-1.171,2.78-1.866c0.851-0.672,2.142-1.794,3.238-2.833
				c-0.003,0.235-0.004,0.464-0.004,0.667c0,0.478,0.005,0.821,0.005,0.823l0,0.019l0.001,0.018
				c0.029,0.344,0.085,0.773,0.185,1.273l0,0.001c0.23,1.133,0.666,2.585,1.539,3.841c0.439,0.628,0.998,1.21,1.711,1.638
				c0.71,0.428,1.568,0.686,2.526,0.686v0l0.003,0h0h0.001h0.002h0.033h0.034l0.064-0.008c1.91-0.233,3.382-1.24,4.289-2.581
				c0.91-1.335,1.306-2.958,1.308-4.554v-0.001c-0.003-1.735-0.465-3.47-1.397-4.845c-0.468-0.687-1.061-1.285-1.784-1.714
				c-0.721-0.43-1.57-0.679-2.487-0.678h0l0,0l-0.011,0c0,0-0.002,0-0.004,0l-0.002,0v0c-1.321,0-2.437,0.257-3.396,0.684
				c0.099-0.598,0.209-1.204,0.342-1.828c0.335-1.573,0.799-3.135,1.394-4.684c0.586-1.529,1.347-2.898,2.285-4.115
				c0.932-1.21,2.021-2.184,3.274-2.936c1.214-0.728,2.681-1.102,4.443-1.103c1.261,0,2.805,0.179,4.619,0.541
				c1.829,0.366,3.633,0.772,5.411,1.216c1.778,0.445,3.359,0.876,4.74,1.293c0.818,0.248,1.463,0.439,1.95,0.578
				c-0.278,0.373-0.543,0.729-0.778,1.048c-0.385,0.523-0.753,1.109-1.104,1.758c-0.346,0.637-0.729,1.378-1.15,2.222
				c-0.423,0.845-0.923,1.872-1.501,3.081l0,0c-0.583,1.114-1.139,2.304-1.666,3.571c-0.527,1.264-1.132,2.763-1.815,4.497
				c-1.212,2.897-2.318,5.794-3.318,8.691c-0.998,2.888-1.917,5.541-2.757,7.955c-0.526,1.473-1,2.84-1.42,4.104
				c-0.417,1.248-0.806,2.338-1.167,3.269c-0.317,0.637-0.609,1.299-0.872,1.985c-0.255,0.659-0.545,1.279-0.871,1.857
				c-0.304,0.535-0.687,0.951-1.165,1.269c-0.434,0.291-1.041,0.459-1.861,0.459c-0.989,0.001-1.716-0.177-2.194-0.471l-0.001-0.001
				c-0.541-0.329-0.927-0.711-1.191-1.151c-0.28-0.466-0.449-0.943-0.518-1.445c-0.077-0.561-0.113-1.014-0.113-1.344v-0.552h-2.162
				l0.035,0.585c0.108,1.824,0.672,3.386,1.703,4.615c0.525,0.629,1.174,1.11,1.922,1.425c0.749,0.316,1.593,0.467,2.519,0.466
				c0.868,0,1.787-0.068,2.755-0.202c1.01-0.139,2.004-0.463,2.973-0.962c0.983-0.506,1.89-1.22,2.716-2.128
				c0.845-0.93,1.553-2.153,2.148-3.662l0,0c0.584-1.381,1.231-3.099,1.943-5.155c0.711-2.053,1.46-4.315,2.25-6.788l0-0.002
				c0.313-0.991,0.718-2.208,1.216-3.649c0.498-1.442,0.983-2.818,1.455-4.13l0,0c0.579-1.529,1.133-3.11,1.66-4.744l0.01-0.031
				l0.006-0.032c0.015-0.081,0.069-0.266,0.156-0.515c0.088-0.251,0.21-0.573,0.366-0.962c0.317-0.794,0.66-1.691,1.029-2.693
				c0.365-0.993,0.745-1.987,1.138-2.982c0.391-0.99,0.742-1.823,1.051-2.492l0.005-0.01l0.005-0.011
				c0.366-0.89,0.679-1.635,0.94-2.235c0.261-0.599,0.495-1.121,0.703-1.561c0.211-0.45,0.399-0.863,0.56-1.239
				c0.106-0.246,0.229-0.511,0.36-0.785c1.292,0.233,2.594,0.437,3.908,0.603c1.469,0.188,3.029,0.28,4.678,0.28
				c1.781,0,3.315-0.231,4.605-0.704c-0.264,0.742-0.505,1.484-0.699,2.168c-0.624,2.212-1.406,4.491-2.345,6.838
				c-0.943,2.357-1.952,4.754-3.026,7.191c-1.079,2.448-2.093,4.856-3.04,7.226c-0.951,2.379-1.745,4.668-2.381,6.866
				c-0.642,2.219-0.967,4.279-0.967,6.18c0,0.843,0.126,1.743,0.372,2.698c0.26,1.012,0.782,1.949,1.542,2.792
				c0.78,0.866,1.843,1.553,3.162,2.074c1.356,0.536,3.074,0.786,5.166,0.787c1.26,0.001,2.495-0.361,3.67-1.063
				c1.148-0.683,2.236-1.555,3.264-2.61c1.017-1.045,1.993-2.207,2.926-3.487c0.927-1.272,1.789-2.557,2.585-3.858
				c0.408-0.666,0.793-1.317,1.159-1.956c-0.122,0.449-0.241,0.896-0.353,1.333c-0.532,2.077-0.804,3.822-0.805,5.258
				c0,1.529,0.244,2.822,0.768,3.871c0.507,1.016,1.2,1.844,2.068,2.451c0.847,0.593,1.808,1.016,2.868,1.266
				c1.039,0.246,2.107,0.37,3.199,0.369c1.739,0.001,3.482-0.521,5.203-1.533c1.702-0.999,3.341-2.305,4.919-3.91
				c1.569-1.596,3.083-3.389,4.542-5.378c1.453-1.982,2.788-3.978,4.005-5.989c0.578-0.955,1.125-1.888,1.643-2.802
				c-0.114,1.063-0.172,2.112-0.172,3.146c0,3.283,0.479,6.113,1.46,8.483c0.979,2.369,2.467,4.275,4.443,5.674
				c2.538,1.82,5.891,2.703,10.011,2.703c2.856,0.001,5.747-0.991,8.645-2.921v0c0.002-0.001,0.003-0.002,0.005-0.003
				c0.002-0.002,0.005-0.003,0.007-0.005l0,0c1.452-0.915,2.846-2.042,4.181-3.378c1.331-1.33,2.607-2.794,3.829-4.387l0.005-0.007
				l0.005-0.007c1.222-1.7,2.338-3.494,3.347-5.38c1.009-1.886,1.886-3.84,2.631-5.86l0.002-0.006l0,0
				c1.43-4.006,2.212-8.083,2.36-12.221c0.261-0.412,0.513-0.847,0.754-1.314l0,0c0.11-0.193,0.642-1.164,1.275-2.246
				c0.316-0.54,0.655-1.104,0.974-1.605c0.318-0.499,0.619-0.937,0.84-1.205l0.009-0.011l0.007-0.009
				c0.954-1.276,2.592-2.845,4.9-4.662c2.3-1.812,4.791-3.399,7.472-4.763c2.688-1.366,5.285-2.433,7.792-3.202l0.006-0.002
				l0.007-0.002c3.565-1.195,7.173-1.791,10.832-1.791l0.105,0c3.715,0.012,7.393,0.439,11.037,1.279
				c3.576,0.824,8.333,3.092,14.201,6.816c5.901,3.743,10.484,6.6,13.752,8.573c3.274,1.977,6.632,3.799,10.071,5.464
				c2.351,1.274,4.834,2.417,7.453,3.431c2.631,1.02,5.309,1.802,8.034,2.346c2.722,0.544,5.4,0.848,8.032,0.911
				c0.241,0.006,0.48,0.009,0.719,0.009c2.372,0,4.636-0.288,6.792-0.866v0c4.495-0.902,8.671-2.694,12.515-5.363
				c0.259-0.128,0.584-0.329,1.025-0.623l0.001-0.001c0.499-0.336,1.116-0.861,1.883-1.591c0.349-0.333,0.598-0.771,0.761-1.28
				c0.05-0.157,0.08-0.319,0.08-0.485C3109.816-608.967,3109.743-609.218,3109.602-609.421z M2888.021-623.303
				c0.865-0.813,1.886-1.498,3.083-2.048c1.526-0.7,3.189-1.052,5.008-1.052c0.506,0,1.041,0.026,1.605,0.077
				c0.55,0.05,1.073,0.138,1.57,0.261c0.468,0.118,0.829,0.287,1.097,0.493c0.114,0.089,0.182,0.174,0.227,0.263
				c0.044,0.089,0.069,0.188,0.07,0.324c-0.003,0.389-0.106,0.676-0.328,0.95c-0.222,0.272-0.589,0.53-1.134,0.742
				c-1.135,0.444-2.429,0.671-3.895,0.671c-1.505,0-2.928-0.078-4.27-0.233l-0.063,0.548l0.063-0.548
				C2890.043-622.973,2889.032-623.128,2888.021-623.303z M2853.322-607.274c0.726-0.345,1.564-0.56,2.714-0.562
				c0.553,0.002,1.011,0.139,1.438,0.39c0.631,0.372,1.182,1.032,1.568,1.884c0.386,0.848,0.602,1.876,0.601,2.895l0,0v0.009
				c0.001,1.252-0.326,2.482-0.947,3.383c-0.313,0.452-0.687,0.826-1.145,1.114c-0.448,0.28-0.979,0.478-1.625,0.572
				c-0.773-0.019-1.312-0.258-1.812-0.67c-0.75-0.622-1.316-1.739-1.636-2.807l0-0.002c-0.237-0.767-0.357-1.513-0.403-1.98
				c0.002-0.915,0.065-2.078,0.194-3.491c0.002-0.021,0.005-0.049,0.008-0.072C2852.611-606.868,2852.951-607.096,2853.322-607.274z
				 M2964.819-605.739c-1.006-1.352-1.503-2.887-1.506-4.673c0.004-2.099,0.612-3.778,1.829-5.147
				c0.61-0.683,1.286-1.183,2.038-1.517c0.752-0.334,1.583-0.504,2.514-0.504c1.144,0,2.117,0.2,2.937,0.583
				c1.227,0.577,2.142,1.561,2.784,3.052c0.638,1.489,0.975,3.484,0.975,5.976c0,0.288-0.01,0.582-0.018,0.879
				c-0.684,0.967-1.412,1.708-2.188,2.255c-1.468,1.03-3.155,1.463-5.209,1.5C2967.138-603.65,2965.792-604.439,2964.819-605.739z"
				/>
			<polygon points="2961.771,-607.148 2961.771,-607.149 2961.77,-607.149 			"/>
			<polygon points="2961.855,-614.083 2961.855,-614.083 2961.855,-614.084 			"/>
		</g>
		<g>
			<polygon points="2974.495,-560.52 2917.474,-461.756 2860.452,-560.52 2857.903,-560.52 2917.474,-457.34 2977.045,-560.52 			
				"/>
			<polygon points="2815.515,-638.353 2781.802,-696.747 3053.146,-696.747 3019.432,-638.353 3021.982,-638.353 3056.97,-698.955 
				2777.977,-698.955 2812.966,-638.353 			"/>
		</g>
	</g>
	<g display="inline">
		<g>
			<path d="M2533.356-411.389h-8.354h-5.417v23.226v8.722h-4.774v-8.722v-23.226h-4.82h-8.813l0.046-1.103h32.133V-411.389z"/>
			<path d="M2579.983-412.492v33.051h-4.774v-16.8h-17.627v16.8h-4.774v-33.051h4.774v15.102h17.627v-15.102H2579.983z"/>
			<path d="M2610.407-380.588h10.145v1.147h-19.189v-8.492v-2.296v-1.974v-12.119v-8.171h19.28v1.103h-10.145h-4.407v7.114v0.964
				v5.921h3.351h6.197v1.149h-6.06h-3.489v4.039v0.734v1.24v2.296v7.345H2610.407z"/>
			<path d="M2668.281-408.038c3.305-2.984,6.289-4.454,11.246-4.454c4.958,0,8.032,1.47,11.338,4.408
				c3.351,2.938,5.003,6.977,5.003,12.072c0,4.957-1.606,8.951-4.774,11.982c-3.212,3.075-6.287,4.59-11.521,4.59
				c-5.049,0-8.125-1.515-11.384-4.59c-3.214-3.031-4.866-7.116-4.866-12.165C2663.323-401.106,2664.975-405.054,2668.281-408.038z
				 M2671.769-384.489c2.065,2.57,4.039,3.856,8.125,3.856c3.626,0,5.921-1.286,7.987-3.856c2.065-2.572,2.57-6.381,2.57-11.477
				c0-4.957-0.459-8.768-2.524-11.384c-2.065-2.662-4.498-3.948-8.4-3.948c-3.81,0-5.693,1.286-7.758,3.856
				c-2.02,2.57-3.029,6.381-3.029,11.429C2668.74-390.87,2669.75-387.061,2671.769-384.489z"/>
			<path d="M2716.422-379.44v-8.354v-2.341v-1.974v-12.119v-8.263h19.279v1.103h-10.145h-4.359v7.206v0.964v5.83h3.304h6.243v1.149
				h-6.104h-3.443v4.131v0.781v1.193v2.296v8.4H2716.422z"/>
			<path d="M2755.111-379.44v-8.354v-2.341v-1.974v-12.119v-8.263h19.279v1.103h-10.145h-4.359v7.206v0.964v5.83h3.304h6.243v1.149
				h-6.104h-3.443v4.131v0.781v1.193v2.296v8.4H2755.111z"/>
			<path d="M2798.574-412.492v8.217v16.249v8.585h-4.774v-8.585v-16.249v-8.217H2798.574z"/>
			<path d="M2845.666-384.261c-2.801,3.168-6.381,4.82-10.741,4.82c-4.59,0-8.354-1.469-11.292-4.361
				c-2.892-2.938-4.361-6.794-4.361-11.568c0-3.167,0.642-6.104,2.02-8.905c1.332-2.799,3.214-4.866,5.647-6.196
				c2.386-1.332,5.049-2.021,7.941-2.021c2.387,0,4.544,0.506,6.472,1.47c1.882,0.962,3.305,2.02,4.269,3.167v0.137l-0.918,0.872
				c-0.505-0.781-1.147-1.423-1.791-1.928c-2.203-1.698-4.635-2.524-7.344-2.524c-3.351,0-6.013,1.377-7.987,4.085
				c-1.974,2.709-2.938,6.565-2.938,11.614c0,4.774,1.056,8.446,3.212,11.018c2.158,2.524,4.82,3.809,8.034,3.809
				c1.698,0,3.443-0.413,5.234-1.239c1.469-0.689,2.662-1.745,3.626-3.214L2845.666-384.261z"/>
			<path d="M2869.801-412.492v8.217v16.249v8.585h-4.774v-8.585v-16.249v-8.217H2869.801z"/>
			<path d="M2908.952-391.559h-12.165l-4.637,12.119h-1.744l13.679-33.051h0.964l14.045,33.051h-5.186
				c-1.745-4.269-2.479-6.059-2.479-6.059L2908.952-391.559z M2908.539-392.661l-5.784-13.862l-5.647,13.862H2908.539z"/>
			<path d="M2961.776-380.542v1.101h-22.998v-8.492v-16.251v-8.309h4.774v31.95H2961.776z"/>
			<path d="M3050.956-412.492l-4.314,10.237l-9.594,22.815h-1.47l-8.261-19.05l-7.987,19.05h-1.516l-11.108-25.522l-0.369-0.642
				c-0.183-0.413-0.366-0.964-0.641-1.608c-0.183-0.505-0.415-1.056-0.644-1.423l-1.608-3.856h4.82l2.846,6.289l9.274,21.529
				c5.598-13.357,7.758-18.82,7.758-18.82h1.928l8.078,18.774l7.435-17.718c0.461-1.101,0.827-2.111,1.104-2.892l2.752-7.161
				H3050.956z"/>
			<path d="M3080.181-380.588h10.146v1.147h-19.189v-8.492v-2.296v-1.974v-12.119v-8.171h19.28v1.103h-10.144h-4.408v7.114v0.964
				v5.921h3.35h6.199v1.149h-6.059h-3.49v4.039v0.734v1.24v2.296v7.345H3080.181z"/>
			<path d="M3109.462-412.492c7.529,0,9.091,0,9.091,0c4.817,0,8.627,0.735,11.336,2.25c2.709,1.469,4.729,3.443,6.059,6.013
				c1.333,2.526,2.02,5.417,2.02,8.768c0,2.387-0.366,4.591-1.101,6.565c-0.732,1.974-1.696,3.626-2.984,4.912
				c-1.239,1.33-2.709,2.341-4.405,3.029c-1.653,0.688-3.215,1.101-4.729,1.239c-1.47,0.185-3.582,0.276-6.291,0.276h-8.996
				V-412.492z M3119.239-380.542c2.846,0,5.189-0.413,7.023-1.194c1.836-0.779,3.398-2.294,4.591-4.59
				c1.239-2.296,1.882-5.233,1.882-8.768c0-2.801-0.366-5.233-1.101-7.436c-0.689-2.158-1.745-3.902-3.075-5.279
				c-1.333-1.377-2.801-2.296-4.408-2.801c-1.65-0.459-3.719-0.734-6.242-0.734c-1.239,0-2.617,0.046-3.719,0.137v30.664H3119.239z"
				/>
			<path d="M3158.843-412.492c7.529,0,9.091,0,9.091,0c4.817,0,8.627,0.735,11.336,2.25c2.709,1.469,4.729,3.443,6.059,6.013
				c1.333,2.526,2.02,5.417,2.02,8.768c0,2.387-0.366,4.591-1.101,6.565c-0.735,1.974-1.696,3.626-2.984,4.912
				c-1.239,1.33-2.709,2.341-4.405,3.029c-1.654,0.688-3.216,1.101-4.729,1.239c-1.47,0.185-3.582,0.276-6.291,0.276h-8.997
				V-412.492z M3168.62-380.542c2.846,0,5.189-0.413,7.023-1.194c1.837-0.779,3.398-2.294,4.591-4.59
				c1.239-2.296,1.882-5.233,1.882-8.768c0-2.801-0.366-5.233-1.101-7.436c-0.689-2.158-1.745-3.902-3.075-5.279
				c-1.333-1.377-2.801-2.296-4.408-2.801c-1.65-0.459-3.719-0.734-6.242-0.734c-1.239,0-2.617,0.046-3.719,0.137v30.664H3168.62z"
				/>
			<path d="M3213.414-412.492v8.217v16.249v8.585h-4.774v-8.585v-16.249v-8.217H3213.414z"/>
			<path d="M3260.367-412.492v6.152v26.899h-0.872l-23.179-30.434v22.401v7.206h-1.055v-7.206v-17.122v-7.897h4.957l18.774,25.11
				v-19.326v-5.784H3260.367z"/>
			<path d="M3305.343-393.533h4.591v5.233c0,1.974-0.827,3.856-2.34,5.095c-1.104,0.964-2.389,1.928-3.261,2.25
				c-2.709,1.01-5.14,1.515-7.435,1.515c-4.545,0-8.356-1.515-11.385-4.498c-2.984-2.984-4.5-6.794-4.5-11.431
				c0-4.544,1.425-8.537,4.317-11.98s6.794-5.142,11.706-5.142c4.222,0,7.758,1.516,10.464,4.591v0.137l-1.056,1.101
				c-0.458-0.642-0.964-1.284-1.559-1.789c-2.02-1.928-4.454-2.892-7.346-2.892c-3.029,0-5.598,1.101-7.849,3.351
				c-2.203,2.203-3.35,6.15-3.35,11.843c0,5.645,1.101,9.64,3.258,12.026c2.111,2.341,4.774,3.536,7.987,3.536
				c1.608,0,3.075-0.322,4.408-1.01c1.33-0.644,2.203-1.469,2.663-2.433c0.503-0.964,0.686-2.158,0.686-3.627V-393.533z"/>
		</g>
		<g>
			<path d="M2663.267-360.577v0.95h-7.446v6.971h7.446v0.95h-7.446v6.971h7.446v0.95h-8.396v-16.792H2663.267z"/>
			<path d="M2686.665-343.785l5.32-9.227l-4.371-7.565h1.081l3.824,6.639l3.836-6.639h1.081l-4.382,7.565l5.344,9.227h-1.081
				l-4.798-8.289l-4.786,8.289H2686.665z"/>
			<path d="M2722.745-349.604v5.819h-0.95v-16.792h4.406c1.282,0.174,2.371,0.709,3.266,1.603c1.069,1.077,1.603,2.367,1.603,3.871
				c0,1.52-0.534,2.816-1.603,3.889c-1.069,1.073-2.359,1.609-3.871,1.609H2722.745z M2722.745-359.615v9.049h2.85
				c1.243,0,2.308-0.441,3.195-1.324c0.886-0.883,1.33-1.953,1.33-3.212c0-1.251-0.444-2.316-1.33-3.195
				c-0.887-0.879-1.952-1.318-3.195-1.318H2722.745z"/>
			<path d="M2769.186-358.291c1.683,1.682,2.524,3.711,2.524,6.086c0,2.383-0.841,4.416-2.524,6.098
				c-1.682,1.682-3.715,2.524-6.097,2.524c-2.375,0-4.404-0.841-6.087-2.524c-1.682-1.682-2.523-3.715-2.523-6.098
				c0-2.375,0.841-4.404,2.523-6.086s3.711-2.524,6.087-2.524C2765.471-360.814,2767.503-359.973,2769.186-358.291z
				 M2763.088-359.852c-2.106,0-3.907,0.748-5.404,2.245c-1.496,1.496-2.244,3.298-2.244,5.403c0,2.114,0.748,3.919,2.244,5.415
				c1.497,1.497,3.298,2.245,5.404,2.245c2.114,0,3.919-0.748,5.415-2.245c1.497-1.496,2.245-3.301,2.245-5.415
				c0-2.106-0.748-3.907-2.245-5.403C2767.007-359.104,2765.202-359.852,2763.088-359.852z"/>
			<path d="M2800.213-353.083c-1.196-0.396-2.14-0.94-2.833-1.633c-0.693-0.692-1.039-1.534-1.039-2.524
				c0-0.965,0.346-1.797,1.039-2.494c0.693-0.696,1.534-1.045,2.524-1.045c0.973,0,1.813,0.349,2.518,1.045
				c0.38,0.372,0.645,0.788,0.796,1.247l-0.855,0.333c-0.127-0.34-0.333-0.653-0.618-0.938c-0.507-0.506-1.12-0.76-1.841-0.76
				s-1.336,0.254-1.847,0.76c-0.51,0.507-0.765,1.125-0.765,1.853c0,0.721,0.253,1.338,0.76,1.853
				c0.475,0.467,1.132,0.895,1.971,1.283c1.346,0.436,2.479,1.112,3.397,2.031c0.966,0.966,1.448,2.134,1.448,3.503
				c0,1.377-0.485,2.553-1.455,3.527c-0.97,0.974-2.14,1.461-3.509,1.461c-1.377,0-2.55-0.491-3.515-1.473
				c-0.784-0.776-1.251-1.679-1.402-2.708l0.891-0.321c0.095,0.91,0.483,1.702,1.164,2.375c0.792,0.792,1.745,1.187,2.862,1.187
				s2.07-0.396,2.862-1.187c0.792-0.792,1.187-1.746,1.187-2.862c0-1.108-0.396-2.059-1.187-2.85
				C2802.07-352.117,2801.218-352.671,2800.213-353.083z"/>
			<path d="M2838.751-360.577h0.95v12.066c-0.174,1.282-0.708,2.371-1.603,3.266c-1.069,1.069-2.359,1.603-3.871,1.603
				c-1.52,0-2.815-0.535-3.883-1.603c-1.069-1.069-1.604-2.359-1.604-3.871v-11.46h0.95v11.46c0,1.243,0.443,2.308,1.33,3.195
				c0.886,0.887,1.956,1.33,3.207,1.33c1.25,0,2.317-0.443,3.2-1.33c0.883-0.887,1.324-1.952,1.324-3.195V-360.577z"/>
			<path d="M2868.336-349.604h-3.135v5.819h-0.951v-16.792h4.406c1.283,0.174,2.371,0.709,3.266,1.603
				c1.069,1.077,1.603,2.367,1.603,3.871c0,1.52-0.534,2.815-1.603,3.883c-0.744,0.744-1.595,1.231-2.553,1.461l3.872,5.973h-1.164
				L2868.336-349.604z M2865.201-359.615v9.049h2.85c1.243,0,2.307-0.441,3.194-1.324c0.886-0.883,1.33-1.953,1.33-3.212
				c0-1.251-0.444-2.316-1.33-3.195c-0.887-0.879-1.952-1.318-3.194-1.318H2865.201z"/>
			<path d="M2905.924-360.577v0.95h-7.446v6.971h7.446v0.95h-7.446v6.971h7.446v0.95h-8.396v-16.792H2905.924z"/>
			<path d="M2973.085-360.577v16.792h-0.95v-15.771l-6.496,8.515l-6.508-8.515v15.771h-0.95v-16.792h1.377l6.081,7.957l6.068-7.957
				H2973.085z"/>
			<path d="M3011.523-358.291c1.682,1.682,2.523,3.711,2.523,6.086c0,2.383-0.841,4.416-2.523,6.098
				c-1.683,1.682-3.715,2.524-6.098,2.524c-2.375,0-4.404-0.841-6.086-2.524c-1.682-1.682-2.524-3.715-2.524-6.098
				c0-2.375,0.841-4.404,2.524-6.086c1.682-1.682,3.71-2.524,6.086-2.524C3007.808-360.814,3009.84-359.973,3011.523-358.291z
				 M3005.425-359.852c-2.106,0-3.907,0.748-5.403,2.245c-1.497,1.496-2.244,3.298-2.244,5.403c0,2.114,0.748,3.919,2.244,5.415
				c1.496,1.497,3.297,2.245,5.403,2.245c2.114,0,3.919-0.748,5.415-2.245c1.497-1.496,2.245-3.301,2.245-5.415
				c0-2.106-0.748-3.907-2.245-5.403C3009.344-359.104,3007.538-359.852,3005.425-359.852z"/>
			<path d="M3052.692-360.577v16.792h-0.951v-15.771l-6.496,8.515l-6.508-8.515v15.771h-0.95v-16.792h1.377l6.08,7.957l6.068-7.957
				H3052.692z"/>
			<path d="M3085.41-360.577v0.95h-7.445v6.971h7.445v0.95h-7.445v6.971h7.445v0.95h-8.396v-16.792H3085.41z"/>
			<path d="M3111.124-360.577l11.163,15.64v-15.64h0.95v16.792h-1.461l-10.902-15.272v15.272h-0.95v-16.792H3111.124z"/>
			<path d="M3151.99-359.627v15.842h-0.938v-15.842h-4.251v-0.95h9.441v0.95H3151.99z"/>
		</g>
		
			<line fill="none" stroke="#000000" stroke-width="1.2864" stroke-miterlimit="10" x1="3165.777" y1="-352.199" x2="3309.934" y2="-352.199"/>
		
			<line fill="none" stroke="#000000" stroke-width="1.2864" stroke-miterlimit="10" x1="2501.178" y1="-352.199" x2="2645.334" y2="-352.199"/>
	</g>
	<g display="inline">
		<circle fill="none" stroke="#000000" stroke-width="3" stroke-miterlimit="10" cx="2926.535" cy="936.456" r="55.311"/>
		<polygon fill="none" stroke="#000000" stroke-width="3" stroke-miterlimit="10" points="2905.457,945.187 2905.457,927.726 
			2917.804,915.378 2935.266,915.378 2947.613,927.726 2947.613,945.187 2935.266,957.534 2917.804,957.534 		"/>
		
			<line fill="none" stroke="#000000" stroke-width="3" stroke-miterlimit="10" x1="2905.457" y1="927.726" x2="2947.613" y2="885.306"/>
		<line fill="none" stroke="#000000" stroke-width="3" stroke-miterlimit="10" x1="2925.942" y1="915.378" x2="2977" y2="915.378"/>
		
			<line fill="none" stroke="#000000" stroke-width="3" stroke-miterlimit="10" x1="2943.237" y1="923.349" x2="2978.095" y2="956.518"/>
		
			<line fill="none" stroke="#000000" stroke-width="3" stroke-miterlimit="10" x1="2947.613" y1="940.798" x2="2947.613" y2="986.362"/>
		
			<line fill="none" stroke="#000000" stroke-width="3" stroke-miterlimit="10" x1="2938.896" y1="953.905" x2="2905.457" y2="987.606"/>
		
			<line fill="none" stroke="#000000" stroke-width="3" stroke-miterlimit="10" x1="2919.813" y1="957.534" x2="2876.895" y2="957.534"/>
		
			<line fill="none" stroke="#000000" stroke-width="3" stroke-miterlimit="10" x1="2905.457" y1="945.187" x2="2876.412" y2="913.046"/>
		
			<line fill="none" stroke="#000000" stroke-width="3" stroke-miterlimit="10" x1="2905.457" y1="931.145" x2="2905.457" y2="885.971"/>
	</g>
	<polyline display="inline" fill="none" stroke="#000000" stroke-width="3" stroke-miterlimit="10" points="2849.785,1000 
		2804.365,1000 2804.365,872.913 2849.785,872.913 	"/>
	<polyline display="inline" fill="none" stroke="#000000" stroke-width="3" stroke-miterlimit="10" points="3003.285,872.913 
		3051.618,872.913 3051.618,1000 3003.285,1000 	"/>
	<g display="inline">
		<polygon fill="none" stroke="#000000" stroke-width="2.1872" stroke-miterlimit="10" points="2908.625,833.791 2944.328,833.791 
			2958.539,848.237 2926.594,880.534 2894.531,848.237 		"/>
		<polyline fill="none" stroke="#000000" stroke-width="2.1872" stroke-miterlimit="10" points="2920.334,874.229 2903.457,848.59 
			2908.625,834.731 2916.846,848.12 2926.594,834.378 2934.58,848.12 2943.976,834.731 2949.613,848.59 2935.2,871.833 		"/>
		
			<line fill="none" stroke="#000000" stroke-width="2.1872" stroke-miterlimit="10" x1="2894.882" y1="848.59" x2="2958.539" y2="848.59"/>
		
			<line fill="none" stroke="#000000" stroke-width="2.1872" stroke-miterlimit="10" x1="2916.846" y1="848.59" x2="2926.3" y2="880.239"/>
		
			<line fill="none" stroke="#000000" stroke-width="2.1872" stroke-miterlimit="10" x1="2934.58" y1="848.59" x2="2926.594" y2="880.534"/>
	</g>
	<circle display="inline" fill="#FF0000" cx="3031.118" cy="892.305" r="4.626"/>
	
		<text transform="matrix(1 0 0 1 2252.542 1321.2617)" display="inline" font-family="'Cinzel-Regular'" font-size="77.1337" letter-spacing="6">The Official Wedding</text>
	
		<text transform="matrix(1 0 0 1 2664.542 1724.7679)" display="inline" font-family="'BebasNeue'" font-size="85" letter-spacing="19">The Official Wedding</text>
	
		<text transform="matrix(1 0 0 1 2585.1226 1410.3754)" display="inline" font-family="'CaviarDreams-Bold'" font-size="15.3874" letter-spacing="10">Exposure Moment</text>
	<g display="inline">
		<g>
			<g>
				<path d="M7663.099,909.204l53.935-54.53l-26.494-26.931h-0.792h-0.456h-29.779h-0.756h-30.821h-0.77h-0.089l-0.558,0.572
					l-25.725,26.368l54.121,54.517c-52.517,2.102-94.449,45.316-94.451,98.348c0.002,54.373,44.076,98.447,98.449,98.449
					c54.373-0.002,98.447-44.076,98.449-98.449C7757.359,954.578,7715.527,911.4,7663.099,909.204z M7743.557,968.421h-68.439
					h-17.234h-7.986l46.137-46.425c10.821,4.703,20.584,11.384,28.815,19.613C7732.567,949.328,7738.916,958.399,7743.557,968.421z
					 M7692.839,993.493v28.106l-19.874,19.874h-28.106l-19.874-19.874v-23.257h0v-4.849l19.874-19.874h13.024v0h15.082
					L7692.839,993.493z M7624.986,986.114v-65.425c10.516-4.111,21.949-6.392,33.927-6.392c11.202,0.001,21.937,1.978,31.883,5.597
					L7624.986,986.114z M7649.645,898.511l-27.208-41.333h18.273l13.816,46.251L7649.645,898.511z M7696.087,853.388h-20.161
					l12.763-18.188L7696.087,853.388z M7709.227,857.178l-24.842,25.116l15.574-25.116H7709.227z M7672.43,894.38l-9.899,10.009
					l11.803-47.211h21.166L7672.43,894.38z M7658.689,904.123l-14.024-46.945h25.761L7658.689,904.123z M7645.211,853.388
					l13.645-19.234l11.178,19.234H7645.211z M7617.604,853.388h-10.252l16.594-17.009L7617.604,853.388z M7628.293,835.568
					l10.941,17.819h-17.585L7628.293,835.568z M7617.899,857.178l18.278,27.767l-27.565-27.767H7617.899z M7710.451,853.388h-10.272
					l-7.241-17.803L7710.451,853.388z M7686.632,831.533l-13.629,19.421l-11.288-19.421H7686.632z M7656.068,831.533l-13.832,19.498
					l-11.973-19.498H7656.068z M7592.975,941.609c7.719-7.717,16.79-14.066,26.813-18.707v68.438v7.002v17.581l-44.631-49.388
					C7579.707,957.259,7585.743,948.842,7592.975,941.609z M7572.813,971.696l46.974,51.98v0.076l0.761,0.762l16.959,16.959h-64.617
					v2.119c-4.652-11.088-7.227-23.262-7.228-36.046C7565.663,994.837,7568.212,982.732,7572.813,971.696z M7574.268,1046.672
					h72.996v0h20.587l-46.062,46.424c-10.821-4.703-20.583-11.383-28.814-19.612
					C7585.257,1065.765,7578.909,1056.694,7574.268,1046.672z M7627.025,1095.199l55.151-55.585l10.663-10.662v65.078h0.952
					c-10.775,4.35-22.539,6.767-34.878,6.768C7647.708,1100.796,7636.973,1098.818,7627.025,1095.199z M7724.85,1073.484
					c-7.719,7.717-16.79,14.065-26.812,18.707v-77.121h0V998.11l47.143,44.858
					C7740.453,1054.469,7733.508,1064.825,7724.85,1073.484z M7747.159,1037.676l-57.492-54.706l-9.35-9.349h65.453
					c4.111,10.516,6.392,21.949,6.393,33.927C7752.162,1018.097,7750.386,1028.223,7747.159,1037.676z"/>
				<polygon points="7444.603,1120.261 7525.911,1120.261 7525.911,1115.063 7525.911,1115.062 7449.802,1115.062 7449.802,900.031 
					7525.911,900.031 7525.911,894.832 7444.603,894.832 				"/>
				<polygon points="7791.913,894.832 7791.913,900.031 7873.071,900.031 7873.071,1115.062 7791.913,1115.062 7791.913,1120.261 
					7878.269,1120.261 7878.269,894.832 				"/>
			</g>
			<circle fill="#FF0000" cx="7840.146" cy="931.036" r="8.016"/>
		</g>
		<g>
			<g>
				<path d="M7408.192,1256.309v2.828h-8.946v6.678h8.946v2.826h-8.946v6.68h8.946v2.84h-11.773v-21.853H7408.192z"/>
				<path d="M7429.042,1278.162l6.871-11.924l-5.723-9.929h3.25l4.097,7.117l4.125-7.117h3.251l-5.751,9.929l6.898,11.924h-3.25
					l-5.272-9.11l-5.244,9.11H7429.042z"/>
				<path d="M7470.095,1271.17v6.993h-2.827v-21.853h6.201c1.757,0.238,3.242,0.96,4.452,2.171c1.448,1.457,2.172,3.206,2.172,5.246
					c0,2.057-0.725,3.813-2.172,5.265s-3.195,2.178-5.244,2.178H7470.095z M7470.095,1259.15v9.18h2.583
					c1.256,0,2.333-0.449,3.23-1.346c0.896-0.896,1.345-1.983,1.345-3.257c0-1.266-0.448-2.345-1.345-3.238
					c-0.897-0.891-1.974-1.339-3.23-1.339H7470.095z"/>
				<path d="M7520.121,1259.3c2.184,2.185,3.277,4.822,3.277,7.909c0,3.085-1.093,5.722-3.277,7.907
					c-2.186,2.185-4.822,3.279-7.909,3.279c-3.087,0-5.724-1.094-7.909-3.279c-2.186-2.185-3.277-4.822-3.277-7.907
					c0-3.087,1.092-5.723,3.277-7.909c2.185-2.185,4.821-3.277,7.909-3.277C7515.299,1256.023,7517.936,1257.115,7520.121,1259.3z
					 M7512.212,1258.876c-2.304,0-4.268,0.813-5.894,2.439c-1.626,1.624-2.437,3.589-2.437,5.894c0,2.302,0.814,4.27,2.444,5.899
					c1.629,1.631,3.591,2.446,5.887,2.446c2.302,0,4.268-0.815,5.894-2.446c1.625-1.63,2.438-3.597,2.438-5.899
					c0-2.304-0.813-4.269-2.438-5.894C7516.48,1259.689,7514.515,1258.876,7512.212,1258.876z"/>
				<path d="M7551.188,1266.948c-1.548-0.518-2.801-1.259-3.762-2.219c-0.96-0.96-1.441-2.152-1.441-3.572
					c0-1.392,0.499-2.59,1.497-3.591c0.996-1.001,2.205-1.502,3.625-1.502c1.402,0,2.604,0.495,3.605,1.488
					c0.564,0.547,1.039,1.417,1.422,2.61l-2.569,1.01c-0.309-0.838-0.591-1.385-0.847-1.639c-0.446-0.437-0.983-0.657-1.612-0.657
					c-0.637,0-1.179,0.222-1.625,0.664c-0.447,0.44-0.669,0.98-0.669,1.617s0.222,1.181,0.669,1.626
					c0.5,0.492,1.193,0.943,2.075,1.353c1.711,0.554,3.164,1.429,4.356,2.622c1.338,1.321,2.008,2.922,2.008,4.807
					s-0.666,3.494-2,4.829c-1.333,1.333-2.938,2.001-4.814,2.001c-1.885,0-3.492-0.669-4.822-2.008
					c-1.065-1.065-1.738-2.537-2.02-4.411l2.745-0.998c0.172,1.612,0.596,2.755,1.271,3.428c0.783,0.783,1.726,1.175,2.826,1.175
					c1.103,0,2.045-0.392,2.828-1.175c0.783-0.783,1.174-1.729,1.174-2.84c0-1.102-0.391-2.043-1.174-2.828
					C7553.187,1267.992,7552.272,1267.395,7551.188,1266.948z"/>
				<path d="M7591.148,1256.309h2.84v15.393c-0.247,1.757-0.969,3.242-2.173,4.452c-1.456,1.458-3.209,2.185-5.258,2.185
					c-2.048,0-3.799-0.726-5.251-2.178s-2.178-3.203-2.178-5.251v-14.601h2.84v14.601c0,1.255,0.449,2.333,1.346,3.229
					s1.978,1.346,3.243,1.346c1.275,0,2.359-0.446,3.252-1.339c0.891-0.893,1.338-1.97,1.338-3.236V1256.309z"/>
				<path d="M7621.956,1271.17h-2.582v6.993h-2.828v-21.853h6.201c1.757,0.238,3.242,0.96,4.452,2.171
					c1.449,1.457,2.171,3.206,2.171,5.246c0,2.057-0.723,3.815-2.171,5.272c-1.001,1.001-1.766,1.566-2.293,1.694l4.848,7.47h-3.428
					L7621.956,1271.17z M7619.374,1259.15v9.18h2.582c1.257,0,2.333-0.449,3.229-1.346c0.896-0.896,1.346-1.983,1.346-3.257
					c0-1.266-0.449-2.345-1.346-3.238c-0.896-0.891-1.972-1.339-3.229-1.339H7619.374z"/>
				<path d="M7662.775,1256.309v2.828h-8.945v6.678h8.945v2.826h-8.945v6.68h8.945v2.84h-11.773v-21.853H7662.775z"/>
				<path d="M7716.375,1256.309l7.088,12.251l7.062-12.251h2.581v21.853h-2.828v-15.789l-6.815,11.8l-6.842-11.8v15.789h-2.828
					v-21.853H7716.375z"/>
				<path d="M7775.087,1259.3c2.184,2.185,3.277,4.822,3.277,7.909c0,3.085-1.093,5.722-3.277,7.907
					c-2.186,2.185-4.822,3.279-7.909,3.279c-3.087,0-5.724-1.094-7.909-3.279c-2.186-2.185-3.277-4.822-3.277-7.907
					c0-3.087,1.092-5.723,3.277-7.909c2.185-2.185,4.821-3.277,7.909-3.277C7770.265,1256.023,7772.901,1257.115,7775.087,1259.3z
					 M7767.178,1258.876c-2.304,0-4.268,0.813-5.894,2.439c-1.626,1.624-2.437,3.589-2.437,5.894c0,2.302,0.814,4.27,2.444,5.899
					c1.629,1.631,3.591,2.446,5.887,2.446c2.302,0,4.268-0.815,5.894-2.446c1.625-1.63,2.438-3.597,2.438-5.899
					c0-2.304-0.813-4.269-2.438-5.894C7771.446,1259.689,7769.48,1258.876,7767.178,1258.876z"/>
				<path d="M7803.846,1256.309l7.088,12.251l7.062-12.251h2.581v21.853h-2.828v-15.789l-6.815,11.8l-6.842-11.8v15.789h-2.828
					v-21.853H7803.846z"/>
				<path d="M7855.578,1256.309v2.828h-8.945v6.678h8.945v2.826h-8.945v6.68h8.945v2.84h-11.773v-21.853H7855.578z"/>
				<path d="M7877.794,1256.309h2.582l9.015,15.597v-15.597h2.84v21.853h-2.471l-9.137-15.789v15.789h-2.828V1256.309z"/>
				<path d="M7921.36,1259.137v19.025h-2.842v-19.025h-5.093v-2.828h13.028v2.828H7921.36z"/>
			</g>
			<g>
				<path d="M7178.736,1184.094c0-1.234-0.438-2.301-1.311-3.201c-0.875-0.898-1.903-1.375-3.085-1.427h-14.655v46.203
					c0.05,1.338,0.552,2.469,1.504,3.394c0.951,0.926,2.095,1.389,3.433,1.389h1.002v0.771h-16.892v-0.771h1.003
					c1.336,0,2.48-0.463,3.432-1.389c0.951-0.925,1.452-2.03,1.504-3.316v-46.28h-14.656c-1.234,0.052-2.275,0.528-3.124,1.427
					c-0.849,0.9-1.273,1.967-1.273,3.201v1.312l-0.771,0.077v-9.719c0.771,0.309,2.108,0.617,4.011,0.926
					c1.902,0.309,3.65,0.463,5.245,0.463h26.071c2.519,0,4.615-0.193,6.286-0.579c1.67-0.386,2.687-0.655,3.047-0.81v9.719
					l-0.771-0.077V1184.094z"/>
				<path d="M7229.335,1230.451c1.337,0,2.48-0.463,3.433-1.389c0.951-0.925,1.452-2.056,1.504-3.394v-19.978h-31.548v19.9
					c0,1.338,0.488,2.481,1.465,3.433c0.977,0.952,2.133,1.427,3.471,1.427h1.003v0.771h-16.893v-0.771h1.003
					c1.336,0,2.48-0.475,3.432-1.427c0.951-0.951,1.453-2.095,1.504-3.433v-42.81c-0.052-1.336-0.553-2.468-1.504-3.394
					c-0.952-0.926-2.096-1.389-3.432-1.389h-1.003v-0.771h16.893V1178h-1.003c-1.338,0-2.481,0.463-3.433,1.389
					c-0.952,0.926-1.453,2.058-1.504,3.394v20.595h31.548v-20.595c-0.052-1.851-0.875-3.239-2.469-4.165
					c-0.771-0.411-1.594-0.617-2.468-0.617h-1.002v-0.771h16.892V1178h-1.002c-1.338,0-2.482,0.477-3.433,1.428
					c-0.952,0.952-1.454,2.096-1.504,3.432v42.732c0.05,1.338,0.552,2.481,1.504,3.433c0.951,0.952,2.095,1.427,3.433,1.427h1.002
					v0.771h-16.892v-0.771H7229.335z"/>
				<path d="M7261.654,1230.451c1.336,0,2.48-0.475,3.432-1.427c0.951-0.951,1.453-2.095,1.504-3.433v-43.194
					c-0.154-1.234-0.694-2.275-1.62-3.124c-0.925-0.849-2.032-1.273-3.316-1.273h-0.926l-0.077-0.771h22.6
					c1.593,0,3.329-0.154,5.207-0.463c1.876-0.309,3.201-0.617,3.973-0.926v9.719h-0.771v-1.389c0-1.234-0.424-2.287-1.272-3.162
					c-0.849-0.874-1.865-1.337-3.047-1.389h-15.735v23.834h13.036c1.028-0.05,1.902-0.436,2.623-1.156
					c0.719-0.72,1.08-1.62,1.08-2.7v-1.08h0.771v12.188h-0.771v-1.157c0-1.027-0.347-1.901-1.041-2.622
					c-0.694-0.72-1.556-1.105-2.584-1.157h-13.113v23.063h11.03c3.805,0,6.71-0.848,8.716-2.545s3.676-4.216,5.014-7.56h0.771
					l-4.474,12.496h-32.011v-0.771H7261.654z"/>
				<path d="M7345.228,1183.902c5.116-5.168,11.788-7.752,20.016-7.752c8.227,0,14.912,2.584,20.055,7.752
					c5.142,5.168,7.713,11.943,7.713,20.324c0,8.383-2.572,15.157-7.713,20.325c-5.143,5.168-11.828,7.752-20.055,7.752
					c-8.228,0-14.9-2.584-20.016-7.752c-5.117-5.168-7.675-11.942-7.675-20.325
					C7337.553,1195.845,7340.111,1189.07,7345.228,1183.902z M7349.47,1222.893c3.984,4.731,9.256,7.096,15.813,7.096
					s11.827-2.364,15.813-7.096c3.984-4.73,5.978-10.953,5.978-18.667c0-5.091-0.9-9.59-2.699-13.498
					c-1.801-3.907-4.358-6.929-7.675-9.063c-3.317-2.133-7.135-3.201-11.455-3.201c-6.531,0-11.79,2.366-15.774,7.097
					c-3.985,4.731-5.978,10.953-5.978,18.666C7343.493,1211.94,7345.485,1218.162,7349.47,1222.893z"/>
				<path d="M7437.828,1178.077v6.479h-0.771v-1.157c0-1.027-0.36-1.915-1.08-2.661c-0.721-0.744-1.62-1.118-2.699-1.118h-16.275
					v23.834h13.036c1.028-0.05,1.902-0.436,2.623-1.156c0.719-0.72,1.08-1.594,1.08-2.623v-1.157h0.771v12.188h-0.771v-1.157
					c0-1.027-0.347-1.901-1.041-2.622c-0.694-0.72-1.556-1.105-2.584-1.157h-13.113v19.823c0,1.338,0.488,2.481,1.465,3.433
					c0.977,0.952,2.133,1.427,3.471,1.427h1.003v0.771h-16.893v-0.771h1.003c1.336,0,2.48-0.475,3.432-1.427
					c0.951-0.951,1.453-2.095,1.504-3.433v-43.194c0-1.234-0.501-2.275-1.504-3.124c-1.002-0.849-2.147-1.273-3.432-1.273h-0.926
					l-0.077-0.771h22.6c1.593,0,3.329-0.154,5.207-0.463c1.876-0.309,3.201-0.617,3.973-0.926V1178.077z"/>
				<path d="M7485.727,1178.077v6.479h-0.771v-1.157c0-1.027-0.36-1.915-1.08-2.661c-0.721-0.744-1.62-1.118-2.699-1.118H7464.9
					v23.834h13.036c1.028-0.05,1.902-0.436,2.623-1.156c0.719-0.72,1.08-1.594,1.08-2.623v-1.157h0.771v12.188h-0.771v-1.157
					c0-1.027-0.347-1.901-1.041-2.622c-0.694-0.72-1.556-1.105-2.584-1.157H7464.9v19.823c0,1.338,0.488,2.481,1.465,3.433
					c0.977,0.952,2.133,1.427,3.471,1.427h1.003v0.771h-16.893v-0.771h1.003c1.336,0,2.48-0.475,3.432-1.427
					c0.951-0.951,1.453-2.095,1.504-3.433v-43.194c0-1.234-0.501-2.275-1.504-3.124c-1.002-0.849-2.147-1.273-3.432-1.273h-0.926
					l-0.077-0.771h22.6c1.593,0,3.329-0.154,5.207-0.463c1.876-0.309,3.201-0.617,3.973-0.926V1178.077z"/>
				<path d="M7502.849,1230.451c1.336,0,2.48-0.475,3.432-1.427c0.951-0.951,1.453-2.095,1.504-3.433v-42.81
					c-0.052-1.336-0.553-2.468-1.504-3.394c-0.952-0.926-2.096-1.389-3.432-1.389h-1.003v-0.771h16.893V1178h-1.003
					c-1.338,0-2.481,0.463-3.433,1.389c-0.952,0.926-1.453,2.058-1.504,3.394v42.81c0,1.338,0.488,2.481,1.465,3.433
					c0.977,0.952,2.133,1.427,3.471,1.427h1.003v0.771h-16.893v-0.771H7502.849z"/>
				<path d="M7540.221,1224.512c-5.117-5.142-7.675-11.917-7.675-20.324c0-8.408,2.558-15.183,7.675-20.325
					c5.116-5.142,11.891-7.713,20.325-7.713c6.89,0,12.984,1.749,18.281,5.245l1.542,10.876h-0.694
					c-1.132-4.422-3.42-7.829-6.865-10.221c-3.445-2.391-7.534-3.587-12.264-3.587c-6.737,0-12.123,2.341-16.159,7.02
					c-4.038,4.68-6.055,10.876-6.055,18.589c0,7.714,1.992,13.923,5.978,18.628c3.984,4.705,9.243,7.135,15.773,7.289
					c5.759,0,10.567-1.567,14.424-4.705c4.165-3.394,6.684-8.921,7.559-16.584h0.617l-0.926,12.11
					c-4.68,7.663-11.905,11.493-21.675,11.493C7551.957,1232.251,7545.337,1229.655,7540.221,1224.512z"/>
				<path d="M7598.341,1230.451c1.336,0,2.48-0.475,3.432-1.427c0.951-0.951,1.453-2.095,1.504-3.433v-42.81
					c-0.052-1.336-0.553-2.468-1.504-3.394c-0.952-0.926-2.096-1.389-3.432-1.389h-1.003v-0.771h16.893V1178h-1.003
					c-1.338,0-2.481,0.463-3.433,1.389c-0.952,0.926-1.453,2.058-1.504,3.394v42.81c0,1.338,0.488,2.481,1.465,3.433
					c0.977,0.952,2.133,1.427,3.471,1.427h1.003v0.771h-16.893v-0.771H7598.341z"/>
				<path d="M7680.179,1230.451h0.617v0.771h-17.355v-0.771h0.694c1.08,0,1.89-0.347,2.43-1.041c0.54-0.694,0.81-1.35,0.81-1.967
					s-0.104-1.234-0.309-1.852l-4.937-13.112h-20.826l-5.168,13.189c-0.206,0.617-0.309,1.223-0.309,1.813
					c0,0.592,0.27,1.234,0.81,1.929c0.54,0.694,1.35,1.041,2.43,1.041h0.694v0.771h-15.504v-0.771h0.694
					c1.285,0,2.545-0.411,3.78-1.234c1.234-0.821,2.237-2.03,3.008-3.625l17.433-41.498c1.901-4.165,2.854-6.813,2.854-7.944h0.694
					l20.672,49.442c0.72,1.595,1.697,2.804,2.931,3.625C7677.557,1230.04,7678.842,1230.451,7680.179,1230.451z M7642.229,1210.165
					h18.975l-9.256-24.76L7642.229,1210.165z"/>
				<path d="M7691.672,1230.451c1.337,0,2.48-0.475,3.433-1.427c0.95-0.951,1.452-2.095,1.504-3.433v-42.732
					c-0.052-1.336-0.554-2.479-1.504-3.432c-0.952-0.951-2.096-1.428-3.433-1.428h-1.003v-0.771h16.893V1178h-1.003
					c-1.852,0-3.267,0.798-4.242,2.392c-0.463,0.771-0.694,1.595-0.694,2.468v45.972h11.03c3.805,0,6.71-0.848,8.716-2.545
					s3.676-4.216,5.014-7.56h0.771l-4.474,12.496h-32.011v-0.771H7691.672z"/>
				<path d="M7837.608,1178h-0.617c-1.903,0-3.574,0.694-5.014,2.083c-0.823,0.721-1.415,1.62-1.774,2.699l-12.804,40.804
					c-1.029,3.24-1.595,6.094-1.697,8.563h-0.694l-15.735-44.121l-11.724,35.559c-0.978,3.189-1.518,6.043-1.62,8.563h-0.694
					l-17.509-49.442c-0.617-1.543-1.569-2.712-2.854-3.51c-1.286-0.797-2.597-1.196-3.934-1.196h-0.617v-0.771h17.124V1178h-0.694
					c-1.08,0-1.89,0.348-2.43,1.042s-0.81,1.35-0.81,1.967s0.077,1.184,0.231,1.697l11.724,37.563l14.347-44.274l0.694,0.077
					l15.195,42.654l10.336-36.098c0.154-0.565,0.231-1.145,0.231-1.736c0-0.59-0.258-1.221-0.771-1.89
					c-0.515-0.667-1.311-1.003-2.391-1.003h-0.694v-0.771h15.195V1178z"/>
				<path d="M7848.561,1230.451c1.337,0,2.48-0.475,3.433-1.427c0.95-0.951,1.452-2.095,1.504-3.433v-43.194
					c-0.154-1.234-0.694-2.275-1.62-3.124s-2.032-1.273-3.316-1.273h-0.926l-0.077-0.771h22.601c1.593,0,3.328-0.154,5.206-0.463
					c1.877-0.309,3.201-0.617,3.973-0.926v9.719h-0.771v-1.389c0-1.234-0.424-2.287-1.272-3.162
					c-0.849-0.874-1.864-1.337-3.047-1.389h-15.735v23.834h13.035c1.028-0.05,1.902-0.436,2.623-1.156c0.72-0.72,1.08-1.62,1.08-2.7
					v-1.08h0.771v12.188h-0.771v-1.157c0-1.027-0.348-1.901-1.042-2.622c-0.693-0.72-1.556-1.105-2.584-1.157h-13.112v23.063h11.03
					c3.805,0,6.71-0.848,8.716-2.545s3.676-4.216,5.014-7.56h0.771l-4.474,12.496h-32.011v-0.771H7848.561z"/>
				<path d="M7943.628,1184.673c5.115,4.963,7.675,11.48,7.675,19.553c0,8.074-2.56,14.592-7.675,19.554
					c-5.118,4.963-11.79,7.443-20.017,7.443h-26.148v-0.771h1.003c1.337,0,2.48-0.475,3.433-1.427
					c0.95-0.951,1.452-2.095,1.504-3.433v-43.194c0-1.234-0.501-2.275-1.504-3.124s-2.148-1.273-3.433-1.273h-0.926l-0.077-0.771
					h26.148C7931.838,1177.23,7938.51,1179.711,7943.628,1184.673z M7908.416,1179.543v49.365h15.195
					c4.319,0,8.138-1.027,11.454-3.085c3.317-2.056,5.888-4.948,7.714-8.678c1.824-3.728,2.738-8.034,2.738-12.92
					c0-7.404-2.02-13.369-6.056-17.895c-4.037-4.524-9.32-6.788-15.851-6.788H7908.416z"/>
				<path d="M8010.504,1184.673c5.115,4.963,7.675,11.48,7.675,19.553c0,8.074-2.56,14.592-7.675,19.554
					c-5.118,4.963-11.79,7.443-20.017,7.443h-26.148v-0.771h1.003c1.337,0,2.48-0.475,3.433-1.427
					c0.95-0.951,1.452-2.095,1.504-3.433v-43.194c0-1.234-0.501-2.275-1.504-3.124s-2.148-1.273-3.433-1.273h-0.926l-0.077-0.771
					h26.148C7998.714,1177.23,8005.386,1179.711,8010.504,1184.673z M7975.292,1179.543v49.365h15.195
					c4.319,0,8.138-1.027,11.454-3.085c3.317-2.056,5.888-4.948,7.714-8.678c1.824-3.728,2.738-8.034,2.738-12.92
					c0-7.404-2.02-13.369-6.056-17.895c-4.037-4.524-9.32-6.788-15.851-6.788H7975.292z"/>
				<path d="M8032.217,1230.451c1.337,0,2.48-0.475,3.433-1.427c0.95-0.951,1.452-2.095,1.504-3.433v-42.81
					c-0.052-1.336-0.554-2.468-1.504-3.394c-0.952-0.926-2.096-1.389-3.433-1.389h-1.003v-0.771h16.893V1178h-1.003
					c-1.338,0-2.481,0.463-3.433,1.389c-0.952,0.926-1.453,2.058-1.504,3.394v42.81c0,1.338,0.488,2.481,1.466,3.433
					c0.976,0.952,2.133,1.427,3.471,1.427h1.003v0.771h-16.893v-0.771H8032.217z"/>
				<path d="M8118.837,1178c-1.286,0-2.391,0.451-3.316,1.351c-0.926,0.9-1.415,1.993-1.466,3.278v39.801
					c0,2.982,0.18,5.812,0.54,8.484l0.154,1.389h-0.694l-42.038-44.892v38.412c0.051,1.801,0.849,3.138,2.392,4.011
					c0.72,0.412,1.491,0.617,2.313,0.617h1.466v0.771h-15.89v-0.771h1.466c1.285,0,2.392-0.449,3.316-1.35
					c0.926-0.899,1.389-2.018,1.389-3.355v-40.032c0-3.136-0.181-5.939-0.54-8.407l-0.154-1.234h0.771l42.038,44.892v-38.258
					c-0.052-1.337-0.54-2.455-1.466-3.355c-0.926-0.899-2.032-1.351-3.316-1.351h-1.466v-0.771h15.89V1178H8118.837z"/>
				<path d="M8140.627,1224.512c-5.117-5.142-7.675-11.903-7.675-20.286c0-8.381,2.558-15.156,7.675-20.324
					c5.116-5.168,11.788-7.752,20.017-7.752c7.096,0,13.344,1.749,18.743,5.245l1.543,10.876h-0.694
					c-1.132-4.422-3.407-7.829-6.826-10.221c-3.421-2.391-7.675-3.587-12.766-3.587c-6.531,0-11.815,2.366-15.852,7.097
					c-4.037,4.731-6.055,10.953-6.055,18.666c0,7.714,2.018,13.923,6.055,18.628c4.036,4.705,9.32,7.084,15.852,7.135
					c3.342,0,6.518-0.59,9.525-1.773c3.009-1.183,5.644-2.828,7.906-4.937v-13.653c0-1.13-0.347-1.992-1.041-2.584
					c-0.694-0.59-1.658-0.887-2.893-0.887h-1.234v-0.771h15.118v0.771h-1.156c-1.286,0-2.264,0.297-2.932,0.887
					c-0.669,0.592-0.978,1.454-0.926,2.584v12.728c-1.338,1.748-2.931,3.316-4.782,4.705c-1.851,1.389-4.333,2.61-7.443,3.664
					c-3.111,1.053-6.492,1.581-10.143,1.581C8152.415,1232.251,8145.743,1229.655,8140.627,1224.512z"/>
			</g>
		</g>
	</g>
	<g display="inline">
		<g>
			<g>
				<path d="M7287.377,515.007h-7.987h-5.178v22.205v8.338h-4.564v-8.338v-22.205h-4.608h-8.426l0.043-1.054h30.72V515.007z"/>
				<path d="M7331.952,513.952v31.597h-4.564v-16.061h-16.852v16.061h-4.564v-31.597h4.564v14.438h16.852v-14.438H7331.952z"/>
				<path d="M7361.039,544.453h9.699v1.097h-18.345v-8.118v-2.195v-1.887v-11.586v-7.812h18.432v1.054h-9.699h-4.213v6.801v0.922
					v5.661h3.204h5.925v1.098h-5.794h-3.335v3.861v0.701v1.186v2.195v7.021H7361.039z"/>
				<path d="M7416.366,518.21c3.16-2.852,6.012-4.258,10.752-4.258c4.739,0,7.679,1.406,10.839,4.214
					c3.204,2.809,4.783,6.67,4.783,11.541c0,4.739-1.536,8.557-4.564,11.455c-3.071,2.94-6.011,4.388-11.014,4.388
					c-4.827,0-7.768-1.448-10.883-4.388c-3.073-2.898-4.652-6.803-4.652-11.63C7411.626,524.837,7413.206,521.063,7416.366,518.21z
					 M7419.701,540.723c1.975,2.457,3.861,3.686,7.768,3.686c3.466,0,5.661-1.229,7.636-3.686c1.974-2.459,2.457-6.1,2.457-10.972
					c0-4.739-0.439-8.382-2.414-10.883c-1.975-2.545-4.3-3.774-8.03-3.774c-3.643,0-5.442,1.229-7.417,3.686
					c-1.931,2.457-2.896,6.1-2.896,10.927C7416.805,534.623,7417.77,538.264,7419.701,540.723z"/>
				<path d="M7462.39,545.55v-7.987v-2.238v-1.887v-11.586v-7.899h18.431v1.054h-9.699h-4.168v6.889v0.922v5.573h3.159h5.969v1.098
					h-5.836h-3.292v3.949v0.747v1.14v2.195v8.031H7462.39z"/>
				<path d="M7499.376,545.55v-7.987v-2.238v-1.887v-11.586v-7.899h18.431v1.054h-9.699h-4.167v6.889v0.922v5.573h3.158h5.969v1.098
					h-5.836h-3.291v3.949v0.747v1.14v2.195v8.031H7499.376z"/>
				<path d="M7540.928,513.952v7.856v15.535v8.207h-4.564v-8.207v-15.535v-7.856H7540.928z"/>
				<path d="M7585.948,540.942c-2.678,3.029-6.1,4.608-10.269,4.608c-4.388,0-7.987-1.404-10.795-4.169
					c-2.765-2.809-4.169-6.495-4.169-11.059c0-3.027,0.614-5.836,1.931-8.513c1.273-2.676,3.072-4.652,5.398-5.923
					c2.28-1.273,4.827-1.932,7.591-1.932c2.282,0,4.344,0.484,6.188,1.406c1.799,0.92,3.16,1.931,4.082,3.027v0.131l-0.878,0.834
					c-0.482-0.747-1.097-1.361-1.712-1.843c-2.106-1.623-4.432-2.413-7.021-2.413c-3.204,0-5.749,1.317-7.635,3.905
					c-1.887,2.59-2.809,6.276-2.809,11.103c0,4.564,1.009,8.074,3.071,10.533c2.063,2.413,4.608,3.641,7.681,3.641
					c1.623,0,3.292-0.395,5.003-1.184c1.404-0.659,2.544-1.668,3.466-3.073L7585.948,540.942z"/>
				<path d="M7609.022,513.952v7.856v15.535v8.207h-4.564v-8.207v-15.535v-7.856H7609.022z"/>
				<path d="M7646.451,533.964h-11.629l-4.433,11.586h-1.667l13.078-31.597h0.921l13.428,31.597h-4.958
					c-1.668-4.082-2.37-5.792-2.37-5.792L7646.451,533.964z M7646.056,532.911l-5.53-13.253l-5.398,13.253H7646.056z"/>
				<path d="M7696.951,544.497v1.053h-21.986v-8.118v-15.536v-7.943h4.564v30.544H7696.951z"/>
				<path d="M7782.208,513.952l-4.124,9.786l-9.172,21.811h-1.406l-7.898-18.212l-7.635,18.212h-1.45l-10.619-24.399l-0.353-0.614
					c-0.175-0.395-0.35-0.922-0.612-1.537c-0.175-0.483-0.397-1.009-0.616-1.361l-1.537-3.686h4.608l2.721,6.012l8.866,20.582
					c5.352-12.77,7.417-17.992,7.417-17.992h1.843l7.723,17.948l7.107-16.939c0.44-1.053,0.791-2.018,1.056-2.765l2.63-6.846
					H7782.208z"/>
				<path d="M7810.147,544.453h9.7v1.097h-18.345v-8.118v-2.195v-1.887v-11.586v-7.812h18.432v1.054h-9.697h-4.214v6.801v0.922
					v5.661h3.202h5.926v1.098h-5.792h-3.336v3.861v0.701v1.186v2.195v7.021H7810.147z"/>
				<path d="M7838.14,513.952c7.198,0,8.691,0,8.691,0c4.605,0,8.248,0.703,10.837,2.151c2.59,1.404,4.521,3.291,5.792,5.748
					c1.274,2.415,1.931,5.178,1.931,8.382c0,2.282-0.35,4.389-1.053,6.276c-0.7,1.887-1.622,3.466-2.853,4.696
					c-1.184,1.272-2.59,2.238-4.211,2.896c-1.581,0.658-3.074,1.053-4.521,1.184c-1.406,0.176-3.424,0.264-6.014,0.264h-8.601
					V513.952z M7847.487,544.497c2.721,0,4.961-0.395,6.714-1.142c1.755-0.745,3.249-2.193,4.389-4.388
					c1.184-2.195,1.799-5.003,1.799-8.382c0-2.677-0.35-5.003-1.053-7.109c-0.659-2.063-1.668-3.73-2.94-5.047
					c-1.274-1.317-2.677-2.195-4.214-2.677c-1.578-0.439-3.555-0.701-5.967-0.701c-1.184,0-2.502,0.044-3.556,0.131v29.315H7847.487
					z"/>
				<path d="M7885.349,513.952c7.198,0,8.691,0,8.691,0c4.605,0,8.248,0.703,10.838,2.151c2.59,1.404,4.521,3.291,5.792,5.748
					c1.274,2.415,1.931,5.178,1.931,8.382c0,2.282-0.35,4.389-1.053,6.276c-0.703,1.887-1.622,3.466-2.852,4.696
					c-1.185,1.272-2.59,2.238-4.211,2.896c-1.581,0.658-3.074,1.053-4.521,1.184c-1.406,0.176-3.424,0.264-6.014,0.264h-8.601
					V513.952z M7894.696,544.497c2.721,0,4.961-0.395,6.714-1.142c1.756-0.745,3.249-2.193,4.389-4.388
					c1.184-2.195,1.8-5.003,1.8-8.382c0-2.677-0.35-5.003-1.053-7.109c-0.659-2.063-1.668-3.73-2.939-5.047
					c-1.275-1.317-2.678-2.195-4.214-2.677c-1.578-0.439-3.555-0.701-5.967-0.701c-1.184,0-2.502,0.044-3.555,0.131v29.315H7894.696
					z"/>
				<path d="M7937.519,513.952v7.856v15.535v8.207h-4.564v-8.207v-15.535v-7.856H7937.519z"/>
				<path d="M7982.407,513.952v5.881v25.716h-0.834l-22.16-29.095v21.416v6.889h-1.009v-6.889v-16.369v-7.549h4.739l17.948,24.006
					v-18.476v-5.53H7982.407z"/>
				<path d="M8025.405,532.077h4.389v5.003c0,1.887-0.79,3.686-2.237,4.871c-1.056,0.922-2.284,1.843-3.118,2.151
					c-2.59,0.965-4.915,1.448-7.107,1.448c-4.346,0-7.988-1.448-10.884-4.3c-2.853-2.852-4.302-6.495-4.302-10.928
					c0-4.344,1.362-8.162,4.127-11.453c2.765-3.291,6.495-4.916,11.191-4.916c4.036,0,7.417,1.45,10.003,4.389v0.131l-1.009,1.053
					c-0.438-0.614-0.921-1.228-1.49-1.711c-1.931-1.843-4.258-2.765-7.023-2.765c-2.896,0-5.352,1.053-7.504,3.204
					c-2.106,2.106-3.203,5.88-3.203,11.322c0,5.397,1.053,9.216,3.115,11.497c2.019,2.238,4.564,3.38,7.636,3.38
					c1.537,0,2.939-0.308,4.214-0.965c1.271-0.615,2.105-1.404,2.546-2.326c0.481-0.922,0.656-2.063,0.656-3.468V532.077z"/>
			</g>
			<g>
				<path d="M7411.573,563.583v0.908h-7.118v6.664h7.118v0.908h-7.118v6.664h7.118v0.908h-8.026v-16.053H7411.573z"/>
				<path d="M7433.941,579.637l5.086-8.821l-4.178-7.232h1.033l3.656,6.347l3.667-6.347h1.033l-4.189,7.232l5.109,8.821h-1.033
					l-4.587-7.924l-4.575,7.924H7433.941z"/>
				<path d="M7468.434,574.074v5.563h-0.908v-16.053h4.212c1.226,0.167,2.267,0.677,3.123,1.533
					c1.021,1.029,1.533,2.263,1.533,3.701c0,1.453-0.511,2.693-1.533,3.718c-1.022,1.026-2.256,1.539-3.701,1.539H7468.434z
					 M7468.434,564.503v8.651h2.725c1.188,0,2.206-0.422,3.054-1.266c0.848-0.844,1.271-1.868,1.271-3.071
					c0-1.196-0.424-2.214-1.271-3.054c-0.848-0.84-1.866-1.26-3.054-1.26H7468.434z"/>
				<path d="M7512.833,565.769c1.608,1.608,2.413,3.548,2.413,5.818c0,2.278-0.804,4.222-2.413,5.83
					c-1.608,1.608-3.551,2.413-5.83,2.413c-2.271,0-4.21-0.804-5.819-2.413c-1.608-1.608-2.412-3.552-2.412-5.83
					c0-2.271,0.804-4.21,2.412-5.818s3.548-2.413,5.819-2.413C7509.281,563.357,7511.224,564.161,7512.833,565.769z
					 M7507.003,564.276c-2.013,0-3.735,0.715-5.166,2.146c-1.431,1.43-2.146,3.153-2.146,5.166c0,2.021,0.715,3.746,2.146,5.177
					c1.431,1.431,3.152,2.146,5.166,2.146c2.021,0,3.747-0.715,5.177-2.146c1.431-1.43,2.146-3.156,2.146-5.177
					c0-2.013-0.715-3.735-2.146-5.166C7510.75,564.991,7509.024,564.276,7507.003,564.276z"/>
				<path d="M7542.495,570.747c-1.144-0.378-2.045-0.899-2.708-1.561c-0.662-0.662-0.994-1.466-0.994-2.413
					c0-0.923,0.332-1.718,0.994-2.384c0.663-0.666,1.467-0.999,2.413-0.999c0.931,0,1.733,0.333,2.407,0.999
					c0.363,0.356,0.617,0.753,0.761,1.192l-0.817,0.318c-0.122-0.325-0.318-0.624-0.591-0.897c-0.485-0.484-1.071-0.726-1.76-0.726
					c-0.688,0-1.277,0.242-1.766,0.726c-0.487,0.485-0.732,1.075-0.732,1.771c0,0.689,0.242,1.279,0.727,1.771
					c0.454,0.447,1.082,0.855,1.884,1.226c1.287,0.416,2.37,1.063,3.248,1.941c0.923,0.923,1.385,2.04,1.385,3.349
					c0,1.317-0.463,2.441-1.391,3.372c-0.927,0.931-2.045,1.396-3.355,1.396c-1.316,0-2.438-0.469-3.36-1.408
					c-0.75-0.742-1.196-1.605-1.34-2.588l0.852-0.307c0.09,0.87,0.461,1.627,1.112,2.271c0.757,0.757,1.668,1.135,2.736,1.135
					s1.979-0.378,2.737-1.135c0.756-0.757,1.134-1.669,1.134-2.736c0-1.06-0.378-1.968-1.134-2.725
					C7544.27,571.671,7543.456,571.141,7542.495,570.747z"/>
				<path d="M7579.338,563.583h0.908v11.535c-0.166,1.226-0.677,2.267-1.533,3.122c-1.022,1.022-2.255,1.533-3.701,1.533
					c-1.453,0-2.691-0.511-3.712-1.533c-1.022-1.022-1.533-2.255-1.533-3.701v-10.956h0.909v10.956c0,1.188,0.423,2.206,1.271,3.054
					c0.847,0.848,1.87,1.271,3.065,1.271c1.195,0,2.215-0.424,3.06-1.271c0.844-0.848,1.266-1.866,1.266-3.054V563.583z"/>
				<path d="M7607.621,574.074h-2.997v5.563h-0.909v-16.053h4.211c1.227,0.167,2.267,0.677,3.123,1.533
					c1.022,1.029,1.533,2.263,1.533,3.701c0,1.453-0.511,2.691-1.533,3.713c-0.711,0.711-1.525,1.177-2.441,1.396l3.702,5.711
					h-1.113L7607.621,574.074z M7604.625,564.503v8.651h2.725c1.188,0,2.206-0.422,3.054-1.266c0.847-0.844,1.271-1.868,1.271-3.071
					c0-1.196-0.424-2.214-1.271-3.054c-0.848-0.84-1.866-1.26-3.054-1.26H7604.625z"/>
				<path d="M7643.556,563.583v0.908h-7.118v6.664h7.118v0.908h-7.118v6.664h7.118v0.908h-8.026v-16.053H7643.556z"/>
				<path d="M7707.763,563.583v16.053h-0.909V564.56l-6.21,8.14l-6.222-8.14v15.077h-0.908v-16.053h1.316l5.813,7.607l5.801-7.607
					H7707.763z"/>
				<path d="M7744.509,565.769c1.608,1.608,2.413,3.548,2.413,5.818c0,2.278-0.804,4.222-2.413,5.83
					c-1.608,1.608-3.552,2.413-5.83,2.413c-2.271,0-4.21-0.804-5.818-2.413c-1.608-1.608-2.413-3.552-2.413-5.83
					c0-2.271,0.804-4.21,2.413-5.818c1.607-1.608,3.547-2.413,5.818-2.413C7740.958,563.357,7742.901,564.161,7744.509,565.769z
					 M7738.679,564.276c-2.013,0-3.735,0.715-5.165,2.146c-1.431,1.43-2.146,3.153-2.146,5.166c0,2.021,0.715,3.746,2.146,5.177
					c1.43,1.431,3.152,2.146,5.165,2.146c2.021,0,3.747-0.715,5.177-2.146c1.431-1.43,2.146-3.156,2.146-5.177
					c0-2.013-0.715-3.735-2.146-5.166C7742.426,564.991,7740.7,564.276,7738.679,564.276z"/>
				<path d="M7783.868,563.583v16.053h-0.909V564.56l-6.21,8.14l-6.222-8.14v15.077h-0.908v-16.053h1.317l5.813,7.607l5.801-7.607
					H7783.868z"/>
				<path d="M7815.146,563.583v0.908h-7.118v6.664h7.118v0.908h-7.118v6.664h7.118v0.908h-8.026v-16.053H7815.146z"/>
				<path d="M7839.729,563.583l10.672,14.952v-14.952h0.909v16.053h-1.396l-10.422-14.6v14.6h-0.908v-16.053H7839.729z"/>
				<path d="M7878.797,564.492v15.145h-0.897v-15.145h-4.064v-0.908h9.025v0.908H7878.797z"/>
			</g>
			<g>
				<polyline points="7891.978,572.208 8029.794,572.208 8029.794,570.978 7891.978,570.978 				"/>
				<polyline points="7256.614,572.208 7394.428,572.208 7394.428,570.978 7256.614,570.978 				"/>
			</g>
		</g>
		<g>
			<g>
				<polygon points="7691.631,371.961 7643.204,455.84 7594.776,371.961 7592.191,371.961 7643.204,460.317 7694.216,371.961 				
					"/>
				<polygon points="7530.498,260.628 7505.645,217.581 7780.763,217.581 7755.91,260.628 7758.495,260.628 7784.64,215.343 
					7501.768,215.343 7527.913,260.628 				"/>
			</g>
			<g>
				<path d="M7561.998,360.387h-27.797v-2.401h8.97v-85.918h-21.479v24.133h-2.4v-26.407h42.707V360.387z M7560.608,360.387v-90.593
					h26.028l-2.274,2.274h-21.353v85.918h8.971v2.401H7560.608z"/>
				<path d="M7656.367,272.068h-7.96l20.469,57.995l20.09-57.995h-8.086v-2.274h31.555v2.274h-20.815l-30.703,88.319h-2.4
					l-17.563-49.656l-17.184,49.656h-2.4l-31.335-88.319h-9.097v-2.274h38.158v2.274h-7.959l20.595,58.121l7.96-22.869
					l-13.267-37.526h29.945V272.068z"/>
				<path d="M7725.24,267.899c6.4,0,12.235,1.453,17.5,4.359c5.264,2.906,9.749,6.633,13.457,11.182
					c3.706,4.548,6.57,9.624,8.592,15.225c2.021,5.603,3.033,11.141,3.033,16.615c0,6.235-1.096,12.214-3.286,17.942
					c-2.191,5.729-5.224,10.803-9.097,15.225c-3.875,4.422-8.509,7.94-13.898,10.551c-5.392,2.61-11.245,3.917-17.563,3.917
					c-6.487,0-12.426-1.349-17.815-4.043c-5.392-2.695-10.025-6.274-13.898-10.74c-3.875-4.464-6.886-9.559-9.034-15.288
					c-2.148-5.727-3.222-11.666-3.222-17.815c0-6.148,1.115-12.066,3.348-17.752c2.231-5.686,5.348-10.718,9.35-15.099
					c4-4.379,8.76-7.853,14.278-10.424C7712.499,269.184,7718.585,267.899,7725.24,267.899z M7745.583,283.945
					c0-1.179,0.02-2.316,0.063-3.411c0.042-1.094,0.063-2.231,0.063-3.412c-3.117-2.357-6.55-4.084-10.297-5.18
					c-3.749-1.093-7.518-1.642-11.308-1.642c-3.96,0-7.771,0.569-11.435,1.706c-3.664,1.137-7.097,2.76-10.297,4.864l-0.253,0.253
					v7.834v68.734c6.906,4.549,14.278,6.823,22.111,6.823c3.791,0,7.455-0.547,10.993-1.642c3.538-1.094,6.991-2.821,10.361-5.18
					V283.945z"/>
			</g>
		</g>
	</g>
	<text transform="matrix(1 0 0 1 4159.7925 496.5096)" display="inline" writing-mode="tb"><tspan x="0" y="0" font-family="'DaunPenh'" font-size="193.5" glyph-orientation-vertical="0">T</tspan><tspan x="0" y="193.5" font-family="'FreestyleScript-Regular'" font-size="193.5" glyph-orientation-vertical="0">W</tspan><tspan x="0" y="387" font-family="'FreestyleScript-Regular'" font-size="193.5" glyph-orientation-vertical="1"> </tspan><tspan x="0" y="435.375" font-family="'DaunPenh'" font-size="193.5" glyph-orientation-vertical="0">O</tspan></text>
	<text transform="matrix(1 0 0 1 4641.5435 1034.8104)" display="inline" font-family="'DaunPenh'" font-size="261.5094">fficial</text>
	<text transform="matrix(1 0 0 1 4502 759.0507)" display="inline" font-family="'DaunPenh'" font-size="261.5094">he</text>
	<path display="inline" d="M4757.939-2.113c3.23,0,7.366-0.022,12.407-0.071c5.037-0.046,10.124-0.071,15.258-0.071
		c5.227,0,10.646-0.023,16.256-0.071c5.608-0.047,11.266-0.071,16.97-0.071c-0.286,3.329-0.548,6.395-0.785,9.198
		c-0.238,2.805-0.427,5.561-0.57,8.271c-0.142,2.709-0.238,5.443-0.285,8.199c-0.048,2.758-0.071,5.753-0.071,8.984l-5.419,0.286
		c-0.855-5.134-1.782-9.459-2.781-12.977c-0.998-3.516-2.449-6.392-4.349-8.628c-1.903-2.232-4.47-3.826-7.701-4.777
		c-3.233-0.949-7.511-1.426-12.833-1.426h-16.257v111.942c0,2.282,0.189,4.185,0.57,5.704c0.379,1.523,1.234,2.781,2.568,3.779
		c1.329,0.999,3.351,1.736,6.06,2.211c2.709,0.477,6.392,0.808,11.052,0.998l-0.286,5.134c-1.996,0-4.255-0.022-6.773-0.071
		c-2.52-0.046-5.111-0.071-7.771-0.071c-2.664,0-5.301-0.022-7.915-0.071c-2.616-0.047-5.063-0.071-7.344-0.071
		c-1.903,0-3.971,0.024-6.203,0.071c-2.235,0.049-4.493,0.071-6.774,0.071c-2.282,0-4.563,0.025-6.845,0.071
		c-2.282,0.049-4.327,0.071-6.131,0.071l-0.427-4.848c4.371-0.285,7.889-0.713,10.552-1.283c2.66-0.57,4.657-1.52,5.99-2.852
		c1.33-1.33,2.21-3.113,2.638-5.348c0.428-2.232,0.642-5.156,0.642-8.77V4.732h-15.828c-5.326,0-9.626,0.477-12.906,1.426
		c-3.28,0.951-5.917,2.545-7.915,4.777c-1.996,2.235-3.518,5.112-4.563,8.628c-1.047,3.518-1.996,7.843-2.852,12.977l-5.418-0.286
		V23.27c0-4.278-0.072-8.364-0.215-12.264c-0.142-3.897-0.452-8.364-0.926-13.405c5.704,0,11.312,0.024,16.826,0.071
		c5.513,0.049,10.838,0.071,15.972,0.071c5.133,0,9.648,0.024,13.547,0.071C4750.998-2.135,4754.61-2.113,4757.939-2.113z"/>
	<path display="inline" d="M4705.938,312.924c3.652-4.786,6.897-9.385,9.732-13.794c1.637-2.582,5.953-9.637,12.944-21.164
		l8.031-13.133c5.92-9.699,9.857-15.904,11.811-18.613c3.212-4.597,6.392-6.897,9.542-6.897c2.268,0,3.401,0.883,3.401,2.646
		c0,1.197-0.441,2.709-1.323,4.535c-0.63,1.261-2.395,5.638-5.291,13.133c-2.898,7.622-5.135,16.125-6.708,25.51
		c-1.134,6.677-1.701,12.377-1.701,17.101c0,1.387,0.079,2.915,0.236,4.583c0.157,1.67,0.393,3.512,0.709,5.527
		c2.518-3.149,5.291-7.684,8.314-13.605c2.896-5.92,7.369-15.337,13.416-28.25c5.731-12.344,12.439-25.163,20.125-38.454
		c6.298-10.96,13.825-22.045,22.581-33.258c4.094-5.291,7.37-7.937,9.826-7.937c1.07,0,2.046,0.536,2.929,1.606
		c0.629,0.756,0.945,1.606,0.945,2.551c0,1.261-1.953,4.379-5.858,9.354c-7.686,9.765-15.023,20.566-22.014,32.408
		c-8,13.732-18.016,33.258-30.046,58.579c-5.354,11.338-9.448,19.401-12.282,24.188c-2.962,4.913-6.363,7.37-10.204,7.37
		c-3.276,0-5.733-1.434-7.37-4.299c-1.639-2.866-2.456-7.134-2.456-12.803c0-9.132,1.512-20.439,4.535-33.919
		c-2.962,3.717-6.425,8.976-10.394,15.778c-2.961,5.041-5.827,9.89-8.598,14.551c-4.032,6.741-6.708,11.276-8.031,13.605
		c-2.017,3.59-4.095,6.425-6.235,8.503c-1.576,1.512-3.434,2.268-5.575,2.268c-2.583,0-4.441-1.103-5.575-3.307
		c-0.819-1.512-1.228-3.371-1.228-5.574c0-14.99,7.873-41.856,23.621-80.594c7.684-18.958,12.156-30.58,13.417-34.864
		c1.134-4.157,2.268-6.803,3.401-7.937c1.512-1.637,3.274-2.456,5.291-2.456c2.771,0,4.157,1.322,4.157,3.968
		c0,3.213-1.197,8.095-3.59,14.645c-2.709,7.433-7.055,17.952-13.039,31.557c-4.095,9.386-6.992,16.409-8.692,21.069
		C4711.008,290.281,4706.756,305.555,4705.938,312.924z"/>
	<path display="inline" d="M4759.793,384.551c9.953,0,19.111,1.575,27.468,4.727c8.357,3.151,15.502,7.651,21.441,13.495
		c5.936,5.845,10.57,12.901,13.905,21.166c3.333,8.267,5,17.515,5,27.743c0,10.138-1.644,19.477-4.932,28.017
		c-3.288,8.541-7.901,15.915-13.837,22.125c-5.938,6.212-13.062,11.052-21.372,14.522c-8.312,3.47-17.536,5.206-27.673,5.206
		c-9.957,0-19.091-1.575-27.4-4.727c-8.313-3.151-15.46-7.648-21.441-13.495c-5.983-5.843-10.642-12.899-13.974-21.166
		c-3.335-8.265-5-17.513-5-27.743c0-10.138,1.644-19.475,4.932-28.017c3.288-8.539,7.898-15.913,13.836-22.125
		c5.936-6.21,13.06-11.05,21.372-14.522C4740.429,386.287,4749.655,384.551,4759.793,384.551z M4758.971,391.949
		c-6.301,0-12.354,1.027-18.152,3.083c-5.802,2.055-10.916,5.366-15.344,9.933c-4.432,4.568-7.97,10.48-10.617,17.741
		c-2.651,7.261-3.974,16.097-3.974,26.509c0,12.24,1.507,22.515,4.521,30.825c3.013,8.312,6.895,15.001,11.645,20.07
		c4.748,5.069,10.069,8.678,15.961,10.823c5.891,2.147,11.758,3.219,17.604,3.219c6.303,0,12.352-1.027,18.152-3.083
		c5.799-2.055,10.914-5.364,15.344-9.933c4.429-4.565,7.967-10.48,10.618-17.741c2.648-7.261,3.973-16.097,3.973-26.509
		c0-12.238-1.507-22.513-4.521-30.825c-3.015-8.309-6.897-15.001-11.645-20.07c-4.75-5.069-10.069-8.676-15.961-10.823
		C4770.685,393.023,4764.814,391.949,4758.971,391.949z"/>
	<text transform="matrix(1 0 0 1 4828.5435 135.6517)" display="inline" font-family="'DaunPenh'" font-size="261.5094">he</text>
	<text transform="matrix(1 0 0 1 4829.5435 521.5507)" display="inline" font-family="'DaunPenh'" font-size="261.5094">fficial</text>
	
		<text transform="matrix(1 0 0 1 4789.082 336.1834)" display="inline" font-family="'FreestyleScript-Regular'" font-size="203.5678">edding</text>
	<text transform="matrix(1 0 0 1 3195.3486 301.2617)" display="inline"><tspan x="0" y="0" font-family="'TimesNewRomanPS-BoldMT'" font-size="77.1337" letter-spacing="1">T</tspan><tspan x="52.99" y="0" font-family="'TimesNewRomanPSMT'" font-size="77.1337" letter-spacing="1">he </tspan></text>
	<g display="inline">
		<text transform="matrix(1 0 0 1 3179.3486 476.6992)"><tspan x="0" y="0" font-family="'TimesNewRomanPS-BoldMT'" font-size="77.1337" letter-spacing="1">O</tspan><tspan x="61.54" y="0" font-family="'TimesNewRomanPSMT'" font-size="77.1337" letter-spacing="1">fficial </tspan></text>
	</g>
	<text transform="matrix(1 0 0 1 3188.042 391.1362)" display="inline" font-family="'Marguerite'" font-size="77.1337">Wedding</text>
</g>
<polygon display="none" points="4390.886,1623.281 4390.886,1627.646 4527.176,1627.646 4527.176,1993.115 4390.886,1993.115 
	4390.886,1997.481 4531.54,1997.479 4531.54,1623.281 "/>
<polygon display="none" points="4388.367,1620.762 4388.367,1623.281 4388.367,1630.165 4524.657,1630.165 4524.657,1990.596 
	4388.367,1990.597 4388.367,2000 4534.059,1999.998 4534.059,1620.762 "/>
<g>
	<g>
		<polygon points="204.797,1220.1 253.333,1220.1 253.333,1234.376 236.917,1234.376 236.917,1320.027 221.214,1320.027 
			221.214,1234.376 204.797,1234.376 		"/>
		<polygon points="308.713,1320.027 293.01,1320.027 293.01,1220.1 308.713,1220.1 308.713,1262.926 326.557,1262.926 
			326.557,1220.1 342.545,1220.1 342.545,1320.027 326.557,1320.027 326.557,1277.202 308.713,1277.202 		"/>
		<polygon points="402.492,1262.213 424.047,1262.213 424.047,1276.488 402.492,1276.488 402.492,1305.752 429.615,1305.752 
			429.615,1320.027 386.789,1320.027 386.789,1220.1 429.615,1220.1 429.615,1234.376 402.492,1234.376 		"/>
		<path d="M525.818,1244.083c0-15.988,8.422-25.124,23.84-25.124c15.417,0,23.839,9.136,23.839,25.124v51.962
			c0,15.988-8.422,25.124-23.839,25.124c-15.418,0-23.84-9.136-23.84-25.124V1244.083z M541.521,1297.044
			c0,7.139,3.141,9.851,8.137,9.851c4.996,0,8.137-2.713,8.137-9.851v-53.959c0-7.139-3.141-9.849-8.137-9.849
			c-4.997,0-8.137,2.711-8.137,9.849V1297.044z"/>
		<polygon points="632.161,1264.497 652.432,1264.497 652.432,1278.771 632.161,1278.771 632.161,1320.027 616.459,1320.027 
			616.459,1220.1 657.999,1220.1 657.999,1234.376 632.161,1234.376 		"/>
		<polygon points="714.094,1264.497 734.364,1264.497 734.364,1278.771 714.094,1278.771 714.094,1320.027 698.391,1320.027 
			698.391,1220.1 739.932,1220.1 739.932,1234.376 714.094,1234.376 		"/>
		<rect x="780.324" y="1220.1" width="15.703" height="99.927"/>
		<path d="M885.811,1282.769v13.275c0,15.988-7.995,25.124-23.412,25.124s-23.411-9.136-23.411-25.124v-51.962
			c0-15.988,7.994-25.124,23.411-25.124s23.412,9.136,23.412,25.124v9.707h-14.846v-10.706c0-7.139-3.141-9.849-8.137-9.849
			c-4.997,0-8.137,2.711-8.137,9.849v53.959c0,7.139,3.141,9.708,8.137,9.708c4.996,0,8.137-2.57,8.137-9.708v-14.274H885.811z"/>
		<rect x="928.2" y="1220.1" width="15.703" height="99.927"/>
		<path d="M1038.969,1320.027h-15.844l-2.712-18.13h-19.272l-2.713,18.13H984.01l15.989-99.927h22.983L1038.969,1320.027z
			 M1003.139,1288.337h15.132l-7.423-50.535h-0.286L1003.139,1288.337z"/>
		<polygon points="1079.076,1220.1 1094.778,1220.1 1094.778,1305.752 1120.615,1305.752 1120.615,1320.027 1079.076,1320.027 		"/>
		<polygon points="1250.223,1266.781 1249.937,1266.781 1244.37,1320.027 1222.814,1320.027 1211.68,1220.1 1226.955,1220.1 
			1235.233,1298.9 1235.52,1298.9 1242.943,1220.1 1258.075,1220.1 1265.782,1299.471 1266.069,1299.471 1274.063,1220.1 
			1287.767,1220.1 1276.632,1320.027 1255.79,1320.027 		"/>
		<polygon points="1344.144,1262.213 1365.7,1262.213 1365.7,1276.488 1344.144,1276.488 1344.144,1305.752 1371.267,1305.752 
			1371.267,1320.027 1328.442,1320.027 1328.442,1220.1 1371.267,1220.1 1371.267,1234.376 1344.144,1234.376 		"/>
		<path d="M1413.799,1220.1h24.839c15.703,0,23.412,8.708,23.412,24.696v50.535c0,15.988-7.709,24.696-23.412,24.696h-24.839V1220.1
			z M1429.502,1234.376v71.376h8.851c4.997,0,7.995-2.57,7.995-9.707v-51.962c0-7.137-2.998-9.707-7.995-9.707H1429.502z"/>
		<path d="M1504.868,1220.1h24.839c15.703,0,23.412,8.708,23.412,24.696v50.535c0,15.988-7.709,24.696-23.412,24.696h-24.839V1220.1
			z M1520.57,1234.376v71.376h8.851c4.997,0,7.995-2.57,7.995-9.707v-51.962c0-7.137-2.998-9.707-7.995-9.707H1520.57z"/>
		<rect x="1595.936" y="1220.1" width="15.703" height="99.927"/>
		<polygon points="1670.16,1247.651 1669.873,1247.651 1669.873,1320.027 1655.741,1320.027 1655.741,1220.1 1675.44,1220.1 
			1691.286,1279.914 1691.573,1279.914 1691.573,1220.1 1705.561,1220.1 1705.561,1320.027 1689.431,1320.027 		"/>
		<path d="M1773.219,1264.354h21.984v31.69c0,15.988-7.995,25.124-23.412,25.124c-15.417,0-23.412-9.136-23.412-25.124v-51.962
			c0-15.988,7.995-25.124,23.412-25.124c15.417,0,23.412,9.136,23.412,25.124v9.707h-14.846v-10.706
			c0-7.139-3.141-9.849-8.137-9.849c-4.995,0-8.136,2.711-8.136,9.849v53.959c0,7.139,3.141,9.708,8.136,9.708
			c4.997,0,8.137-2.57,8.137-9.708v-18.415h-7.137V1264.354z"/>
	</g>
	<g>
		<circle fill="#FF0000" cx="1299.308" cy="833.06" r="13.715"/>
		<g>
			<polygon points="1202.154,787.04 1202.154,789.559 1202.154,796.443 1338.444,796.443 1338.444,1156.874 1202.154,1156.875 
				1202.154,1166.278 1347.846,1166.276 1347.846,787.04 			"/>
			<polygon points="797.846,787.04 797.846,789.559 797.846,796.443 661.556,796.443 661.556,1156.874 797.846,1156.875 
				797.846,1166.278 652.154,1166.276 652.154,787.04 			"/>
		</g>
		<path d="M1138.796,894.603l2.167-1.284c-14.465-24.411-35.117-44.757-59.737-58.852l-0.065-0.05l-0.502-0.34l-0.453-0.306
			l-0.323-0.055l-0.001,0c-22.799-12.768-48.529-19.881-74.738-20.707c6.548-5.636,13.041-11.328,19.513-17.043l11.666-10.415
			l11.637-10.445l23.102-21.067l22.912-21.263l3.349-3.108l-3.223-3.533c-3.468-3.802-6.912-7.626-10.425-11.385l-10.493-11.32
			l-10.493-11.32c-3.509-3.763-6.971-7.57-10.518-11.297l-1.654-1.738l-2.43-0.011l-50.193-0.232l-50.193,0.227l-2.431,0.011
			l-1.657,1.74c-3.548,3.725-7.021,7.522-10.525,11.29l-10.492,11.321c-6.983,7.559-14.027,15.06-20.922,22.702l-3.216,3.565
			l3.343,3.102l22.912,21.263l23.107,21.063l11.638,10.445l11.668,10.414c6.541,5.772,13.104,11.523,19.723,17.214
			c-86.045,4.77-154.574,76.256-154.581,163.472c0.007,90.287,73.446,163.725,163.733,163.732
			c90.287-0.007,163.725-73.445,163.733-163.732c-0.001-29.382-7.873-58.198-22.77-83.34L1138.796,894.603z M1142.788,1037.906
			l0.029-1.045l0,0.005c0.022-0.747,0.046-1.52,0.046-2.315l0-0.04h0c0-18.054-3.479-35.496-10.339-51.803v-0.001
			c0.068-1.702,0.136-3.539,0.136-5.375c-0.001-32.359-11.791-63.523-33.196-87.741c-21.212-24.001-50.302-39.52-81.916-43.693l0,0
			c12.225-3.878,25.074-5.849,38.2-5.852c6.887,0,14.075,0.582,21.351,1.732c11.957,6.851,22.973,15.276,32.741,25.042
			c29.346,29.359,45.49,68.335,45.497,109.839C1155.334,997.928,1151.114,1018.519,1142.788,1037.906z M1132.426,1057.882
			c-6.38,10.378-13.981,20.007-22.587,28.616c-29.359,29.346-68.335,45.49-109.839,45.497c-21.268-0.002-41.86-4.222-61.247-12.548
			l1.047,0.029l-0.005,0c0.746,0.022,1.518,0.046,2.312,0.046c17.534,0.001,34.512-3.293,50.459-9.788h0
			c2.68,0.149,5.126,0.222,7.471,0.222c63.641-0.005,118.418-45.324,130.263-107.778v0l0,0c2.76,10.468,4.163,21.361,4.166,32.375
			C1134.466,1042.174,1133.781,1050.027,1132.426,1057.882L1132.426,1057.882z M857.262,915.297L857.262,915.297L857.262,915.297
			c-0.085,2.144-0.126,3.932-0.125,5.615v-0.022l0,0.057c-0.001,18.108,3.495,35.596,10.391,51.937v0l-0.029,0.828
			c-0.042,1.214-0.084,2.393-0.084,3.621c0.002,30.745,10.756,60.697,30.291,84.367c19.278,23.353,46.12,39.529,75.622,45.563h0.001
			l0,0c-10.099,2.558-20.605,3.859-31.222,3.861l0,0c-7.623,0-15.476-0.686-23.33-2.041c-10.378-6.38-20.007-13.98-28.616-22.586
			c-29.346-29.36-45.49-68.335-45.497-109.839C844.666,955.347,848.903,934.718,857.262,915.297z M867.694,896.812L867.694,896.812
			L867.694,896.812c0.266-0.414,3.696-5.736,8.166-12.055c4.458-6.31,10.007-13.652,14.301-17.938
			c29.359-29.346,68.335-45.49,109.839-45.497c19.226,0.002,37.986,3.475,55.786,10.328h-0.003l-0.025-0.001l-0.036-0.001l-0.031,0
			c-20.412-0.001-39.936,4.412-57.936,13.114l0,0c-62.852,1.073-116.702,46.631-128.098,108.379
			c-2.733-10.416-4.121-21.26-4.124-32.229C865.533,912.971,866.26,904.859,867.694,896.812z M1000.037,1101.558L1000.037,1101.558
			c-33.194-0.007-64.358-12.915-87.841-36.385c-23.47-23.483-36.379-54.646-36.385-87.84c0.006-33.194,12.915-64.358,36.385-87.841
			c23.483-23.47,54.647-36.379,87.841-36.385c33.194,0.006,64.357,12.915,87.841,36.385c23.47,23.483,36.378,54.647,36.385,87.841
			c-0.007,33.194-12.915,64.357-36.385,87.841C1064.395,1088.644,1033.231,1101.552,1000.037,1101.558z M1132.426,1057.882
			L1132.426,1057.882l2.483,0.428L1132.426,1057.882z M973.51,793.52l-10.737-11.371l-10.767-11.34l-21.702-22.507l-18.545-18.892
			c6.187-6.209,12.304-12.484,18.45-18.732l10.806-11.022c3.024-3.095,6.062-6.177,9.067-9.291l47.812,0.216l47.819-0.221
			c3.008,3.111,6.052,6.187,9.072,9.286l10.805,11.023l10.805,11.023c2.527,2.599,5.088,5.165,7.651,7.729l-18.547,18.896
			l-21.707,22.503l-10.767,11.34l-10.738,11.37c-6.03,6.454-12.038,12.93-17.986,19.468c-1.432-0.038-2.865-0.069-4.299-0.069
			c-2.809,0-5.602,0.072-8.377,0.213C985.634,806.549,979.582,800.024,973.51,793.52z"/>
	</g>
</g>
<g display="none">
	<path display="inline" d="M2804.365,2372.082h28.902v8.501h-9.776v51.004h-9.351v-51.004h-9.776V2372.082z"/>
	<path display="inline" d="M2866.244,2431.587h-9.351v-59.505h9.351v25.502h10.626v-25.502h9.521v59.505h-9.521v-25.502h-10.626
		V2431.587z"/>
	<path display="inline" d="M2922.088,2397.159h12.836v8.501h-12.836v17.426h16.151v8.501h-25.502v-59.505h25.502v8.501h-16.151
		V2397.159z"/>
	<path display="inline" d="M2995.527,2386.363c0-9.521,5.015-14.961,14.196-14.961c9.181,0,14.196,5.44,14.196,14.961v30.942
		c0,9.521-5.015,14.961-14.196,14.961c-9.181,0-14.196-5.44-14.196-14.961V2386.363z M3004.878,2417.9
		c0,4.251,1.87,5.866,4.846,5.866c2.975,0,4.845-1.615,4.845-5.866v-32.132c0-4.251-1.87-5.865-4.845-5.865
		c-2.976,0-4.846,1.614-4.846,5.865V2417.9z"/>
	<path display="inline" d="M3058.852,2398.519h12.071v8.5h-12.071v24.567h-9.351v-59.505h24.737v8.501h-15.386V2398.519z"/>
	<path display="inline" d="M3107.642,2398.519h12.071v8.5h-12.071v24.567h-9.351v-59.505h24.737v8.501h-15.386V2398.519z"/>
	<path display="inline" d="M3147.081,2372.082h9.351v59.505h-9.351V2372.082z"/>
	<path display="inline" d="M3209.897,2409.4v7.905c0,9.521-4.761,14.961-13.941,14.961s-13.941-5.44-13.941-14.961v-30.942
		c0-9.521,4.76-14.961,13.941-14.961s13.941,5.44,13.941,14.961v5.78h-8.841v-6.375c0-4.251-1.87-5.865-4.845-5.865
		c-2.976,0-4.846,1.614-4.846,5.865v32.132c0,4.251,1.87,5.781,4.846,5.781c2.975,0,4.845-1.53,4.845-5.781v-8.5H3209.897z"/>
	<path display="inline" d="M3235.138,2372.082h9.351v59.505h-9.351V2372.082z"/>
	<path display="inline" d="M3301.099,2431.587h-9.435l-1.615-10.796h-11.476l-1.615,10.796h-8.585l9.521-59.505h13.686
		L3301.099,2431.587z M3279.763,2412.716h9.011l-4.42-30.093h-0.17L3279.763,2412.716z"/>
	<path display="inline" d="M3324.982,2372.082h9.351v51.004h15.386v8.501h-24.736V2372.082z"/>
	<path display="inline" d="M3426.897,2399.88h-0.17l-3.315,31.707h-12.836l-6.63-59.505h9.096l4.93,46.924h0.171l4.42-46.924h9.011
		l4.59,47.264h0.171l4.76-47.264h8.161l-6.631,59.505h-12.411L3426.897,2399.88z"/>
	<path display="inline" d="M3482.826,2397.159h12.836v8.501h-12.836v17.426h16.151v8.501h-25.502v-59.505h25.502v8.501h-16.151
		V2397.159z"/>
	<path display="inline" d="M3524.304,2372.082h14.791c9.351,0,13.941,5.186,13.941,14.706v30.093
		c0,9.521-4.591,14.706-13.941,14.706h-14.791V2372.082z M3533.655,2380.583v42.503h5.271c2.976,0,4.761-1.53,4.761-5.78v-30.942
		c0-4.25-1.785-5.78-4.761-5.78H3533.655z"/>
	<path display="inline" d="M3578.534,2372.082h14.791c9.351,0,13.941,5.186,13.941,14.706v30.093
		c0,9.521-4.591,14.706-13.941,14.706h-14.791V2372.082z M3587.885,2380.583v42.503h5.271c2.976,0,4.761-1.53,4.761-5.78v-30.942
		c0-4.25-1.785-5.78-4.761-5.78H3587.885z"/>
	<path display="inline" d="M3632.763,2372.082h9.351v59.505h-9.351V2372.082z"/>
	<path display="inline" d="M3676.963,2388.488h-0.171v43.099h-8.415v-59.505h11.73l9.436,35.618h0.171v-35.618h8.33v59.505h-9.605
		L3676.963,2388.488z"/>
	<path display="inline" d="M3738.333,2398.434h13.091v18.871c0,9.521-4.761,14.961-13.941,14.961s-13.941-5.44-13.941-14.961
		v-30.942c0-9.521,4.761-14.961,13.941-14.961s13.941,5.44,13.941,14.961v5.78h-8.841v-6.375c0-4.251-1.87-5.865-4.846-5.865
		c-2.975,0-4.845,1.614-4.845,5.865v32.132c0,4.251,1.87,5.781,4.845,5.781c2.976,0,4.846-1.53,4.846-5.781v-10.966h-4.25V2398.434z
		"/>
</g>
<circle display="none" fill="#FF0000" cx="3456.453" cy="2142.606" r="6.016"/>
<g display="none">
	<path display="inline" d="M3331.256,2077.934c-2.065-2.264-4.116-4.542-6.208-6.78l-6.249-6.741l-6.249-6.741
		c-2.089-2.241-4.151-4.508-6.263-6.727l-0.985-1.035l-1.447-0.007l-29.889-0.138l-29.889,0.135l-1.448,0.007l-0.987,1.036
		c-2.113,2.218-4.181,4.479-6.267,6.723l-6.248,6.741c-4.158,4.501-8.353,8.968-12.458,13.519l-1.915,2.123l1.99,1.847
		l13.644,12.662l13.76,12.542l6.93,6.22l6.948,6.201c4.656,4.109,9.317,8.214,14.052,12.242c-4.16-4.62-8.393-9.164-12.631-13.703
		l-6.393-6.771l-6.412-6.753l-12.923-13.403l-11.043-11.25c3.684-3.697,7.327-7.434,10.987-11.154l6.435-6.563
		c1.801-1.843,3.61-3.679,5.399-5.533l28.471,0.129l28.475-0.132c1.791,1.853,3.604,3.685,5.402,5.53l6.434,6.564l6.434,6.564
		c1.505,1.547,3.03,3.075,4.556,4.603l-11.044,11.252l-12.926,13.4l-6.412,6.753l-6.395,6.77c-4.24,4.538-8.474,9.081-12.635,13.698
		c4.733-4.03,9.393-8.136,14.048-12.247l6.947-6.202l6.93-6.22l13.757-12.545l13.644-12.661l1.994-1.851L3331.256,2077.934z"/>
</g>
<g display="none">
	<polygon display="inline" stroke="#000000" stroke-width="3" stroke-miterlimit="10" points="3072.511,2338.23 3150.619,2338.23 
		3150.619,2336.232 3075.11,2336.232 3074.51,2336.232 3074.51,2335.632 3074.51,2118.601 3074.51,2118.001 3075.11,2118.001 
		3150.619,2118.001 3150.619,2116.002 3072.511,2116.002 	"/>
	<polygon display="inline" stroke="#000000" stroke-width="3" stroke-miterlimit="10" points="3399.52,2115.702 3399.52,2118.301 
		3480.678,2118.301 3480.678,2335.932 3399.52,2335.932 3399.52,2338.531 3483.277,2338.531 3483.277,2115.702 	"/>
</g>
<g display="none">
	<path display="inline" stroke="#000000" stroke-width="3" stroke-miterlimit="10" d="M3357.871,2178.254
		c-8.48-14.312-20.593-26.245-35.027-34.508l-0.092-0.052l-0.083-0.065l-0.258-0.174l-0.127-0.021l-0.227-0.127
		c-14.237-7.974-30.433-12.188-46.836-12.189c-52.933,0.001-95.998,43.067-96,96c0.002,52.933,43.067,95.998,96,96
		c52.933-0.001,95.998-43.067,96-96C3371.22,2209.888,3366.604,2192.992,3357.871,2178.254z M3194.958,2179.306l0.053-0.295
		l0.162-0.252c0.333-0.518,8.207-12.736,13.58-18.11c17.757-17.753,41.363-27.531,66.468-27.532
		c11.63,0.001,22.988,2.104,33.759,6.25l7.532,2.9h-8.072h-0.023l-0.034-0.001c-11.94,0-23.332,2.577-33.847,7.659l-0.297,0.144
		l-0.33,0.006c-36.709,0.623-68.18,27.249-74.831,63.31l-1.219,6.613l-1.707-6.504c-1.66-6.329-2.503-12.914-2.505-19.573
		C3193.647,2189.1,3194.088,2184.183,3194.958,2179.306z M3275.242,2152.043c20.157,0.001,39.11,7.852,53.368,22.106
		c14.254,14.258,22.105,33.211,22.106,53.368c-0.001,20.157-7.852,39.11-22.106,53.368c-14.258,14.254-33.211,22.105-53.368,22.106
		h0c-20.157-0.001-39.11-7.852-53.368-22.106c-14.254-14.258-22.105-33.211-22.106-53.368c0.001-20.157,7.852-39.11,22.106-53.368
		C3236.132,2159.896,3255.085,2152.045,3275.242,2152.043z M3226.313,2307.403l-0.246-0.151c-6.28-3.861-12.106-8.459-17.315-13.667
		c-17.753-17.757-27.531-41.363-27.532-66.468c0.001-12.889,2.566-25.383,7.624-37.133l3.198-7.428l-0.321,8.081
		c-0.05,1.263-0.074,2.306-0.074,3.284c-0.003,10.598,2.04,20.814,6.07,30.365l0.128,0.303l-0.011,0.329l-0.017,0.495
		c-0.025,0.724-0.049,1.408-0.049,2.105c0.001,17.958,6.285,35.46,17.695,49.284c11.26,13.642,26.948,23.095,44.176,26.618
		l6.423,1.313l-6.355,1.61c-6.136,1.555-12.516,2.344-18.96,2.345h0c-4.63,0-9.39-0.416-14.148-1.237L3226.313,2307.403z
		 M3355.556,2275.739l-0.049,0.285l-0.151,0.246c-3.861,6.28-8.459,12.105-13.667,17.315
		c-17.758,17.753-41.363,27.531-66.468,27.532c-12.864-0.001-25.334-2.556-37.064-7.594l-7.13-3.063l7.758,0.185l0.629,0.018
		c0.445,0.013,0.89,0.027,1.333,0.027c10.253,0,20.165-1.924,29.482-5.718l0.312-0.127l0.337,0.019
		c1.573,0.087,3.001,0.13,4.366,0.13c37.176-0.001,69.179-26.48,76.096-62.96l1.235-6.511l1.689,6.408
		c1.677,6.361,2.528,12.976,2.53,19.661C3356.792,2266.22,3356.376,2270.98,3355.556,2275.739z M3358.563,2271.311l0.185-7.758
		l0.017-0.628c0.013-0.445,0.027-0.891,0.027-1.333c0.003-10.567-2.03-20.758-6.04-30.29l-0.129-0.308l0.013-0.333
		c0.04-1.01,0.08-2.085,0.08-3.142c-0.001-18.904-6.887-37.107-19.391-51.255c-12.393-14.022-29.387-23.087-47.852-25.525
		l-6.674-0.881l6.417-2.036c7.429-2.357,15.235-3.553,23.2-3.555c4.186,0,8.542,0.354,12.949,1.05l0.272,0.043l0.239,0.137
		c7.236,4.146,13.901,9.244,19.812,15.153c17.753,17.758,27.531,41.363,27.532,66.468c-0.001,12.864-2.556,25.334-7.594,37.064
		L3358.563,2271.311z"/>
</g>
<ellipse display="none" fill="none" stroke="#000000" stroke-miterlimit="10" cx="3317.937" cy="2338.094" rx="732.815" ry="422.915"/>
</svg>
