<svg height="1000" viewBox="0 0 1000 1000" width="1000" xmlns="http://www.w3.org/2000/svg" xmlns:xlink="http://www.w3.org/1999/xlink"><defs><linearGradient id="a" x1="50%" x2="50%" y1="0%" y2="100%"><stop offset="0" stop-color="#007aff"/><stop offset="1" stop-color="#005dc2"/></linearGradient><circle id="b" cx="20" cy="20" r="20"/><filter id="c" height="117.5%" width="117.5%" x="-8.8%" y="-6.2%"><feOffset dy="1" in="SourceAlpha" result="shadowOffsetOuter1"/><feGaussianBlur in="shadowOffsetOuter1" result="shadowBlurOuter1" stdDeviation="1"/><feColorMatrix in="shadowBlurOuter1" values="0 0 0 0 0 0 0 0 0 0 0 0 0 0 0 0 0 0 0.05 0"/></filter><filter id="d" height="115%" width="115%" x="-7.5%" y="-5%"><feGaussianBlur in="SourceAlpha" result="shadowBlurInner1" stdDeviation=".5"/><feOffset dy="-1" in="shadowBlurInner1" result="shadowOffsetInner1"/><feComposite in="shadowOffsetInner1" in2="SourceAlpha" k2="-1" k3="1" operator="arithmetic" result="shadowInnerInner1"/><feColorMatrix in="shadowInnerInner1" values="0 0 0 0 0.533333333 0 0 0 0 0.607843137 0 0 0 0 0.682352941 0 0 0 0.1 0"/></filter><linearGradient id="e" x1="50%" x2="50%" y1="0%" y2="100%"><stop offset="0" stop-color="#0076f7"/><stop offset="1" stop-color="#0065d3"/></linearGradient></defs><g fill="none" fill-rule="evenodd"><path d="m25.7022 6.1701c.7686.4359.7686 1.147 0 1.5808l-10.3492 5.8439c-.7687.436-2.0288.436-2.7968 0l-10.3492-5.8439c-.7705-.4338-.7705-1.1449 0-1.5808l10.3492-5.8443c.768-.4344 2.0281-.4344 2.7968 0zm.807 2.9491c.7687-.4341 1.3987-.0781 1.3987.7901v11.69c0 .8694-.63 1.9374-1.3987 2.3697l-2.4483 1.3816-1.2539 3.227c-.229.8379-.9321 1.022-1.5603.4068l-1.3263-1.2968-3.7604 2.1275c-.7674.4335-1.3987.0787-1.3987-.7919v-11.6898c0-.8682.6313-1.9359 1.3987-2.3697zm-14.7607 5.8445c.7687.4338 1.4 1.5015 1.4 2.3697v11.6898c0 .8706-.6313 1.2254-1.4.7919l-10.3492-5.8461c-.7687-.4323-1.3993-1.5003-1.3993-2.3697v-11.69c0-.8682.6306-1.2242 1.3993-.7901zm-.7315 10.9936c-.1077.1816-.3039.2845-.5063.2845-.0984 0-.1993-.0254-.2909-.0751l-7.9194-4.4717c-.2772-.1586-.3738-.5074-.2135-.7798.1615-.2737.5187-.3657.7984-.2095l7.9182 4.4718c.2785.1574.3744.5061.2135.7798zm0-3.8978c-.1077.1828-.3039.2833-.5063.2833-.0984 0-.1993-.023-.2909-.0751l-7.9194-4.4717c-.2772-.1574-.3738-.5074-.2135-.7798.1615-.2725.5187-.3663.7984-.2083l7.9182 4.4718c.2785.1562.3744.5049.2135.7798zm0-3.9971c-.1077.1834-.3039.2857-.5063.2857-.0984 0-.1993-.0254-.2909-.0769l-7.9194-4.4717c-.2772-.1568-.3738-.5065-.2135-.7792.1615-.2728.5187-.3666.7984-.2086l7.9182 4.4709c.2785.158.3744.5073.2135.7798zm27.833.0976c0 .7626705.2199978 1.3786643.66 1.848s1.055996.704 1.848.704c.5866696 0 1.0669981-.0806659 1.441-.242s.758998-.439998 1.155-.836l1.738 1.694c-.6306698.6306698-1.2649968 1.0889986-1.903 1.375s-1.4556617.429-2.453.429c-1.5693412 0-2.8453284-.4399956-3.828-1.32s-1.474-2.3979892-1.474-4.554c0-1.8333425.4546621-3.2669948 1.364-4.301s2.1193258-1.551 3.63-1.551c1.5546744 0 2.7756622.5096616 3.663 1.529s1.331 2.3356586 1.331 3.949v1.276zm4.092-3.19c-.1613341-.3666685-.4033317-.6563323-.726-.869s-.7186643-.319-1.188-.319-.8653317.1063323-1.188.319-.5683325.516998-.737.913-.253.791998-.253 1.188h4.356c0-.396002-.0879991-.8066645-.264-1.232zm10.17 8.03h-2.244l-4.224-11.462h3.014l2.332 7.084 2.31-7.084h3.014zm7.64-4.84c0 .7626705.2199978 1.3786643.66 1.848s1.055996.704 1.848.704c.5866696 0 1.0669981-.0806659 1.441-.242s.758998-.439998 1.155-.836l1.738 1.694c-.6306698.6306698-1.2649968 1.0889986-1.903 1.375s-1.4556617.429-2.453.429c-1.5693412 0-2.8453284-.4399956-3.828-1.32s-1.474-2.3979892-1.474-4.554c0-1.8333425.4546621-3.2669948 1.364-4.301s2.1193258-1.551 3.63-1.551c1.5546744 0 2.7756622.5096616 3.663 1.529s1.331 2.3356586 1.331 3.949v1.276zm4.092-3.19c-.1613341-.3666685-.4033317-.6563323-.726-.869s-.7186643-.319-1.188-.319-.8653317.1063323-1.188.319-.5683325.516998-.737.913-.253.791998-.253 1.188h4.356c0-.396002-.0879991-.8066645-.264-1.232zm11.446-.308c-.2346678-.2346678-.4619989-.4069994-.682-.517-.2200011-.1100005-.498665-.165-.836-.165-.4986692 0-.9313315.1796649-1.298.539s-.55.8836632-.55 1.573v6.908h-2.86v-11.462h2.794v1.1c.2786681-.337335.6819974-.6269988 1.21-.869s1.0853304-.363 1.672-.363c.5720029 0 1.0669979.0806659 1.485.242s.824998.439998 1.221.836zm7.838 8.47c-1.3786736 0-2.5776616-.4509955-3.597-1.353s-1.529-2.4089894-1.529-4.521.5059949-3.6153289 1.518-4.51 2.2146597-1.342 3.608-1.342c1.5400077 0 2.8013284.5133282 3.784 1.54l-1.936 1.936c-.2933348-.3226683-.5829986-.553666-.869-.693s-.6123315-.209-.979-.209c-.67467 0-1.2209979.2566641-1.639.77s-.627 1.3493275-.627 2.508c0 1.1733392.2089979 2.0166641.627 2.53s.96433.77 1.639.77 1.2906639-.3006637 1.848-.902l1.936 1.914c-.9973383 1.0413385-2.258659 1.562-3.784 1.562zm12.084-.132v-6.996c0-.7040035-.1833315-1.2173317-.55-1.54s-.8066641-.484-1.32-.484-.9496649.1613317-1.309.484-.539.8359965-.539 1.54v6.996h-2.86v-15.664h2.86v5.258c.7773372-.792004 1.6939947-1.188 2.75-1.188 1.2320062 0 2.1779967.3813295 2.838 1.144s.99 1.7746604.99 3.036v7.414zm11.666-8.338c-.234668-.2346678-.461999-.4069994-.682-.517-.220001-.1100005-.498665-.165-.836-.165-.498669 0-.931332.1796649-1.298.539-.366669.3593351-.55.8836632-.55 1.573v6.908h-2.86v-11.462h2.794v1.1c.278668-.337335.681997-.6269988 1.21-.869s1.08533-.363 1.672-.363c.572003 0 1.066998.0806659 1.485.242s.824998.439998 1.221.836zm11.204 7.062c-.396002.4253355-.88733.766332-1.474 1.023s-1.283329.385-2.09.385c-.792004 0-1.48133-.128332-2.068-.385s-1.103664-.6196643-1.551-1.089-.762666-1.0449966-.946-1.727-.275-1.5729945-.275-2.673c0-1.129339.087999-2.0166634.264-2.662s.491331-1.2099976.946-1.694.971664-.854332 1.551-1.111 1.272329-.385 2.079-.385c.792004 0 1.484997.128332 2.079.385s1.114664.6196643 1.562 1.089.762666 1.0449966.946 1.727.275 1.5656612.275 2.651c0 1.1440057-.087999 2.0386634-.264 2.684s-.520664 1.2393306-1.034 1.782zm-2.222-7.238c-.337335-.337335-.784664-.506-1.342-.506-.542669 0-.964332.1503318-1.265.451s-.495.6746644-.583 1.122-.132 1.0156632-.132 1.705c0 .9240046.051333 1.5619982.154 1.914s.296999.6709986.583.957.700331.429 1.243.429c.557336 0 .986332-.1503318 1.287-.451s.495-.6746644.583-1.122.132-1.0229965.132-1.727c0-.7480037-.036666-1.3236647-.11-1.727-.073334-.4033354-.256665-.7516652-.55-1.045zm12.414 8.514v-6.93c0-.7186703-.183331-1.246665-.55-1.584-.366668-.337335-.813997-.506-1.342-.506-.542669 0-.997331.1649984-1.364.495-.366668.3300017-.55.861663-.55 1.595v6.93h-2.86v-11.462h2.794v1.056c.748004-.792004 1.701328-1.188 2.86-1.188.557336 0 1.066998.0879991 1.529.264s.879998.4509981 1.254.825.648999.828664.825 1.364.264 1.14033.264 1.815v7.326z" fill="#0074fb" opacity=".9"/><path d="m2.14771945 46.1468709c-.19526214.1952621-.19526214.5118446 0 .7071068.19526215.1952621.51184464.1952621.70710679 0l3.99915143-3.9991515c.19526215-.1952621.19526215-.5118446 0-.7071067l-4.00084856-4.0008486c-.19526215-.1952622-.51184464-.1952622-.70710678 0-.19526215.1952621-.19526215.5118446 0 .7071068l3.64729517 3.6472951z" fill="#2f2f4f" fill-rule="nonzero" transform="matrix(0 1 -1 0 47 38)"/><g transform="translate(10 61)"><path d="m12.3609394 40c-4.53646474 0-7.14462296 0-9.75278118-2.6081582-2.60815824-2.6081582-2.60815822-5.2163165-2.60815822-9.7527812v-15.2781212c0-4.53646474-.00000002-7.14462298 2.60815822-9.75278118 2.60815822-2.60815822 5.21631644-2.60815822 9.75278118-2.60815822h15.2781212c4.5364647 0 7.144623 0 9.7527812 2.60815822 2.6081582 2.6081582 2.6081582 5.21631644 2.6081582 9.75278118v15.2781212c0 4.5364647 0 7.144623-2.6081582 9.7527812s-5.2163165 2.6081582-9.7527812 2.6081582z" fill="url(#a)"/><path d="m21.1125214 5.14175-8.5011285-4.87025c-.6314322-.362-1.6665143-.362-2.2973715 0l-8.50112854 4.87025c-.63291072.36325-.63291072.95583333 0 1.31733333l8.50112854 4.86991667c.6308572.3633333 1.6659393.3633333 2.2973715 0l8.5011285-4.86991667c.63135-.3615.63135-.95408333 0-1.31733333zm.6628929 2.45758333-8.5011286 4.87041667c-.6303643.3615-1.1489321 1.25125-1.1489321 1.97475v9.7415c0 .7255.5185678 1.0211667 1.1489321.6599167l3.0889-1.7729167 1.0894607 1.0806667c.5160215.5126666 1.0935679.35925 1.281675-.339l1.0299893-2.6891667 2.0111036-1.1513333c.6314321-.36025 1.1489321-1.25025 1.1489321-1.97475v-9.7416667c0-.7235-.5175-1.02016667-1.1489321-.65841667zm-12.12486073 4.87041667-8.50112857-4.87041667c-.63143214-.36175-1.149425-.06508333-1.149425.65841667v9.7416667c0 .7245.51799286 1.6145 1.149425 1.97475l8.50112857 4.87175c.63143213.36125 1.15000003.0655833 1.15000003-.6599167v-9.7415c0-.7235-.5185679-1.61325-1.15000003-1.97475zm-.600875 9.1613333c-.08846786.1513334-.24963214.2370834-.41588928.2370834-.08082858 0-.16371072-.0211667-.23895358-.0625834l-6.50522142-3.7264166c-.2277-.1321667-.30705-.4228334-.175375-.6498334.13266071-.2280833.426075-.30475.65582857-.1745833l6.50423571 3.7265c.22876786.1311667.30754286.42175.175375.6498333zm0-3.2481666c-.08846786.1523333-.24963214.2360833-.41588928.2360833-.08082858 0-.16371072-.0191667-.23895358-.0625833l-6.50522142-3.7264167c-.2277-.1311667-.30705-.4228333-.175375-.6498333.13266071-.2270834.426075-.30525.65582857-.1735834l6.50423571 3.7265c.22876786.1301667.30754286.42075.175375.6498334zm0-3.3309167c-.08846786.1528333-.24963214.2380833-.41588928.2380833-.08082858 0-.16371072-.0211666-.23895358-.0640833l-6.50522142-3.7264167c-.2277-.1306666-.30705-.4220833-.175375-.6493333.13266071-.2273333.426075-.3055.65582857-.1738333l6.50423571 3.72575c.22876786.1316666.30754286.42275.175375.6498333z" fill="#fff" transform="translate(9 8)"/></g><g transform="translate(10 121)"><use fill="#000" filter="url(#c)" xlink:href="#b"/><use fill="#fff" xlink:href="#b"/><use fill="#000" filter="url(#d)" xlink:href="#b"/><g transform="translate(8.036 6.875)"><path d="m21.9718655 5.27459157c.6570479.37263487.6570479.98052811 0 1.35136778l-8.8471505 4.99573515c-.6571333.3727204-1.7343465.3727204-2.3908814 0l-8.84715047-4.99573515c-.65867211-.37083967-.65867211-.97873291 0-1.35136778l8.84715047-4.99607713c.6565349-.37135259 1.7337481-.37135259 2.3908814 0zm-8.0751011 7.58491183 8.3032914-4.89764165c.6571334-.37109613 1.1956972-.06676482 1.1956972.67542743v9.99335102c0 .7432181-.5385638 1.656212-1.1956972 2.0257694l-1.6312773 1.014886-1.071913 2.7586436c-.1957637.7162899-.796818.8736702-1.3338431.3477584l-1.1338051-1.1085867-3.1324529 1.8863081c-.656022.3705832-1.1956972.0672778-1.1956972-.6769662v-9.99318c0-.7421923.5396752-1.6549298 1.1956972-2.0257694zm-12.15263298-4.74105045 8.29922918 4.67346385c.6571333.3708397 1.1968085 1.2835771 1.1968085 2.0257694v9.9931801c0 .7442439-.5396752 1.0475494-1.1968085.6769661l-8.29922918-4.6748316c-.65713336-.3695573-1.1962101-1.2825513-1.1962101-2.0257694v-9.99335102c0-.74219225.53907674-1.04652355 1.1962101-.67542743z" fill="url(#e)"/><path d="m9.37338526 22.1899411c-.09206877.1552432-.25979293.2432086-.43281725.2432086-.08411854 0-.17037424-.0217135-.24867971-.0642002l-6.7700038-3.8226919c-.23696809-.1355813-.31954787-.4337576-.1825133-.6666223.13806041-.2339761.44341755-.3126235.6825228-.1790939l6.76897796 3.8227774c.23807941.1345554.32006079.4326462.1825133.6666223zm0-3.3320859c-.09206877.156269-.25979293.2421828-.43281725.2421828-.08411854 0-.17037424-.0196619-.24867971-.0642002l-6.7700038-3.8226919c-.23696809-.1345555-.31954787-.4337576-.1825133-.6666223.13806041-.2329503.44341755-.3131364.6825228-.1780681l6.76897796 3.8227774c.23807941.1335296.32006079.4316204.1825133.6666223zm0-3.4169737c-.09206877.1567819-.25979293.2442344-.43281725.2442344-.08411854 0-.17037424-.0217135-.24867971-.065739l-6.7700038-3.8226919c-.23696809-.1340425-.31954787-.4329882-.1825133-.6661094.13806041-.2332067.44341755-.3133928.6825228-.1783245l6.76897796 3.822008c.23807941.1350684.32006079.4336721.1825133.6666224z" fill="#fff"/></g></g><path d="m0 180h20v20h-20zm5.92835215 16v-9.519943h-2.83064246v9.519943zm-1.41532123-13.666667c-.91250974 0-1.50843447.64245-1.48981182 1.499051-.01862265.817663.57730208 1.479582 1.47118917 1.479582.93113239 0 1.52705712-.661919 1.52705712-1.479582-.01862265-.856601-.59592473-1.499051-1.50843447-1.499051zm3.68728426 13.666667h2.83064242v-5.490028c0-.272555.0372453-.564578.1117359-.739792.1862265-.545109.6517927-1.109686 1.4339439-1.109686 1.0242456 0 1.4339439.837132 1.4339439 2.063628v5.275878h2.8306424v-5.645774c0-2.803419-1.3966985-4.088319-3.2589633-4.088319-1.5084345 0-2.4395669.915005-2.8120198 1.518518h-.055868l-.1303585-1.304368h-2.45818951c.03724529.837132.07449059 1.849478.07449059 3.037037zm85.24821812 4v-8.546364h2.3828l.322-2.964181h-2.7048v-1.341455c0-.411091.0429334-.714.1502667-.887091.1502667-.259636.4508-.389454.9230667-.389454h1.5885333v-2.942546h-2.6618667c-.5366666 0-1.0518666.064909-1.6529333.302909-1.2236.497637-1.8461333 1.666-1.8461333 3.483455v1.774182h-1.7173334v2.964181h1.7173334v8.546364h-9.9494667v-20h20v20zm-53.4485333-20h20v20h-20zm6.099504 6.753952c-2.4808597-1.258272-3.0830102-2.395177-3.0830102-2.395177s-.3853762.67753-.2167741 1.935802c.1686022 1.258271 1.3535931 2.877215 1.3535931 2.877215l-1.4258512-.57845s.072258.798518.6262365 1.621234c.5539784.822716 2.5049457 1.863209 2.5049457 1.863209l-1.8546233.024198s.1686022.38716.8430106 1.040494c.6744085.653333 2.5531178 1.234073 2.5531178 1.234073s-1.3212987.929575-2.2399995 1.282469c-.9187009.352895-2.3604297.435556-2.3604297.435556s2.146925 1.342044 5.4434398 1.016296c3.2965149-.325749 5.565809-1.873503 7.3221492-4.452345 1.7563399-2.578842 1.5896771-5.928394 1.5896771-5.928394s.1922866-.222075.6588327-.651942.610226-.640917.610226-.640917l-1.165734.12414.7570446-1.357538s-.4620776.211008-.7813311.329172c-.3192536.118164-.7477255.236329-.7477255.236329s-1.6906133-2.080609-4.147387-.846535c-2.4567739 1.234074-1.6619352 4.016789-1.6619352 4.016789s-2.0966125.072593-4.5774723-1.185678z" fill="#2f2f4f"/><path d="m8 237.498 3.502 3.502 4.616-9" stroke="#fff" stroke-linecap="round" stroke-linejoin="round" stroke-width="2"/><path d="m7.44268295 291.627178 5.50953975-5.50954c.1952621-.195262.5118446-.195262.7071067 0 .1952622.195262.1952622.511845 0 .707107l-5.50953967 5.50954 5.50953967 5.509539c.1952622.195262.1952622.511845 0 .707107-.1952621.195262-.5118446.195262-.7071067 0l-5.50953975-5.50954-5.50953972 5.50954c-.19526214.195262-.51184463.195262-.70710678 0-.19526214-.195262-.19526214-.511845 0-.707107l5.50953971-5.509539-5.50953971-5.50954c-.19526214-.195262-.19526214-.511845 0-.707107.19526215-.195262.51184464-.195262.70710678 0z" fill="#fff" fill-rule="nonzero"/><g fill="#242432"><rect height="1" rx=".5" width="14" y="335"/><rect height="1" rx=".5" width="10" y="340"/><rect height="1" rx=".5" width="14" y="345"/><path d="m6.5 359.792893 3.8890873-3.889087c.1952621-.195262.5118446-.195262.7071068 0 .1952621.195262.1952621.511845 0 .707107l-3.88908732 3.889087 3.88908732 3.889087c.1952621.195262.1952621.511845 0 .707107-.1952622.195262-.5118447.195262-.7071068 0l-3.8890873-3.889087-3.8890873 3.889087c-.19526214.195262-.51184463.195262-.70710678 0-.19526214-.195262-.19526214-.511845 0-.707107l3.8890873-3.889087-3.8890873-3.889087c-.19526214-.195262-.19526214-.511845 0-.707107.19526215-.195262.51184464-.195262.70710678 0z"/></g></g></svg>