<svg xmlns="http://www.w3.org/2000/svg" width="1175" height="471"><g transform="translate(-0.5 8.5)"><path d="M 0.5 430 L 27 384.5" fill="transparent" stroke="hsl(0, 0%, 100%)"></path><path d="M 27 384.5 L 56.5 333" fill="transparent" stroke="hsl(0, 0%, 100%)"></path><path d="M 49 425.5 L 102.5 413.5" fill="transparent" stroke="hsl(0, 0%, 100%)"></path><path d="M 127 456 L 56.5 333" fill="transparent" stroke="hsl(0, 0%, 100%)"></path><path d="M 127 456 L 155.5 401.5" fill="transparent" stroke="hsl(0, 0%, 100%)"></path><path d="M 155.5 401.5 L 208.5 389.5" fill="transparent" stroke="hsl(0, 0%, 100%)"></path><path d="M 127 456 L 234.5 431.5" fill="transparent" stroke="hsl(0, 0%, 100%)"></path><path d="M 208.5 389.5 L 254 462.5" fill="transparent" stroke="hsl(0, 0%, 100%)"></path><path d="M 181.5 443.5 L 171.5 462.5" fill="transparent" stroke="hsl(0, 0%, 100%)"></path><path d="M 127 456 L 99 462.5" fill="transparent" stroke="hsl(0, 0%, 100%)"></path><path d="M 79 372.5 L 131.5 361" fill="transparent" stroke="hsl(0, 0%, 100%)"></path><path d="M 155.5 401.5 L 131 360.5" fill="transparent" stroke="hsl(0, 0%, 100%)"></path><path d="M 131 360.5 L 85 284" fill="transparent" stroke="hsl(0, 0%, 100%)"></path><path d="M 85 284 L 56.5 333" fill="transparent" stroke="hsl(0, 0%, 100%)"></path><path d="M 131.5 361 L 234.5 337.5" fill="transparent" stroke="hsl(0, 0%, 100%)"></path><path d="M 235 337.5 L 208.5 389.5" fill="transparent" stroke="hsl(0, 0%, 100%)"></path><path d="M 209 389.5 L 261 378" fill="transparent" stroke="hsl(0, 0%, 100%)"></path><path d="M 0.5 390 L 27 384.5" fill="transparent" stroke="hsl(0, 0%, 100%)"></path><path d="M 27 384.5 L 0 334.5" fill="transparent" stroke="hsl(0, 0%, 100%)"></path><path d="M 0.5 345.5 L 5.5 344" fill="transparent" stroke="hsl(0, 0%, 100%)"></path><path d="M 5.5 344 L 35 295" fill="transparent" stroke="hsl(0, 0%, 100%)"></path><path d="M 35 295 L 85 284" fill="transparent" stroke="hsl(0, 0%, 100%)"></path><path d="M 85 284 L 112 236.5" fill="transparent" stroke="hsl(0, 0%, 100%)"></path><path d="M 112 236.5 L 14 258.5" fill="transparent" stroke="hsl(0, 0%, 100%)"></path><path d="M 14 258.5 L 35 295" fill="transparent" stroke="hsl(0, 0%, 100%)"></path><path d="M 14 258.5 L 0.5 261.5" fill="transparent" stroke="hsl(0, 0%, 100%)"></path><path d="M 14 258.5 L 42 212.5" fill="transparent" stroke="hsl(0, 0%, 100%)"></path><path d="M 42 212.5 L 90 202" fill="transparent" stroke="hsl(0, 0%, 100%)"></path><path d="M 90 202 L 112 236" fill="transparent" stroke="hsl(0, 0%, 100%)"></path><path d="M 112 236.5 L 161.5 226" fill="transparent" stroke="hsl(0, 0%, 100%)"></path><path d="M 161.5 226 L 108 321.5" fill="transparent" stroke="hsl(0, 0%, 100%)"></path><path d="M 135 273 L 185 262" fill="transparent" stroke="hsl(0, 0%, 100%)"></path><path d="M 185 262 L 209.5 298.5" fill="transparent" stroke="hsl(0, 0%, 100%)"></path><path d="M 135.5 273 L 183 349" fill="transparent" stroke="hsl(0, 0%, 100%)"></path><path d="M 183 349 L 209.5 298.5" fill="transparent" stroke="hsl(0, 0%, 100%)"></path><path d="M 209.5 298.5 L 260 287.5" fill="transparent" stroke="hsl(0, 0%, 100%)"></path><path d="M 260 287.5 L 286 326" fill="transparent" stroke="hsl(0, 0%, 100%)"></path><path d="M 286 326 L 235 337.5" fill="transparent" stroke="hsl(0, 0%, 100%)"></path><path d="M 286.5 326 L 337.5 314.5" fill="transparent" stroke="hsl(0, 0%, 100%)"></path><path d="M 337.5 314.5 L 284.5 240" fill="transparent" stroke="hsl(0, 0%, 100%)"></path><path d="M 284.5 240 L 260 287.5" fill="transparent" stroke="hsl(0, 0%, 100%)"></path><path d="M 284.5 240 L 258.5 204" fill="transparent" stroke="hsl(0, 0%, 100%)"></path><path d="M 259 204.5 L 209.5 298.5" fill="transparent" stroke="hsl(0, 0%, 100%)"></path><path d="M 259 204 L 210 215" fill="transparent" stroke="hsl(0, 0%, 100%)"></path><path d="M 210 215 L 161.5 225.5" fill="transparent" stroke="hsl(0, 0%, 100%)"></path><path d="M 210 215 L 185 262" fill="transparent" stroke="hsl(0, 0%, 100%)"></path><path d="M 161.5 225.5 L 186.5 180.5" fill="transparent" stroke="hsl(0, 0%, 100%)"></path><path d="M 186.5 180.5 L 234 170" fill="transparent" stroke="hsl(0, 0%, 100%)"></path><path d="M 210 215 L 234.5 170" fill="transparent" stroke="hsl(0, 0%, 100%)"></path><path d="M 234.5 170 L 257.5 126.5" fill="transparent" stroke="hsl(0, 0%, 100%)"></path><path d="M 257.5 126.5 L 282 159.5" fill="transparent" stroke="hsl(0, 0%, 100%)"></path><path d="M 259 204 L 282 159.5" fill="transparent" stroke="hsl(0, 0%, 100%)"></path><path d="M 282 159.5 L 304.5 116.5" fill="transparent" stroke="hsl(0, 0%, 100%)"></path><path d="M 304.5 116.5 L 329.5 149" fill="transparent" stroke="hsl(0, 0%, 100%)"></path><path d="M 329.5 149 L 307.5 193.5" fill="transparent" stroke="hsl(0, 0%, 100%)"></path><path d="M 259 204 L 355 183" fill="transparent" stroke="hsl(0, 0%, 100%)"></path><path d="M 355 183 L 333.5 228.5" fill="transparent" stroke="hsl(0, 0%, 100%)"></path><path d="M 333.5 228.5 L 284.5 240" fill="transparent" stroke="hsl(0, 0%, 100%)"></path><path d="M 333.5 228.5 L 360.5 265" fill="transparent" stroke="hsl(0, 0%, 100%)"></path><path d="M 360.5 265 L 410.5 254" fill="transparent" stroke="hsl(0, 0%, 100%)"></path><path d="M 410.5 254 L 431.5 206.5" fill="transparent" stroke="hsl(0, 0%, 100%)"></path><path d="M 431.5 206.5 L 403.5 171.5" fill="transparent" stroke="hsl(0, 0%, 100%)"></path><path d="M 403.5 171.5 L 382.5 217.5" fill="transparent" stroke="hsl(0, 0%, 100%)"></path><path d="M 382.5 217.5 L 360.5 264.5" fill="transparent" stroke="hsl(0, 0%, 100%)"></path><path d="M 382.5 217.5 L 355.5 182.5" fill="transparent" stroke="hsl(0, 0%, 100%)"></path><path d="M 355.5 182.5 L 377 138" fill="transparent" stroke="hsl(0, 0%, 100%)"></path><path d="M 377 138 L 408.5 131.5" fill="transparent" stroke="hsl(0, 0%, 100%)"></path><path d="M 403.5 171.5 L 416.5 145" fill="transparent" stroke="hsl(0, 0%, 100%)"></path><path d="M 337.5 314.5 L 360.5 265" fill="transparent" stroke="hsl(0, 0%, 100%)"></path><path d="M 410.5 254 L 439.5 291.5" fill="transparent" stroke="hsl(0, 0%, 100%)"></path><path d="M 439.5 291.5 L 466.5 229" fill="transparent" stroke="hsl(0, 0%, 100%)"></path><path d="M 439.5 291.5 L 337.5 314.5" fill="transparent" stroke="hsl(0, 0%, 100%)"></path><path d="M 337.5 314.5 L 394.5 395" fill="transparent" stroke="hsl(0, 0%, 100%)"></path><path d="M 394.5 395 L 341.5 407" fill="transparent" stroke="hsl(0, 0%, 100%)"></path><path d="M 341.5 407 L 313.5 366" fill="transparent" stroke="hsl(0, 0%, 100%)"></path><path d="M 313.5 366 L 337.5 314.5" fill="transparent" stroke="hsl(0, 0%, 100%)"></path><path d="M 313.5 366 L 288.5 419.5" fill="transparent" stroke="hsl(0, 0%, 100%)"></path><path d="M 288.5 419.5 L 316.5 462.5" fill="transparent" stroke="hsl(0, 0%, 100%)"></path><path d="M 425 438 L 394.5 395" fill="transparent" stroke="hsl(0, 0%, 100%)"></path><path d="M 394.5 395 L 418 342" fill="transparent" stroke="hsl(0, 0%, 100%)"></path><path d="M 418 342 L 388.5 302.5" fill="transparent" stroke="hsl(0, 0%, 100%)"></path><path d="M 418 342 L 469.5 331" fill="transparent" stroke="hsl(0, 0%, 100%)"></path><path d="M 469.5 331 L 425 438" fill="transparent" stroke="hsl(0, 0%, 100%)"></path><path d="M 425 438 L 415.5 462" fill="transparent" stroke="hsl(0, 0%, 100%)"></path><path d="M 448 383 L 479.5 426" fill="transparent" stroke="hsl(0, 0%, 100%)"></path><path d="M 479.5 426 L 465 462" fill="transparent" stroke="hsl(0, 0%, 100%)"></path><path d="M 479.5 426 L 506.5 462.5" fill="transparent" stroke="hsl(0, 0%, 100%)"></path><path d="M 479.5 426 L 501 371" fill="transparent" stroke="hsl(0, 0%, 100%)"></path><path d="M 501 371 L 469.5 330.5" fill="transparent" stroke="hsl(0, 0%, 100%)"></path><path d="M 469.5 330.5 L 439.5 291.5" fill="transparent" stroke="hsl(0, 0%, 100%)"></path><path d="M 469.5 330.5 L 493 273.5" fill="transparent" stroke="hsl(0, 0%, 100%)"></path><path d="M 501 371 L 546.5 361" fill="transparent" stroke="hsl(0, 0%, 100%)"></path><path d="M 479.5 426 L 572 404.5" fill="transparent" stroke="hsl(0, 0%, 100%)"></path><path d="M 533 413.5 L 571 462.5" fill="transparent" stroke="hsl(0, 0%, 100%)"></path><path d="M 431.5 206.5 L 450.5 203" fill="transparent" stroke="hsl(0, 0%, 100%)"></path><path d="M 329.5 149 L 351 106" fill="transparent" stroke="hsl(0, 0%, 100%)"></path><path d="M 351 106 L 377 138.5" fill="transparent" stroke="hsl(0, 0%, 100%)"></path><path d="M 351 106 L 388.5 98" fill="transparent" stroke="hsl(0, 0%, 100%)"></path><path d="M 351 106 L 370.5 68" fill="transparent" stroke="hsl(0, 0%, 100%)"></path><path d="M 369 65 L 326 74.5" fill="transparent" stroke="hsl(0, 0%, 100%)"></path><path d="M 326 74.5 L 304.5 116.5" fill="transparent" stroke="hsl(0, 0%, 100%)"></path><path d="M 304.5 116.5 L 280 85" fill="transparent" stroke="hsl(0, 0%, 100%)"></path><path d="M 280 85 L 234.5 95" fill="transparent" stroke="hsl(0, 0%, 100%)"></path><path d="M 234.5 95 L 257.5 126.5" fill="transparent" stroke="hsl(0, 0%, 100%)"></path><path d="M 234.5 170 L 188 105.5" fill="transparent" stroke="hsl(0, 0%, 100%)"></path><path d="M 188 105.5 L 163.5 147.5" fill="transparent" stroke="hsl(0, 0%, 100%)"></path><path d="M 163.5 147.5 L 186.5 180.5" fill="transparent" stroke="hsl(0, 0%, 100%)"></path><path d="M 163.5 147.5 L 112.5 236" fill="transparent" stroke="hsl(0, 0%, 100%)"></path><path d="M 163.5 147.5 L 116.5 158" fill="transparent" stroke="hsl(0, 0%, 100%)"></path><path d="M 116.5 158 L 90 202" fill="transparent" stroke="hsl(0, 0%, 100%)"></path><path d="M 90 202 L 68.5 168" fill="transparent" stroke="hsl(0, 0%, 100%)"></path><path d="M 68.5 168.5 L 22 178.5" fill="transparent" stroke="hsl(0, 0%, 100%)"></path><path d="M 22 178.5 L 41.5 212.5" fill="transparent" stroke="hsl(0, 0%, 100%)"></path><path d="M 21.5 178.5 L 0.5 183" fill="transparent" stroke="hsl(0, 0%, 100%)"></path><path d="M 21.5 178.5 L 0.5 212" fill="transparent" stroke="hsl(0, 0%, 100%)"></path><path d="M 68.5 168 L 48.5 135.5" fill="transparent" stroke="hsl(0, 0%, 100%)"></path><path d="M 0.5 146 L 49 136" fill="transparent" stroke="hsl(0, 0%, 100%)"></path><path d="M 49 136 L 95 125.5" fill="transparent" stroke="hsl(0, 0%, 100%)"></path><path d="M 95 125.5 L 188 105" fill="transparent" stroke="hsl(0, 0%, 100%)"></path><path d="M 95.5 125.5 L 116.5 157.5" fill="transparent" stroke="hsl(0, 0%, 100%)"></path><path d="M 188 105 L 234.5 95" fill="transparent" stroke="hsl(0, 0%, 100%)"></path><path d="M 234.5 95 L 211 64.5" fill="transparent" stroke="hsl(0, 0%, 100%)"></path><path d="M 211 64.5 L 165.5 74.5" fill="transparent" stroke="hsl(0, 0%, 100%)"></path><path d="M 165.5 74.5 L 141.5 115" fill="transparent" stroke="hsl(0, 0%, 100%)"></path><path d="M 165.5 74.5 L 120 84.5" fill="transparent" stroke="hsl(0, 0%, 100%)"></path><path d="M 120 84.5 L 95.5 125.5" fill="transparent" stroke="hsl(0, 0%, 100%)"></path><path d="M 49 135.5 L 74.5 94" fill="transparent" stroke="hsl(0, 0%, 100%)"></path><path d="M 74.5 94 L 99.5 54.5" fill="transparent" stroke="hsl(0, 0%, 100%)"></path><path d="M 99.5 54.5 L 120 84.5" fill="transparent" stroke="hsl(0, 0%, 100%)"></path><path d="M 74.5 94 L 54.5 64" fill="transparent" stroke="hsl(0, 0%, 100%)"></path><path d="M 54.5 64 L 28.5 104" fill="transparent" stroke="hsl(0, 0%, 100%)"></path><path d="M 28.5 104 L 2.5 145" fill="transparent" stroke="hsl(0, 0%, 100%)"></path><path d="M 28.5 104 L 9.5 73.5" fill="transparent" stroke="hsl(0, 0%, 100%)"></path><path d="M 9.5 73.5 L 0.5 87" fill="transparent" stroke="hsl(0, 0%, 100%)"></path><path d="M 9.5 73.5 L 39 30" fill="transparent" stroke="hsl(0, 0%, 100%)"></path><path d="M 9.5 74 L 0.5 76" fill="transparent" stroke="hsl(0, 0%, 100%)"></path><path d="M 54.5 64 L 80.5 24.5" fill="transparent" stroke="hsl(0, 0%, 100%)"></path><path d="M 99.5 54.5 L 122 19" fill="transparent" stroke="hsl(0, 0%, 100%)"></path><path d="M 126 18.5 L 165.5 74" fill="transparent" stroke="hsl(0, 0%, 100%)"></path><path d="M 144.5 44.5 L 233.5 25.5" fill="transparent" stroke="hsl(0, 0%, 100%)"></path><path d="M 233.5 25.5 L 278 15.5" fill="transparent" stroke="hsl(0, 0%, 100%)"></path><path d="M 278 15.5 L 331.5 4" fill="transparent" stroke="hsl(0, 0%, 100%)"></path><path d="M 350 34 L 301.5 44.5" fill="transparent" stroke="hsl(0, 0%, 100%)"></path><path d="M 301.5 44.5 L 256.5 54.5" fill="transparent" stroke="hsl(0, 0%, 100%)"></path><path d="M 280 84.5 L 233.5 25.5" fill="transparent" stroke="hsl(0, 0%, 100%)"></path><path d="M 233.5 25.5 L 211 64.5" fill="transparent" stroke="hsl(0, 0%, 100%)"></path><path d="M 188.5 35.5 L 205.5 8" fill="transparent" stroke="hsl(0, 0%, 100%)"></path><path d="M 266 0 L 278 15" fill="transparent" stroke="hsl(0, 0%, 100%)"></path><path d="M 278 15 L 301.5 44.5" fill="transparent" stroke="hsl(0, 0%, 100%)"></path><path d="M 301.5 44.5 L 326 74.5" fill="transparent" stroke="hsl(0, 0%, 100%)"></path><path d="M 286 326 L 261 378" fill="transparent" stroke="hsl(0, 0%, 100%)"></path><path d="M 261 378 L 288.5 419.5" fill="transparent" stroke="hsl(0, 0%, 100%)"></path><path d="M 288.5 419.5 L 268.5 462.5" fill="transparent" stroke="hsl(0, 0%, 100%)"></path><path d="M 316.5 462.5 L 341.5 407" fill="transparent" stroke="hsl(0, 0%, 100%)"></path><path d="M 317 462.5 L 425 438" fill="transparent" stroke="hsl(0, 0%, 100%)"></path><path d="M 69.5 462.5 L 27 384.5" fill="transparent" stroke="hsl(0, 0%, 100%)"></path></g><g transform="translate(332.5 15)" opacity="0.5"><path d="M 0 0 L 46.5 21.5" fill="transparent" stroke-width="0.5" stroke="hsl(0, 0%, 100%)"></path><path d="M 46.5 21.5 L 34 36.5" fill="transparent" stroke-width="0.5" stroke="hsl(0, 0%, 100%)"></path><path d="M 18.5 30.5 L 34 36.5" fill="transparent" stroke-width="0.5" stroke="hsl(0, 0%, 100%)"></path><path d="M 34 36.5 L 58.5 70.5" fill="transparent" stroke-width="0.5" stroke="hsl(0, 0%, 100%)"></path><path d="M 58.5 70.5 L 50 82.5" fill="transparent" stroke-width="0.5" stroke="hsl(0, 0%, 100%)"></path><path d="M 58.5 70.5 L 95 86.5" fill="transparent" stroke-width="0.5" stroke="hsl(0, 0%, 100%)"></path><path d="M 95 86.5 L 73.5 121.5" fill="transparent" stroke-width="0.5" stroke="hsl(0, 0%, 100%)"></path><path d="M 146 155.5 L 37 8.5" fill="transparent" stroke-width="0.5" stroke="hsl(0, 0%, 100%)"></path><path d="M 70.5 53.5 L 81.5 38" fill="transparent" stroke-width="0.5" stroke="hsl(0, 0%, 100%)"></path><path d="M 81.5 38 L 72 26" fill="transparent" stroke-width="0.5" stroke="hsl(0, 0%, 100%)"></path><path d="M 81 38 L 114.5 54" fill="transparent" stroke-width="0.5" stroke="hsl(0, 0%, 100%)"></path><path d="M 114.5 54 L 106 42.5" fill="transparent" stroke-width="0.5" stroke="hsl(0, 0%, 100%)"></path><path d="M 114.5 54 L 138 84.5" fill="transparent" stroke-width="0.5" stroke="hsl(0, 0%, 100%)"></path><path d="M 146 69 L 138 84.5" fill="transparent" stroke-width="0.5" stroke="hsl(0, 0%, 100%)"></path><path d="M 138 84.5 L 70.5 53.5" fill="transparent" stroke-width="0.5" stroke="hsl(0, 0%, 100%)"></path><path d="M 145.5 155 L 137 176.5" fill="transparent" stroke-width="0.5" stroke="hsl(0, 0%, 100%)"></path><path d="M 165 214 L 84 105" fill="transparent" stroke-width="0.5" stroke="hsl(0, 0%, 100%)"></path><path d="M 118.5 198 L 164.5 213.5" fill="transparent" stroke-width="0.5" stroke="hsl(0, 0%, 100%)"></path><path d="M 164.5 213.5 L 155.5 239" fill="transparent" stroke-width="0.5" stroke="hsl(0, 0%, 100%)"></path><path d="M 155.5 239 L 141.5 235" fill="transparent" stroke-width="0.5" stroke="hsl(0, 0%, 100%)"></path><path d="M 155.5 239 L 185 278.5" fill="transparent" stroke-width="0.5" stroke="hsl(0, 0%, 100%)"></path><path d="M 199 226 L 164 213.5" fill="transparent" stroke-width="0.5" stroke="hsl(0, 0%, 100%)"></path><path d="M 205.5 203 L 178.5 299" fill="transparent" stroke-width="0.5" stroke="hsl(0, 0%, 100%)"></path><path d="M 185 278.5 L 348 330.5" fill="transparent" stroke-width="0.5" stroke="hsl(0, 0%, 100%)"></path><path d="M 227.5 263 L 208.5 346" fill="transparent" stroke-width="0.5" stroke="hsl(0, 0%, 100%)"></path><path d="M 214.5 319.5 L 251 329.5" fill="transparent" stroke-width="0.5" stroke="hsl(0, 0%, 100%)"></path><path d="M 251.5 330 L 259.5 274" fill="transparent" stroke-width="0.5" stroke="hsl(0, 0%, 100%)"></path><path d="M 259.5 274 L 227 263" fill="transparent" stroke-width="0.5" stroke="hsl(0, 0%, 100%)"></path><path d="M 227 263 L 199 226" fill="transparent" stroke-width="0.5" stroke="hsl(0, 0%, 100%)"></path><path d="M 206 203 L 259.5 273.5" fill="transparent" stroke-width="0.5" stroke="hsl(0, 0%, 100%)"></path><path d="M 259.5 273.5 L 264 249" fill="transparent" stroke-width="0.5" stroke="hsl(0, 0%, 100%)"></path><path d="M 172 189.5 L 180 168" fill="transparent" stroke-width="0.5" stroke="hsl(0, 0%, 100%)"></path><path d="M 180 168 L 145.5 154.5" fill="transparent" stroke-width="0.5" stroke="hsl(0, 0%, 100%)"></path><path d="M 180 168 L 212 181.5" fill="transparent" stroke-width="0.5" stroke="hsl(0, 0%, 100%)"></path><path d="M 212 181.5 L 264 249.5" fill="transparent" stroke-width="0.5" stroke="hsl(0, 0%, 100%)"></path><path d="M 136.5 176 L 267.5 227" fill="transparent" stroke-width="0.5" stroke="hsl(0, 0%, 100%)"></path><path d="M 267.5 227 L 217 161.5" fill="transparent" stroke-width="0.5" stroke="hsl(0, 0%, 100%)"></path><path d="M 217 161.5 L 212 181" fill="transparent" stroke-width="0.5" stroke="hsl(0, 0%, 100%)"></path><path d="M 180 168 L 129.5 102" fill="transparent" stroke-width="0.5" stroke="hsl(0, 0%, 100%)"></path><path d="M 129.5 102 L 105 69.5" fill="transparent" stroke-width="0.5" stroke="hsl(0, 0%, 100%)"></path><path d="M 138 84.5 L 169 99" fill="transparent" stroke-width="0.5" stroke="hsl(0, 0%, 100%)"></path><path d="M 169 99 L 198.5 112.5" fill="transparent" stroke-width="0.5" stroke="hsl(0, 0%, 100%)"></path><path d="M 129.5 102 L 193 130" fill="transparent" stroke-width="0.5" stroke="hsl(0, 0%, 100%)"></path><path d="M 193 130 L 221.5 142.5" fill="transparent" stroke-width="0.5" stroke="hsl(0, 0%, 100%)"></path><path d="M 222 142.5 L 227.5 126" fill="transparent" stroke-width="0.5" stroke="hsl(0, 0%, 100%)"></path><path d="M 227.5 126 L 233 107" fill="transparent" stroke-width="0.5" stroke="hsl(0, 0%, 100%)"></path><path d="M 186.5 148.5 L 193 130" fill="transparent" stroke-width="0.5" stroke="hsl(0, 0%, 100%)"></path><path d="M 161.5 116 L 169 99" fill="transparent" stroke-width="0.5" stroke="hsl(0, 0%, 100%)"></path><path d="M 296.5 238 L 175.5 83" fill="transparent" stroke-width="0.5" stroke="hsl(0, 0%, 100%)"></path><path d="M 146 69 L 175.5 83.5" fill="transparent" stroke-width="0.5" stroke="hsl(0, 0%, 100%)"></path><path d="M 175.5 83.5 L 205 97.5" fill="transparent" stroke-width="0.5" stroke="hsl(0, 0%, 100%)"></path><path d="M 204.5 97 L 206 93" fill="transparent" stroke-width="0.5" stroke="hsl(0, 0%, 100%)"></path><path d="M 204.5 97.5 L 274.5 185.5" fill="transparent" stroke-width="0.5" stroke="hsl(0, 0%, 100%)"></path><path d="M 274 185.5 L 154.5 135" fill="transparent" stroke-width="0.5" stroke="hsl(0, 0%, 100%)"></path><path d="M 98 163.5 L 129.5 102" fill="transparent" stroke-width="0.5" stroke="hsl(0, 0%, 100%)"></path><path d="M 277.5 404.5 L 296.5 237.5" fill="transparent" stroke-width="0.5" stroke="hsl(0, 0%, 100%)"></path><path d="M 296.5 237.5 L 441.5 294" fill="transparent" stroke-width="0.5" stroke="hsl(0, 0%, 100%)"></path><path d="M 239 397.5 L 277.5 405 L 377 428 L 459.5 447" fill="transparent" stroke-width="0.5" stroke="hsl(0, 0%, 100%)"></path><path d="M 446 338 L 441.5 293.5" fill="transparent" stroke-width="0.5" stroke="hsl(0, 0%, 100%)"></path><path d="M 468 345.5 L 348 304.5" fill="transparent" stroke-width="0.5" stroke="hsl(0, 0%, 100%)"></path><path d="M 374 289.5 L 376.5 456" fill="transparent" stroke-width="0.5" stroke="hsl(0, 0%, 100%)"></path><path d="M 298.5 216.5 L 305 161" fill="transparent" stroke-width="0.5" stroke="hsl(0, 0%, 100%)"></path><path d="M 327.5 189 L 435 237" fill="transparent" stroke-width="0.5" stroke="hsl(0, 0%, 100%)"></path><path d="M 449.5 363 L 604 412" fill="transparent" stroke-width="0.5" stroke="hsl(0, 0%, 100%)"></path><path d="M 620.5 417 L 703.5 444" fill="transparent" stroke-width="0.5" stroke="hsl(0, 0%, 100%)"></path><path d="M 459.5 281.5 L 531.5 311" fill="transparent" stroke-width="0.5" stroke="hsl(0, 0%, 100%)"></path><path d="M 500.5 316.5 L 553 337" fill="transparent" stroke-width="0.5" stroke="hsl(0, 0%, 100%)"></path><path d="M 569 344 L 599.5 355.5" fill="transparent" stroke-width="0.5" stroke="hsl(0, 0%, 100%)"></path><path d="M 614.5 361 L 679.5 386" fill="transparent" stroke-width="0.5" stroke="hsl(0, 0%, 100%)"></path><path d="M 691 390.5 L 773 423" fill="transparent" stroke-width="0.5" stroke="hsl(0, 0%, 100%)"></path><path d="M 800 432.5 L 830.5 444" fill="transparent" stroke-width="0.5" stroke="hsl(0, 0%, 100%)"></path><path d="M 242 194 L 349.5 237" fill="transparent" stroke-width="0.5" stroke="hsl(0, 0%, 100%)"></path><path d="M 318.5 320.5 L 324.5 227" fill="transparent" stroke-width="0.5" stroke="hsl(0, 0%, 100%)"></path><path d="M 350.5 199.5 L 348.5 280" fill="transparent" stroke-width="0.5" stroke="hsl(0, 0%, 100%)"></path><path d="M 321.5 270.5 L 421.5 307" fill="transparent" stroke-width="0.5" stroke="hsl(0, 0%, 100%)"></path><path d="M 421.5 307 L 420 285.5" fill="transparent" stroke-width="0.5" stroke="hsl(0, 0%, 100%)"></path><path d="M 421 306.5 L 445.5 338" fill="transparent" stroke-width="0.5" stroke="hsl(0, 0%, 100%)"></path><path d="M 256 118 L 303 178.5" fill="transparent" stroke-width="0.5" stroke="hsl(0, 0%, 100%)"></path><path d="M 303 178.5 L 250.5 155.5" fill="transparent" stroke-width="0.5" stroke="hsl(0, 0%, 100%)"></path><path d="M 250.5 155.5 L 254.5 138" fill="transparent" stroke-width="0.5" stroke="hsl(0, 0%, 100%)"></path><path d="M 255 138 L 281 150" fill="transparent" stroke-width="0.5" stroke="hsl(0, 0%, 100%)"></path><path d="M 232 109.5 L 254.5 138" fill="transparent" stroke-width="0.5" stroke="hsl(0, 0%, 100%)"></path><path d="M 146 69 L 138 59" fill="transparent" stroke-width="0.5" stroke="hsl(0, 0%, 100%)"></path><path d="M 175.5 83.5 L 177.5 78.5" fill="transparent" stroke-width="0.5" stroke="hsl(0, 0%, 100%)"></path><path d="M 264 249.5 L 291 285" fill="transparent" stroke-width="0.5" stroke="hsl(0, 0%, 100%)"></path><path d="M 267 226.5 L 320 294.5" fill="transparent" stroke-width="0.5" stroke="hsl(0, 0%, 100%)"></path><path d="M 215 319.5 L 277.5 404.5" fill="transparent" stroke-width="0.5" stroke="hsl(0, 0%, 100%)"></path><path d="M 251.5 329.5 L 281.5 370.5" fill="transparent" stroke-width="0.5" stroke="hsl(0, 0%, 100%)"></path><path d="M 281.5 370.5 L 315 379.5" fill="transparent" stroke-width="0.5" stroke="hsl(0, 0%, 100%)"></path><path d="M 315 379.5 L 317 349" fill="transparent" stroke-width="0.5" stroke="hsl(0, 0%, 100%)"></path><path d="M 288 311.5 L 376.5 427.5" fill="transparent" stroke-width="0.5" stroke="hsl(0, 0%, 100%)"></path><path d="M 315 379.5 L 346 421" fill="transparent" stroke-width="0.5" stroke="hsl(0, 0%, 100%)"></path><path d="M 345.5 421 L 344 456" fill="transparent" stroke-width="0.5" stroke="hsl(0, 0%, 100%)"></path><path d="M 313 413 L 308.5 456" fill="transparent" stroke-width="0.5" stroke="hsl(0, 0%, 100%)"></path><path d="M 406.5 435 L 421.5 456" fill="transparent" stroke-width="0.5" stroke="hsl(0, 0%, 100%)"></path><path d="M 434 441 L 404.5 403" fill="transparent" stroke-width="0.5" stroke="hsl(0, 0%, 100%)"></path><path d="M 404.5 403 L 375.5 395.5" fill="transparent" stroke-width="0.5" stroke="hsl(0, 0%, 100%)"></path><path d="M 404.5 403 L 402.5 373.5" fill="transparent" stroke-width="0.5" stroke="hsl(0, 0%, 100%)"></path><path d="M 402.5 373.5 L 428 381.5" fill="transparent" stroke-width="0.5" stroke="hsl(0, 0%, 100%)"></path><path d="M 428 381.5 L 425.5 355.5" fill="transparent" stroke-width="0.5" stroke="hsl(0, 0%, 100%)"></path><path d="M 425.5 355.5 L 375 339" fill="transparent" stroke-width="0.5" stroke="hsl(0, 0%, 100%)"></path><path d="M 375 339 L 459 447" fill="transparent" stroke-width="0.5" stroke="hsl(0, 0%, 100%)"></path><path d="M 427.5 381 L 486.5 456" fill="transparent" stroke-width="0.5" stroke="hsl(0, 0%, 100%)"></path><path d="M 484.5 453.5 L 497 456" fill="transparent" stroke-width="0.5" stroke="hsl(0, 0%, 100%)"></path><path d="M 347 357.5 L 375.5 394.5" fill="transparent" stroke-width="0.5" stroke="hsl(0, 0%, 100%)"></path><path d="M 322 271 L 348 304" fill="transparent" stroke-width="0.5" stroke="hsl(0, 0%, 100%)"></path><path d="M 348 304.5 L 347 357" fill="transparent" stroke-width="0.5" stroke="hsl(0, 0%, 100%)"></path><path d="M 347 357.5 L 317.5 349.5" fill="transparent" stroke-width="0.5" stroke="hsl(0, 0%, 100%)"></path><path d="M 347.5 330.5 L 375 365" fill="transparent" stroke-width="0.5" stroke="hsl(0, 0%, 100%)"></path><path d="M 374 267.5 L 449.5 363" fill="transparent" stroke-width="0.5" stroke="hsl(0, 0%, 100%)"></path><path d="M 400 322.5 L 506 456" fill="transparent" stroke-width="0.5" stroke="hsl(0, 0%, 100%)"></path><path d="M 479 422 L 462 302" fill="transparent" stroke-width="0.5" stroke="hsl(0, 0%, 100%)"></path><path d="M 462 302 L 482 309.5" fill="transparent" stroke-width="0.5" stroke="hsl(0, 0%, 100%)"></path><path d="M 482 309.5 L 507.5 456" fill="transparent" stroke-width="0.5" stroke="hsl(0, 0%, 100%)"></path><path d="M 274.5 185.5 L 326 208" fill="transparent" stroke-width="0.5" stroke="hsl(0, 0%, 100%)"></path><path d="M 326 208 L 349.5 237" fill="transparent" stroke-width="0.5" stroke="hsl(0, 0%, 100%)"></path><path d="M 326 208 L 328.5 172" fill="transparent" stroke-width="0.5" stroke="hsl(0, 0%, 100%)"></path><path d="M 328.5 172 L 413.5 210.5" fill="transparent" stroke-width="0.5" stroke="hsl(0, 0%, 100%)"></path><path d="M 432.5 207.5 L 438.5 273.5" fill="transparent" stroke-width="0.5" stroke="hsl(0, 0%, 100%)"></path><path d="M 438.5 273.5 L 418.5 265.5" fill="transparent" stroke-width="0.5" stroke="hsl(0, 0%, 100%)"></path><path d="M 416 228 L 416.5 245.5 L 396 237 L 396 256.5 L 373.5 247" fill="transparent" stroke-width="0.5" stroke="hsl(0, 0%, 100%)"></path><path d="M 373 210 L 374 267.5" fill="transparent" stroke-width="0.5" stroke="hsl(0, 0%, 100%)"></path><path d="M 394.5 218.5 L 394.5 201.5" fill="transparent" stroke-width="0.5" stroke="hsl(0, 0%, 100%)"></path><path d="M 413.5 210.5 L 413.5 198" fill="transparent" stroke-width="0.5" stroke="hsl(0, 0%, 100%)"></path><path d="M 352 166.5 L 351.5 182 L 489.5 353" fill="transparent" stroke-width="0.5" stroke="hsl(0, 0%, 100%)"></path><path d="M 396 256 L 420 285.5" fill="transparent" stroke-width="0.5" stroke="hsl(0, 0%, 100%)"></path><path d="M 350 217.5 L 373.5 247" fill="transparent" stroke-width="0.5" stroke="hsl(0, 0%, 100%)"></path><path d="M 281.5 131.5 L 327.5 189" fill="transparent" stroke-width="0.5" stroke="hsl(0, 0%, 100%)"></path><path d="M 328.5 172 L 306 143.5" fill="transparent" stroke-width="0.5" stroke="hsl(0, 0%, 100%)"></path><path d="M 394.5 202 L 375.5 178.5" fill="transparent" stroke-width="0.5" stroke="hsl(0, 0%, 100%)"></path><path d="M 397.5 190 L 546.5 372" fill="transparent" stroke-width="0.5" stroke="hsl(0, 0%, 100%)"></path><path d="M 416.5 245 L 462 302.5" fill="transparent" stroke-width="0.5" stroke="hsl(0, 0%, 100%)"></path><path d="M 436.5 253.5 L 528.5 366.5" fill="transparent" stroke-width="0.5" stroke="hsl(0, 0%, 100%)"></path><path d="M 485.5 331 L 509 360" fill="transparent" stroke-width="0.5" stroke="hsl(0, 0%, 100%)"></path><path d="M 475.5 396.5 L 523 456" fill="transparent" stroke-width="0.5" stroke="hsl(0, 0%, 100%)"></path><path d="M 498.5 402.5 L 538.5 414.5" fill="transparent" stroke-width="0.5" stroke="hsl(0, 0%, 100%)"></path><path d="M 528.5 366.5 L 564 379" fill="transparent" stroke-width="0.5" stroke="hsl(0, 0%, 100%)"></path><path d="M 513.5 383 L 501 317" fill="transparent" stroke-width="0.5" stroke="hsl(0, 0%, 100%)"></path><path d="M 518.5 323.5 L 514.5 304" fill="transparent" stroke-width="0.5" stroke="hsl(0, 0%, 100%)"></path><path d="M 496 296 L 493 278.5 L 527.5 293.5 L 517.5 250.5" fill="transparent" stroke-width="0.5" stroke="hsl(0, 0%, 100%)"></path><path d="M 454.5 245.5 L 489.5 260.5 L 487 243.5 L 503.5 252 L 501.5 242" fill="transparent" stroke-width="0.5" stroke="hsl(0, 0%, 100%)"></path><path d="M 569.5 344 L 563.5 324 L 579 330.5 L 574 313 L 588.5 319.5" fill="transparent" stroke-width="0.5" stroke="hsl(0, 0%, 100%)"></path><path d="M 576 279.5 L 613 395.5" fill="transparent" stroke-width="0.5" stroke="hsl(0, 0%, 100%)"></path><path d="M 581.5 384.5 L 642.5 405.5" fill="transparent" stroke-width="0.5" stroke="hsl(0, 0%, 100%)"></path><path d="M 513.5 384 L 571.5 456" fill="transparent" stroke-width="0.5" stroke="hsl(0, 0%, 100%)"></path><path d="M 524.5 435.5 L 600.5 456" fill="transparent" stroke-width="0.5" stroke="hsl(0, 0%, 100%)"></path><path d="M 564 446 L 558 420 L 576.5 425.5 L 570.5 401.5" fill="transparent" stroke-width="0.5" stroke="hsl(0, 0%, 100%)"></path><path d="M 533.5 389.5 L 558.5 420" fill="transparent" stroke-width="0.5" stroke="hsl(0, 0%, 100%)"></path><path d="M 533.5 389.5 L 529 366" fill="transparent" stroke-width="0.5" stroke="hsl(0, 0%, 100%)"></path><path d="M 552 395 L 546.5 372.5" fill="transparent" stroke-width="0.5" stroke="hsl(0, 0%, 100%)"></path><path d="M 563.5 378.5 L 559 357.5" fill="transparent" stroke-width="0.5" stroke="hsl(0, 0%, 100%)"></path><path d="M 525.5 345 L 620.5 380" fill="transparent" stroke-width="0.5" stroke="hsl(0, 0%, 100%)"></path><path d="M 620.5 380 L 608 343" fill="transparent" stroke-width="0.5" stroke="hsl(0, 0%, 100%)"></path><path d="M 608 343 L 621 348" fill="transparent" stroke-width="0.5" stroke="hsl(0, 0%, 100%)"></path><path d="M 628.5 336.5 L 663.5 430.5" fill="transparent" stroke-width="0.5" stroke="hsl(0, 0%, 100%)"></path><path d="M 658 449 L 642.5 405.5" fill="transparent" stroke-width="0.5" stroke="hsl(0, 0%, 100%)"></path><path d="M 559 357.5 L 640 456" fill="transparent" stroke-width="0.5" stroke="hsl(0, 0%, 100%)"></path><path d="M 563 378.5 L 628.5 456" fill="transparent" stroke-width="0.5" stroke="hsl(0, 0%, 100%)"></path><path d="M 571 402 L 615.5 456" fill="transparent" stroke-width="0.5" stroke="hsl(0, 0%, 100%)"></path><path d="M 576.5 425.5 L 601 456" fill="transparent" stroke-width="0.5" stroke="hsl(0, 0%, 100%)"></path><path d="M 612 436.5 L 616.5 456" fill="transparent" stroke-width="0.5" stroke="hsl(0, 0%, 100%)"></path><path d="M 535 266 L 553 337" fill="transparent" stroke-width="0.5" stroke="hsl(0, 0%, 100%)"></path><path d="M 535 266 L 549.5 273.5" fill="transparent" stroke-width="0.5" stroke="hsl(0, 0%, 100%)"></path><path d="M 549.5 273.5 L 547.5 265" fill="transparent" stroke-width="0.5" stroke="hsl(0, 0%, 100%)"></path><path d="M 489.5 260.5 L 583.5 302.5" fill="transparent" stroke-width="0.5" stroke="hsl(0, 0%, 100%)"></path><path d="M 460.5 456 L 449.5 363" fill="transparent" stroke-width="0.5" stroke="hsl(0, 0%, 100%)"></path><path d="M 528.5 456 L 518.5 409" fill="transparent" stroke-width="0.5" stroke="hsl(0, 0%, 100%)"></path><path d="M 433.5 220.5 L 496 296.5" fill="transparent" stroke-width="0.5" stroke="hsl(0, 0%, 100%)"></path><path d="M 438.5 211 L 493 278.5" fill="transparent" stroke-width="0.5" stroke="hsl(0, 0%, 100%)"></path><path d="M 457 263 L 474.5 270.5" fill="transparent" stroke-width="0.5" stroke="hsl(0, 0%, 100%)"></path><path d="M 450.5 217.5 L 451 226.5" fill="transparent" stroke-width="0.5" stroke="hsl(0, 0%, 100%)"></path><path d="M 456 219.5 L 489 260" fill="transparent" stroke-width="0.5" stroke="hsl(0, 0%, 100%)"></path><path d="M 507 268.5 L 510.5 285.5 L 620.5 417" fill="transparent" stroke-width="0.5" stroke="hsl(0, 0%, 100%)"></path><path d="M 620.5 417 L 632 456" fill="transparent" stroke-width="0.5" stroke="hsl(0, 0%, 100%)"></path><path d="M 628 400.5 L 646 456" fill="transparent" stroke-width="0.5" stroke="hsl(0, 0%, 100%)"></path><path d="M 642.5 444.5 L 681.5 456" fill="transparent" stroke-width="0.5" stroke="hsl(0, 0%, 100%)"></path><path d="M 628 366 L 642.5 405.5" fill="transparent" stroke-width="0.5" stroke="hsl(0, 0%, 100%)"></path><path d="M 556 270 L 714 456" fill="transparent" stroke-width="0.5" stroke="hsl(0, 0%, 100%)"></path><path d="M 663.5 431 L 682 456" fill="transparent" stroke-width="0.5" stroke="hsl(0, 0%, 100%)"></path><path d="M 656 410.5 L 669.5 415 L 663 395.5 L 675 400 L 667.5 381.5" fill="transparent" stroke-width="0.5" stroke="hsl(0, 0%, 100%)"></path><path d="M 683 419.5 L 695 423.5 L 652.5 318.5" fill="transparent" stroke-width="0.5" stroke="hsl(0, 0%, 100%)"></path><path d="M 655 376.5 L 648 359 L 660.5 364 L 653.5 346.5 L 666.5 353" fill="transparent" stroke-width="0.5" stroke="hsl(0, 0%, 100%)"></path><path d="M 628.5 336.5 L 641 342" fill="transparent" stroke-width="0.5" stroke="hsl(0, 0%, 100%)"></path><path d="M 623 320.5 L 712.5 360" fill="transparent" stroke-width="0.5" stroke="hsl(0, 0%, 100%)"></path><path d="M 722.5 364.5 L 741.5 373" fill="transparent" stroke-width="0.5" stroke="hsl(0, 0%, 100%)"></path><path d="M 749 376 L 758 380" fill="transparent" stroke-width="0.5" stroke="hsl(0, 0%, 100%)"></path><path d="M 767.5 384 L 785 392" fill="transparent" stroke-width="0.5" stroke="hsl(0, 0%, 100%)"></path><path d="M 664 324.5 L 683.5 372.5" fill="transparent" stroke-width="0.5" stroke="hsl(0, 0%, 100%)"></path><path d="M 666.5 352.5 L 722.5 417.5" fill="transparent" stroke-width="0.5" stroke="hsl(0, 0%, 100%)"></path><path d="M 609.5 314 L 648.5 359" fill="transparent" stroke-width="0.5" stroke="hsl(0, 0%, 100%)"></path><path d="M 589.5 287 L 596.5 308" fill="transparent" stroke-width="0.5" stroke="hsl(0, 0%, 100%)"></path><path d="M 596.5 308 L 609.5 314" fill="transparent" stroke-width="0.5" stroke="hsl(0, 0%, 100%)"></path><path d="M 527.5 293.5 L 591.5 369.5" fill="transparent" stroke-width="0.5" stroke="hsl(0, 0%, 100%)"></path><path d="M 539 283 L 600 355.5" fill="transparent" stroke-width="0.5" stroke="hsl(0, 0%, 100%)"></path><path d="M 549.5 273.5 L 567.5 295" fill="transparent" stroke-width="0.5" stroke="hsl(0, 0%, 100%)"></path><path d="M 707.5 428 L 752.5 443.5" fill="transparent" stroke-width="0.5" stroke="hsl(0, 0%, 100%)"></path><path d="M 716.5 351 L 767 456" fill="transparent" stroke-width="0.5" stroke="hsl(0, 0%, 100%)"></path><path d="M 739 383 L 749 387.5" fill="transparent" stroke-width="0.5" stroke="hsl(0, 0%, 100%)"></path><path d="M 775 398.5 L 799 408" fill="transparent" stroke-width="0.5" stroke="hsl(0, 0%, 100%)"></path><path d="M 772.5 435.5 L 782.5 439.5" fill="transparent" stroke-width="0.5" stroke="hsl(0, 0%, 100%)"></path><path d="M 791.5 443 L 800 446" fill="transparent" stroke-width="0.5" stroke="hsl(0, 0%, 100%)"></path><path d="M 809 449 L 817 452" fill="transparent" stroke-width="0.5" stroke="hsl(0, 0%, 100%)"></path><path d="M 716 448 L 728 452" fill="transparent" stroke-width="0.5" stroke="hsl(0, 0%, 100%)"></path><path d="M 722 417 L 743 425" fill="transparent" stroke-width="0.5" stroke="hsl(0, 0%, 100%)"></path><path d="M 735 408 L 743 425" fill="transparent" stroke-width="0.5" stroke="hsl(0, 0%, 100%)"></path><path d="M 691.5 350.5 L 713.5 399" fill="transparent" stroke-width="0.5" stroke="hsl(0, 0%, 100%)"></path><path d="M 706 346 L 719 375 L 709 370.5 L 717 387 L 706 382" fill="transparent" stroke-width="0.5" stroke="hsl(0, 0%, 100%)"></path><path d="M 738 395 L 747.5 399.5" fill="transparent" stroke-width="0.5" stroke="hsl(0, 0%, 100%)"></path><path d="M 687.5 405 L 727.5 452" fill="transparent" stroke-width="0.5" stroke="hsl(0, 0%, 100%)"></path><path d="M 677.5 357 L 688.5 362.5 L 675 330" fill="transparent" stroke-width="0.5" stroke="hsl(0, 0%, 100%)"></path><path d="M 743 364.5 L 791 456" fill="transparent" stroke-width="0.5" stroke="hsl(0, 0%, 100%)"></path><path d="M 747 399.5 L 739 383" fill="transparent" stroke-width="0.5" stroke="hsl(0, 0%, 100%)"></path><path d="M 591.5 293 L 641 315.5" fill="transparent" stroke-width="0.5" stroke="hsl(0, 0%, 100%)"></path><path d="M 640 312.5 L 641 315.5 L 659.5 336.5" fill="transparent" stroke-width="0.5" stroke="hsl(0, 0%, 100%)"></path><path d="M 629.5 310.5 L 635 326" fill="transparent" stroke-width="0.5" stroke="hsl(0, 0%, 100%)"></path><path d="M 609.5 314 L 604 298.5" fill="transparent" stroke-width="0.5" stroke="hsl(0, 0%, 100%)"></path><path d="M 603.5 299 L 740.5 456" fill="transparent" stroke-width="0.5" stroke="hsl(0, 0%, 100%)"></path><path d="M 694.5 423 L 722.5 456" fill="transparent" stroke-width="0.5" stroke="hsl(0, 0%, 100%)"></path><path d="M 635 325.5 L 653.5 346.5" fill="transparent" stroke-width="0.5" stroke="hsl(0, 0%, 100%)"></path><path d="M 655 376.5 L 674.5 399.5" fill="transparent" stroke-width="0.5" stroke="hsl(0, 0%, 100%)"></path><path d="M 699.5 409 L 711 413.5" fill="transparent" stroke-width="0.5" stroke="hsl(0, 0%, 100%)"></path><path d="M 620.5 380 L 642.5 405.5" fill="transparent" stroke-width="0.5" stroke="hsl(0, 0%, 100%)"></path><path d="M 725.5 404 L 733.5 421.5" fill="transparent" stroke-width="0.5" stroke="hsl(0, 0%, 100%)"></path><path d="M 722 417.5 L 730.5 435.5" fill="transparent" stroke-width="0.5" stroke="hsl(0, 0%, 100%)"></path><path d="M 741.5 439.5 L 749.5 456" fill="transparent" stroke-width="0.5" stroke="hsl(0, 0%, 100%)"></path><path d="M 728 452 L 730 456" fill="transparent" stroke-width="0.5" stroke="hsl(0, 0%, 100%)"></path><path d="M 691 440 L 697.5 456" fill="transparent" stroke-width="0.5" stroke="hsl(0, 0%, 100%)"></path><path d="M 669.5 415 L 705 456" fill="transparent" stroke-width="0.5" stroke="hsl(0, 0%, 100%)"></path><path d="M 752 369 L 782 426 L 792.5 430.5 L 761 373" fill="transparent" stroke-width="0.5" stroke="hsl(0, 0%, 100%)"></path><path d="M 747 399.5 L 764.5 419.5" fill="transparent" stroke-width="0.5" stroke="hsl(0, 0%, 100%)"></path><path d="M 729 357 L 741.5 373" fill="transparent" stroke-width="0.5" stroke="hsl(0, 0%, 100%)"></path><path d="M 741.5 373 L 764.5 419.5" fill="transparent" stroke-width="0.5" stroke="hsl(0, 0%, 100%)"></path><path d="M 709.5 371 L 745 411.5" fill="transparent" stroke-width="0.5" stroke="hsl(0, 0%, 100%)"></path><path d="M 717 387 L 735 408" fill="transparent" stroke-width="0.5" stroke="hsl(0, 0%, 100%)"></path><path d="M 738 395.5 L 772.5 436" fill="transparent" stroke-width="0.5" stroke="hsl(0, 0%, 100%)"></path><path d="M 772.5 450.5 L 753.5 428.5" fill="transparent" stroke-width="0.5" stroke="hsl(0, 0%, 100%)"></path><path d="M 792.5 430.5 L 809 449" fill="transparent" stroke-width="0.5" stroke="hsl(0, 0%, 100%)"></path><path d="M 782 426 L 799.5 445.5" fill="transparent" stroke-width="0.5" stroke="hsl(0, 0%, 100%)"></path><path d="M 808.5 424 L 830.5 444" fill="transparent" stroke-width="0.5" stroke="hsl(0, 0%, 100%)"></path><path d="M 674 371 L 730.5 435.5" fill="transparent" stroke-width="0.5" stroke="hsl(0, 0%, 100%)"></path><path d="M 544 301.5 L 564 324.5" fill="transparent" stroke-width="0.5" stroke="hsl(0, 0%, 100%)"></path><path d="M 554.5 290 L 574 313" fill="transparent" stroke-width="0.5" stroke="hsl(0, 0%, 100%)"></path><path d="M 570.5 277 L 634.5 353.5" fill="transparent" stroke-width="0.5" stroke="hsl(0, 0%, 100%)"></path><path d="M 614 361.5 L 594.5 337.5" fill="transparent" stroke-width="0.5" stroke="hsl(0, 0%, 100%)"></path><path d="M 608.5 343.5 L 588.5 319" fill="transparent" stroke-width="0.5" stroke="hsl(0, 0%, 100%)"></path><path d="M 635.5 386 L 656 410.5" fill="transparent" stroke-width="0.5" stroke="hsl(0, 0%, 100%)"></path><path d="M 743 425 L 762.5 447.5" fill="transparent" stroke-width="0.5" stroke="hsl(0, 0%, 100%)"></path><path d="M 752 443.5 L 764.5 456" fill="transparent" stroke-width="0.5" stroke="hsl(0, 0%, 100%)"></path><path d="M 809 449 L 770 378" fill="transparent" stroke-width="0.5" stroke="hsl(0, 0%, 100%)"></path><path d="M 800.5 421 L 783.5 402" fill="transparent" stroke-width="0.5" stroke="hsl(0, 0%, 100%)"></path><path d="M 791.5 443 L 798 456" fill="transparent" stroke-width="0.5" stroke="hsl(0, 0%, 100%)"></path><path d="M 800 446 L 810 456" fill="transparent" stroke-width="0.5" stroke="hsl(0, 0%, 100%)"></path><path d="M 817 452 L 821 456" fill="transparent" stroke-width="0.5" stroke="hsl(0, 0%, 100%)"></path><path d="M 684 334.5 L 702 355" fill="transparent" stroke-width="0.5" stroke="hsl(0, 0%, 100%)"></path><path d="M 775.5 456 L 772.5 450 L 782 454 L 772.5 435.5" fill="transparent" stroke-width="0.5" stroke="hsl(0, 0%, 100%)"></path><path d="M 826.5 456 L 800 420.5 L 808.5 424 L 798.5 408" fill="transparent" stroke-width="0.5" stroke="hsl(0, 0%, 100%)"></path><path d="M 677.5 357 L 713.5 399.5" fill="transparent" stroke-width="0.5" stroke="hsl(0, 0%, 100%)"></path><path d="M 688 362 L 705.5 382" fill="transparent" stroke-width="0.5" stroke="hsl(0, 0%, 100%)"></path><path d="M 692 351 L 709.5 371" fill="transparent" stroke-width="0.5" stroke="hsl(0, 0%, 100%)"></path><path d="M 718.5 375 L 738 395.5" fill="transparent" stroke-width="0.5" stroke="hsl(0, 0%, 100%)"></path><path d="M 723.5 365 L 739.5 383.5" fill="transparent" stroke-width="0.5" stroke="hsl(0, 0%, 100%)"></path><path d="M 758 380 L 775 398.5" fill="transparent" stroke-width="0.5" stroke="hsl(0, 0%, 100%)"></path><path d="M 487 243.5 L 475.5 230" fill="transparent" stroke-width="0.5" stroke="hsl(0, 0%, 100%)"></path><path d="M 503.5 252 L 523.5 276" fill="transparent" stroke-width="0.5" stroke="hsl(0, 0%, 100%)"></path><path d="M 535.5 266.5 L 518.5 251.5" fill="transparent" stroke-width="0.5" stroke="hsl(0, 0%, 100%)"></path></g><g transform="translate(0 2)"><path d="M 0 470 L 0 41 L 325 1 L 606 470 Z" fill="rgba(255, 255, 255, 0.2)"></path><path d="M 1173.5 469 L 1107.5 393.5 L 325 0 L 606 469 Z" fill="rgba(255, 255, 255, 0.1)"></path></g><path d="M -1 42.5 L 326.5 2 L 1108 396 L 1175 472.5" fill="transparent" stroke-width="3" stroke="hsl(0, 0%, 100%)"></path><path d="M 326.5 2.5 L 607.5 474.5" fill="transparent" stroke-width="3" stroke="hsl(0, 0%, 100%)"></path></svg>