<svg xmlns="http://www.w3.org/2000/svg" viewBox="0 0 743.92 289.34"><title>Asset 2</title><g id="a048648c-2f13-44b0-9aa1-544def3bc904" data-name="Layer 2"><g id="afddd6c3-45f6-44b7-b6eb-d3b4b86f71bf" data-name="Layer 1"><path d="M18.87,289.34A18.89,18.89,0,0,1,0,270.46V75.62A18.9,18.9,0,0,1,18.87,56.73H135.05l10.72,11.79H18.87a7.09,7.09,0,0,0-7.08,7.1V270.46a7.09,7.09,0,0,0,7.08,7.09H343.18a7.09,7.09,0,0,0,7.08-7.09V75.62a7.09,7.09,0,0,0-7.08-7.1H216.28L227,56.73H343.18a18.9,18.9,0,0,1,18.87,18.89V270.46a18.89,18.89,0,0,1-18.87,18.88Z" fill="#fff"/><path d="M191.84,82.65l5.53-6.08,7.32-8L215.4,56.73l21.32-23.44a4.74,4.74,0,0,0,1-5.88l-.18-.29-15.64-25A4.64,4.64,0,0,0,218,0H144a4.63,4.63,0,0,0-3.93,2.18L124.4,27.31a4.61,4.61,0,0,0-.09,4.69,4.46,4.46,0,0,0,.9,1.15l21.44,23.58,10.71,11.79,7.32,8,5.53,6.09Zm23.6-73.39,9.18,14.64H205.28L199.39,9.26Zm-11,23.9h19.86L202.89,56.73l-9.57,10.53,3.44-10.53ZM172.65,9.26H189.4l5.89,14.64H166.76Zm-26.05,0h16.07l-5.9,14.64H137.45Zm12.56,47.47L137.74,33.16h19.85l7.7,23.57,3.45,10.53Zm8.17-23.57h27.39L187,56.73l-3.86,11.79L181,75.06l-2.14-6.54L175,56.73Z" fill="#fff"/><path d="M330.07,103.31l12.31-19.18c.81-1.69-1.46-3.65-3.34-3.65l-9.84,6.43a3.42,3.42,0,0,1-2.75,0l-9.94-6.43c-1.88,0-4.15,2-3.34,3.65l12.31,19.18A2.55,2.55,0,0,0,330.07,103.31Z" fill="#fff"/><path d="M181,80.75A92.29,92.29,0,1,0,273.32,173,92.29,92.29,0,0,0,181,80.75ZM147.21,97a83.37,83.37,0,0,1,92.64,17.24c.88.89,1.75,1.8,2.59,2.72-1.66-1.1-3.34-2.14-5.08-3.1A81.71,81.71,0,0,0,206,104.16l-1-.1a73,73,0,0,0-75.68,17.52c.53-1.2,1.09-2.39,1.68-3.56A73.25,73.25,0,0,1,147.21,97ZM244.45,173A63.43,63.43,0,1,1,181,109.61,63.42,63.42,0,0,1,244.45,173Zm-146.65,0a82.67,82.67,0,0,1,24.37-58.84,85.73,85.73,0,0,1,8.54-7.46,76.81,76.81,0,0,0-5.15,8.68,79.05,79.05,0,0,0-6.8,19.46,72.88,72.88,0,0,0-4.12,68.62l-.56-.51a73.57,73.57,0,0,1-16-22.44C97.91,178.09,97.8,175.58,97.8,173.06Zm24.37,58.84a82.82,82.82,0,0,1-20.63-34,76.29,76.29,0,0,0,8.54,9.57,77.14,77.14,0,0,0,12.81,9.8A72.94,72.94,0,0,0,181,246.1c1.19,0,2.37,0,3.55-.09a73.94,73.94,0,0,1-29.26,6.23A82.84,82.84,0,0,1,122.17,231.9Zm126-24A74,74,0,0,1,236,235.54a82.59,82.59,0,0,1-55,20.73q-3.67,0-7.29-.32a75.8,75.8,0,0,0,13.47-4.58,78.53,78.53,0,0,0,13.93-8.09,73.38,73.38,0,0,0,48.37-44.83A71.2,71.2,0,0,1,248.18,207.92ZM254,176.47c0-1.13.08-2.27.08-3.41a73,73,0,0,0-29.36-58.5,71.74,71.74,0,0,1,9.79,4.49,73.81,73.81,0,0,1,22.09,19,83.5,83.5,0,0,1-4.38,78.13q1.09-3.51,1.84-7.1A81.64,81.64,0,0,0,254,176.47Z" fill="#fff"/><path d="M406,208.14c-8.7,0-15.47-2.43-20.14-7.22-6.17-5.82-9.3-14.27-9.3-25.12,0-11.06,3.14-19.51,9.31-25.13,4.67-4.78,11.44-7.21,20.13-7.21s15.46,2.43,20.12,7.22c6.15,5.61,9.27,14.07,9.27,25.12,0,10.84-3.12,19.3-9.26,25.12C421.45,205.71,414.67,208.14,406,208.14Zm0-62.07c-8,0-14.13,2.17-18.29,6.45l-.06.06c-5.63,5.1-8.48,12.91-8.48,23.22,0,10.11,2.86,17.93,8.5,23.25l0,0c4.16,4.28,10.31,6.45,18.29,6.45s14.13-2.17,18.28-6.45l0,0c5.62-5.32,8.47-13.14,8.47-23.25,0-10.31-2.85-18.12-8.45-23.23l-.06,0C420.11,148.24,414,146.07,406,146.07Zm0,51.69a15.47,15.47,0,0,1-12.64-5.86c-3.07-3.8-4.62-9.22-4.62-16.1s1.55-12.29,4.62-16.09A15.47,15.47,0,0,1,406,153.85a15.3,15.3,0,0,1,12.58,5.88c3,3.82,4.55,9.22,4.55,16.07s-1.53,12.29-4.56,16.09h0A15.3,15.3,0,0,1,406,197.76Zm0-41.31a12.83,12.83,0,0,0-10.61,4.89c-2.69,3.33-4.05,8.19-4.05,14.46s1.36,11.14,4.05,14.46A12.82,12.82,0,0,0,406,195.15a12.65,12.65,0,0,0,10.54-4.88c2.65-3.33,4-8.2,4-14.47s-1.34-11.1-4-14.45A12.67,12.67,0,0,0,406,156.45Z" fill="#fff"/><path d="M453.64,206.51H438.86V145.34h44.42v12.9H453.64v10.89h26v12.79h-26Zm-12.18-2.6H451V179.32h26v-7.59H451V155.64h29.65v-7.7H441.46Z" fill="#fff"/><path d="M500.15,206.51H485.37V145.34H529.8v12.9H500.15v10.89h26v12.79h-26ZM488,203.91h9.57V179.32h26v-7.59h-26V155.64h29.64v-7.7H488Z" fill="#fff"/><path d="M545.68,206.51H530.9V145.26h14.78Zm-12.18-2.6h9.57v-56H533.5Z" fill="#fff"/><path d="M576.87,208.14c-8.69,0-15.64-2.88-20.65-8.56s-7.49-13.47-7.49-23.22c0-10.54,2.86-18.82,8.52-24.59,5-5.06,11.33-7.63,19-7.63,10.16,0,17.73,3.45,22.48,10.27A22.6,22.6,0,0,1,602.94,166l.06,1.37H588.39l-.26-1a15.68,15.68,0,0,0-2.74-5.87c-1.94-2.26-4.79-3.36-8.72-3.36a10.62,10.62,0,0,0-9.26,4.84c-2.35,3.35-3.55,8.23-3.55,14.51s1.25,10.94,3.7,14a11.18,11.18,0,0,0,9.13,4.43c3.82,0,6.63-1.21,8.59-3.72a17.25,17.25,0,0,0,2.8-6.33l.26-1h14.71l-.25,1.51a27.83,27.83,0,0,1-8.45,16.35C589.81,206,583.93,208.14,576.87,208.14Zm-.66-61.39c-6.9,0-12.65,2.3-17.1,6.85h0c-5.16,5.26-7.78,12.92-7.78,22.76,0,9.1,2.3,16.34,6.84,21.5s10.79,7.68,18.7,7.68c6.38,0,11.66-1.91,15.71-5.66A24.88,24.88,0,0,0,600,186.53h-9.62a18.16,18.16,0,0,1-3,6.32c-2.45,3.12-6,4.71-10.63,4.71a13.81,13.81,0,0,1-11.15-5.4c-2.84-3.5-4.28-8.75-4.28-15.6s1.35-12.21,4-16a13.24,13.24,0,0,1,11.39-5.94c4.67,0,8.27,1.43,10.7,4.27a17,17,0,0,1,3,5.91h9.86a20.89,20.89,0,0,0-3.66-8.9C592.26,149.74,585.6,146.75,576.21,146.75Z" fill="#fff"/><path d="M620.65,206.51H605.87V145.26h14.78Zm-12.18-2.6H618v-56h-9.57Z" fill="#fff"/><path d="M680.77,206.51H664.69l-3.87-12.06h-19.7l-4,12.06H621.53l21.87-61.25h15.7Zm-14.18-2.6h10.5l-19.83-56h-12l-20,56h10l4-12.06h23.49Zm-6.28-19.56h-18.6l9.43-28.59Zm-15-2.61h11.43l-5.64-17.57Z" fill="#fff"/><path d="M726,206.51H681.83V145.26h14.86v48.1H726Zm-41.54-2.6h38.93V196H694.09V147.86h-9.65Z" fill="#fff"/><polygon points="391.46 142.56 406.4 142.56 406.4 94.29 423.95 94.29 423.95 81.3 373.84 81.3 373.84 94.29 391.46 94.29 391.46 142.56" fill="#fff"/><polygon points="439.95 116.38 460.14 116.38 460.14 142.56 474.92 142.56 474.92 81.3 460.14 81.3 460.14 103.67 439.95 103.67 439.95 81.3 425.17 81.3 425.17 142.56 439.95 142.56 439.95 116.38" fill="#fff"/><polygon points="528.25 129.41 495.78 129.41 495.78 116.93 524.27 116.93 524.27 104.14 495.78 104.14 495.78 94.29 526.81 94.29 526.81 81.3 481.2 81.3 481.2 142.56 528.25 142.56 528.25 129.41" fill="#fff"/><polygon points="427.98 244.2 427.48 246.68 426.93 243.82 419.75 209.21 404.69 209.21 397.85 244.05 397.46 246.19 397.04 243.86 389.05 209.21 373.28 209.21 390.65 270.46 404.07 270.46 411.38 235.09 412.16 230.77 412.96 235.12 420.25 270.46 434.04 270.46 451.27 209.21 436.04 209.21 427.98 244.2" fill="#fff"/><polygon points="467.32 244.84 495.81 244.84 495.81 232.05 467.32 232.05 467.32 222.2 498.36 222.2 498.36 209.21 452.74 209.21 452.74 270.46 499.79 270.46 499.79 257.31 467.32 257.31 467.32 244.84" fill="#fff"/><path d="M550.2,218.47a20.77,20.77,0,0,0-10.65-7.93,32.27,32.27,0,0,0-9.48-1.33H503.48v61.25h26.59c9.32,0,16.32-3.9,20.8-11.59,3.23-5.59,4.87-12.47,4.87-20.47a47.08,47.08,0,0,0-1.15-10A27.32,27.32,0,0,0,550.2,218.47ZM518,222h10c5,0,8.44,1.39,10,4.15,1.75,3,2.63,7.38,2.63,13.09a29,29,0,0,1-1.78,10.69c-2.08,5.21-5.65,7.74-10.9,7.74H518Z" fill="#fff"/><path d="M605.79,218.47a20.77,20.77,0,0,0-10.65-7.93,32.27,32.27,0,0,0-9.48-1.33H559.07v61.25h26.59c9.32,0,16.32-3.9,20.8-11.59,3.23-5.59,4.87-12.47,4.87-20.47a47.08,47.08,0,0,0-1.15-10A27.32,27.32,0,0,0,605.79,218.47ZM573.57,222h10c5,0,8.44,1.39,10,4.15,1.75,3,2.63,7.38,2.63,13.09a29,29,0,0,1-1.78,10.69c-2.08,5.21-5.65,7.74-10.9,7.74h-10Z" fill="#fff"/><rect x="613.66" y="209.21" width="14.78" height="61.25" fill="#fff"/><polygon points="669.97 246.49 648.75 209.21 633.84 209.21 633.84 270.46 647.86 270.46 647.86 232.43 669.68 270.46 683.99 270.46 683.99 209.21 669.97 209.21 669.97 246.49" fill="#fff"/><path d="M716.88,236.38v12.39h13.28a13.42,13.42,0,0,1-4.13,7,13.16,13.16,0,0,1-9.24,3.2,14.79,14.79,0,0,1-10.34-4.15c-3-2.72-4.51-7.54-4.51-14.32s1.43-11.92,4.25-15.22a13.24,13.24,0,0,1,10.64-4.89,15.41,15.41,0,0,1,6.2,1.21,10.16,10.16,0,0,1,6.06,7.5l.24,1h14.55l-.17-1.45a22.4,22.4,0,0,0-8.24-15c-4.74-4-11.06-6-18.8-6-8.93,0-16.23,3-21.69,9s-8.18,13.92-8.18,23.7,2.73,17.45,8.11,23.07C700.1,269.12,706.85,272,715,272a23.79,23.79,0,0,0,12.61-3.16,24.38,24.38,0,0,0,4.86-4.09l1,5.74h10.52V236.38Z" fill="#fff"/></g></g></svg>