<svg xmlns="http://www.w3.org/2000/svg" viewBox="0 0 362.05 289.34"><title>logo</title><g id="bb24b32a-03c6-42a6-84e7-f255a41850cc" data-name="Layer 2"><g id="b009b9bc-9118-411f-88f8-55f029387442" data-name="Layer 1"><path d="M18.87,289.34A18.89,18.89,0,0,1,0,270.46V75.62A18.9,18.9,0,0,1,18.87,56.73H135.05l10.72,11.79H18.87a7.09,7.09,0,0,0-7.08,7.1V270.46a7.09,7.09,0,0,0,7.08,7.09H343.18a7.09,7.09,0,0,0,7.08-7.09V75.62a7.09,7.09,0,0,0-7.08-7.1H216.28L227,56.73H343.18a18.9,18.9,0,0,1,18.87,18.89V270.46a18.89,18.89,0,0,1-18.87,18.88Z" fill="#231f20"/><path d="M191.84,82.65l5.53-6.08,7.32-8L215.4,56.73l21.32-23.44a4.74,4.74,0,0,0,1-5.88l-.18-.29-15.64-25A4.64,4.64,0,0,0,218,0H144a4.63,4.63,0,0,0-3.93,2.18L124.4,27.31a4.61,4.61,0,0,0-.09,4.69,4.46,4.46,0,0,0,.9,1.15l21.44,23.58,10.71,11.79,7.32,8,5.53,6.09Zm23.6-73.39,9.18,14.64H205.28L199.39,9.26Zm-11,23.9h19.86L202.89,56.73l-9.57,10.53,3.44-10.53ZM172.65,9.26H189.4l5.89,14.64H166.76Zm-26.05,0h16.07l-5.9,14.64H137.45Zm12.56,47.47L137.74,33.16h19.85l7.7,23.57,3.45,10.53Zm8.17-23.57h27.39L187,56.73l-3.86,11.79L181,75.06l-2.14-6.54L175,56.73Z" fill="#231f20"/><path d="M330.07,103.31l12.31-19.18c.81-1.69-1.46-3.65-3.34-3.65l-9.84,6.43a3.42,3.42,0,0,1-2.75,0l-9.94-6.43c-1.88,0-4.15,2-3.34,3.65l12.31,19.18A2.55,2.55,0,0,0,330.07,103.31Z" fill="#231f20"/><path d="M181,80.75A92.29,92.29,0,1,0,273.32,173,92.29,92.29,0,0,0,181,80.75ZM147.21,97a83.37,83.37,0,0,1,92.64,17.24c.88.89,1.75,1.8,2.59,2.72-1.66-1.1-3.34-2.14-5.08-3.1A81.71,81.71,0,0,0,206,104.16l-1-.1a73,73,0,0,0-75.68,17.52c.53-1.2,1.09-2.39,1.68-3.56A73.25,73.25,0,0,1,147.21,97ZM244.45,173A63.43,63.43,0,1,1,181,109.61,63.42,63.42,0,0,1,244.45,173Zm-146.65,0a82.67,82.67,0,0,1,24.37-58.84,85.73,85.73,0,0,1,8.54-7.46,76.81,76.81,0,0,0-5.15,8.68,79.05,79.05,0,0,0-6.8,19.46,72.88,72.88,0,0,0-4.12,68.62l-.56-.51a73.57,73.57,0,0,1-16-22.44C97.91,178.09,97.8,175.58,97.8,173.06Zm24.37,58.84a82.82,82.82,0,0,1-20.63-34,76.29,76.29,0,0,0,8.54,9.57,77.14,77.14,0,0,0,12.81,9.8A72.94,72.94,0,0,0,181,246.1c1.19,0,2.37,0,3.55-.09a73.94,73.94,0,0,1-29.26,6.23A82.84,82.84,0,0,1,122.17,231.9Zm126-24A74,74,0,0,1,236,235.54a82.59,82.59,0,0,1-55,20.73q-3.67,0-7.29-.32a75.8,75.8,0,0,0,13.47-4.58,78.53,78.53,0,0,0,13.93-8.09,73.38,73.38,0,0,0,48.37-44.83A71.2,71.2,0,0,1,248.18,207.92ZM254,176.47c0-1.13.08-2.27.08-3.41a73,73,0,0,0-29.36-58.5,71.74,71.74,0,0,1,9.79,4.49,73.81,73.81,0,0,1,22.09,19,83.5,83.5,0,0,1-4.38,78.13q1.09-3.51,1.84-7.1A81.64,81.64,0,0,0,254,176.47Z" fill="#231f20"/></g></g></svg>